<svg width="348" height="350" viewBox="0 0 348 350" fill="none" xmlns="http://www.w3.org/2000/svg">
<path d="M337.788 279.553H312.423V279.744H337.788V279.553Z" fill="#EBEBEB"/>
<path d="M246.897 281.635H240.242V281.826H246.897V281.635Z" fill="#EBEBEB"/>
<path d="M311.658 272.451H296.961V272.643H311.658V272.451Z" fill="#EBEBEB"/>
<path d="M66.4857 273.736H33.4087V273.928H66.4857V273.736Z" fill="#EBEBEB"/>
<path d="M78.1574 273.736H73.3096V273.928H78.1574V273.736Z" fill="#EBEBEB"/>
<path d="M165.663 276.967H93.9185V277.158H165.663V276.967Z" fill="#EBEBEB"/>
<path d="M175.811 233.102H27.9252C26.7655 233.102 25.6532 232.642 24.8331 231.822C24.013 231.003 23.5522 229.891 23.5522 228.732V20.9863C23.5623 19.8339 24.0275 18.7321 24.8465 17.9208C25.6655 17.1094 26.7721 16.6543 27.9252 16.6543H175.811C176.385 16.6543 176.954 16.7673 177.484 16.987C178.015 17.2066 178.497 17.5285 178.903 17.9343C179.309 18.3401 179.631 18.8219 179.851 19.3522C180.071 19.8824 180.184 20.4507 180.184 21.0246V228.732C180.184 229.306 180.071 229.874 179.851 230.404C179.631 230.935 179.309 231.416 178.903 231.822C178.497 232.228 178.015 232.55 177.484 232.77C176.954 232.989 176.385 233.102 175.811 233.102ZM27.9252 16.8074C26.8169 16.8094 25.7544 17.2503 24.9707 18.0336C24.1869 18.8169 23.7457 19.8786 23.7437 20.9863V228.732C23.7457 229.84 24.1869 230.901 24.9707 231.685C25.7544 232.468 26.8169 232.909 27.9252 232.911H175.811C176.919 232.909 177.982 232.468 178.765 231.685C179.549 230.901 179.99 229.84 179.992 228.732V20.9863C179.99 19.8786 179.549 18.8169 178.765 18.0336C177.982 17.2503 176.919 16.8094 175.811 16.8074H27.9252Z" fill="#EBEBEB"/>
<path d="M341.464 233.102H193.579C192.419 233.102 191.306 232.642 190.486 231.822C189.666 231.003 189.206 229.891 189.206 228.732V20.9863C189.216 19.8339 189.681 18.7321 190.5 17.9208C191.319 17.1094 192.425 16.6543 193.579 16.6543H341.464C342.624 16.6543 343.736 17.1147 344.556 17.9343C345.376 18.7539 345.837 19.8655 345.837 21.0246V228.732C345.837 229.891 345.376 231.003 344.556 231.822C343.736 232.642 342.624 233.102 341.464 233.102ZM193.579 16.8074C192.47 16.8094 191.408 17.2503 190.624 18.0336C189.84 18.8169 189.399 19.8786 189.397 20.9863V228.732C189.399 229.84 189.84 230.901 190.624 231.685C191.408 232.468 192.47 232.909 193.579 232.911H341.464C342.573 232.909 343.635 232.468 344.419 231.685C345.202 230.901 345.644 229.84 345.646 228.732V20.9863C345.644 19.8786 345.202 18.8169 344.419 18.0336C343.635 17.2503 342.573 16.8094 341.464 16.8074H193.579Z" fill="#EBEBEB"/>
<path d="M346 268.232H-6.76758V267.532H346V268.232Z" fill="#EBEBEB"/>
<path d="M314.062 131.453H259.158L252.855 59.4082H307.759L314.062 131.453Z" fill="#F5F5F5"/>
<path d="M294.249 68.6997H266.579C266.403 68.6987 266.234 68.6324 266.103 68.5136C265.973 68.3949 265.892 68.2321 265.875 68.0568C265.866 67.9745 265.875 67.8912 265.901 67.8125C265.927 67.7337 265.969 67.6613 266.024 67.5999C266.08 67.5385 266.148 67.4896 266.224 67.4562C266.3 67.4228 266.382 67.4058 266.464 67.4063H294.135C294.312 67.4092 294.481 67.4772 294.611 67.5972C294.741 67.7172 294.822 67.8808 294.839 68.0568C294.849 68.1391 294.841 68.2225 294.816 68.3015C294.791 68.3804 294.748 68.4528 294.692 68.5139C294.636 68.575 294.568 68.6233 294.491 68.6553C294.415 68.6874 294.332 68.7026 294.249 68.6997Z" fill="#E0E0E0"/>
<path d="M303.547 103.946H269.704C269.527 103.943 269.357 103.875 269.227 103.755C269.097 103.635 269.016 103.471 268.999 103.295C268.991 103.213 269 103.129 269.025 103.051C269.051 102.972 269.093 102.9 269.149 102.838C269.204 102.777 269.272 102.728 269.348 102.694C269.424 102.661 269.506 102.644 269.589 102.645H303.478C303.652 102.657 303.817 102.728 303.945 102.846C304.073 102.964 304.157 103.123 304.182 103.295C304.192 103.381 304.182 103.469 304.153 103.551C304.125 103.633 304.079 103.708 304.018 103.77C303.957 103.832 303.884 103.88 303.802 103.911C303.721 103.941 303.633 103.953 303.547 103.946Z" fill="#E0E0E0"/>
<path d="M303.877 107.735H265.186C265.009 107.732 264.839 107.664 264.709 107.544C264.579 107.424 264.498 107.26 264.481 107.084C264.473 107.002 264.481 106.919 264.507 106.84C264.533 106.761 264.575 106.689 264.631 106.627C264.686 106.566 264.754 106.517 264.83 106.484C264.906 106.45 264.988 106.433 265.071 106.434H303.769C303.943 106.446 304.108 106.517 304.236 106.635C304.364 106.753 304.448 106.912 304.474 107.084C304.483 107.167 304.474 107.251 304.447 107.33C304.421 107.41 304.378 107.482 304.322 107.544C304.265 107.605 304.196 107.654 304.12 107.687C304.043 107.72 303.96 107.736 303.877 107.735Z" fill="#E0E0E0"/>
<path d="M304.213 111.477H265.515C265.338 111.474 265.168 111.406 265.038 111.286C264.908 111.166 264.827 111.002 264.81 110.826C264.802 110.744 264.811 110.661 264.836 110.582C264.862 110.503 264.904 110.431 264.96 110.369C265.015 110.308 265.083 110.259 265.159 110.226C265.235 110.192 265.317 110.175 265.4 110.176H304.098C304.272 110.188 304.437 110.259 304.565 110.377C304.693 110.495 304.777 110.654 304.803 110.826C304.812 110.909 304.803 110.992 304.777 111.071C304.751 111.149 304.709 111.222 304.654 111.283C304.598 111.345 304.53 111.394 304.454 111.427C304.378 111.46 304.296 111.477 304.213 111.477Z" fill="#E0E0E0"/>
<path d="M304.543 115.243H265.875C265.695 115.246 265.519 115.186 265.379 115.073C265.239 114.959 265.143 114.8 265.109 114.623C265.101 114.541 265.109 114.458 265.135 114.379C265.161 114.3 265.203 114.228 265.259 114.166C265.314 114.105 265.382 114.056 265.458 114.023C265.534 113.989 265.616 113.972 265.699 113.973H304.397C304.574 113.976 304.744 114.044 304.874 114.164C305.004 114.284 305.085 114.447 305.102 114.623C305.106 114.701 305.095 114.778 305.069 114.851C305.043 114.924 305.003 114.992 304.951 115.049C304.899 115.107 304.836 115.154 304.766 115.187C304.696 115.22 304.62 115.239 304.543 115.243Z" fill="#E0E0E0"/>
<path d="M304.872 119.008H270.983C270.809 118.996 270.644 118.925 270.516 118.807C270.388 118.688 270.304 118.53 270.279 118.358C270.27 118.275 270.279 118.192 270.305 118.113C270.33 118.035 270.372 117.962 270.428 117.901C270.484 117.839 270.552 117.79 270.628 117.757C270.703 117.724 270.785 117.707 270.868 117.707H304.757C304.934 117.71 305.104 117.778 305.234 117.898C305.364 118.018 305.445 118.182 305.462 118.358C305.47 118.44 305.461 118.523 305.436 118.602C305.41 118.681 305.368 118.753 305.312 118.815C305.257 118.876 305.189 118.925 305.113 118.958C305.037 118.992 304.955 119.009 304.872 119.008Z" fill="#E0E0E0"/>
<path d="M305.201 122.774H266.503C266.329 122.762 266.164 122.691 266.036 122.573C265.908 122.455 265.824 122.296 265.798 122.124C265.789 122.041 265.798 121.957 265.825 121.879C265.851 121.8 265.894 121.727 265.95 121.666C266.007 121.605 266.076 121.557 266.153 121.525C266.23 121.493 266.312 121.478 266.396 121.481H305.086C305.263 121.482 305.432 121.548 305.562 121.667C305.692 121.786 305.774 121.948 305.791 122.124C305.799 122.206 305.791 122.289 305.765 122.368C305.739 122.447 305.697 122.519 305.641 122.581C305.586 122.642 305.518 122.691 305.442 122.724C305.366 122.758 305.284 122.775 305.201 122.774Z" fill="#E0E0E0"/>
<path d="M305.53 126.54H266.832C266.658 126.528 266.493 126.457 266.365 126.338C266.237 126.22 266.153 126.062 266.127 125.889C266.118 125.807 266.128 125.723 266.154 125.644C266.18 125.565 266.223 125.493 266.28 125.432C266.336 125.371 266.405 125.323 266.482 125.291C266.559 125.259 266.641 125.244 266.725 125.246H305.415C305.592 125.247 305.761 125.314 305.891 125.433C306.021 125.551 306.103 125.714 306.12 125.889C306.129 125.972 306.12 126.055 306.094 126.134C306.068 126.212 306.026 126.285 305.97 126.346C305.915 126.408 305.847 126.457 305.771 126.49C305.695 126.523 305.613 126.54 305.53 126.54Z" fill="#E0E0E0"/>
<path d="M291.385 73.0005H270.202C270.025 72.9975 269.855 72.9296 269.725 72.8096C269.595 72.6896 269.514 72.5259 269.497 72.3499C269.487 72.2673 269.495 72.1835 269.521 72.1042C269.546 72.025 269.588 71.952 269.644 71.8904C269.7 71.8287 269.768 71.7798 269.845 71.7468C269.921 71.7138 270.004 71.6977 270.087 71.6993H291.27C291.447 71.7023 291.617 71.7703 291.747 71.8903C291.877 72.0103 291.958 72.1739 291.975 72.3499C291.985 72.4325 291.977 72.5163 291.952 72.5956C291.926 72.6748 291.884 72.7478 291.828 72.8094C291.772 72.8711 291.704 72.9201 291.628 72.953C291.551 72.986 291.468 73.0022 291.385 73.0005Z" fill="#E0E0E0"/>
<path d="M288.299 77.3036H274.039C273.862 77.3006 273.692 77.2327 273.562 77.1127C273.432 76.9927 273.351 76.829 273.334 76.653C273.324 76.5707 273.332 76.4873 273.358 76.4084C273.383 76.3295 273.425 76.257 273.481 76.1959C273.537 76.1348 273.606 76.0866 273.682 76.0545C273.759 76.0224 273.841 76.0073 273.924 76.0101H288.192C288.367 76.0128 288.536 76.0797 288.666 76.1982C288.796 76.3166 288.878 76.4784 288.896 76.653C288.905 76.736 288.896 76.82 288.87 76.8992C288.844 76.9785 288.801 77.0513 288.744 77.1128C288.688 77.1743 288.619 77.2231 288.542 77.256C288.465 77.2889 288.382 77.3051 288.299 77.3036Z" fill="#E0E0E0"/>
<path opacity="0.5" d="M303.646 97.6467H263.654L262.313 82.3086H302.306L303.646 97.6467Z" fill="#E0E0E0"/>
<path d="M92.1196 179.921H124.204L127.887 137.867H95.8026L92.1196 179.921Z" fill="#F5F5F5"/>
<path d="M103.687 143.474H119.762C119.864 143.471 119.961 143.434 120.036 143.37C120.111 143.306 120.159 143.218 120.171 143.124C120.176 143.079 120.171 143.034 120.156 142.991C120.141 142.948 120.117 142.909 120.084 142.876C120.051 142.843 120.011 142.816 119.967 142.799C119.923 142.781 119.875 142.773 119.826 142.774H103.752C103.649 142.774 103.55 142.811 103.475 142.875C103.399 142.94 103.352 143.029 103.343 143.124C103.338 143.169 103.342 143.214 103.357 143.257C103.372 143.299 103.397 143.339 103.43 143.372C103.462 143.405 103.502 143.431 103.546 143.449C103.591 143.467 103.639 143.475 103.687 143.474Z" fill="#E0E0E0"/>
<path d="M98.0743 163.8H117.659C117.762 163.8 117.86 163.763 117.935 163.699C118.01 163.634 118.057 163.545 118.066 163.45C118.072 163.405 118.067 163.36 118.052 163.317C118.037 163.275 118.013 163.235 117.98 163.202C117.948 163.169 117.908 163.143 117.864 163.125C117.819 163.107 117.772 163.099 117.724 163.1H98.144C98.0415 163.101 97.9431 163.138 97.8673 163.202C97.7914 163.267 97.7432 163.355 97.7315 163.45C97.727 163.495 97.7325 163.54 97.7477 163.582C97.763 163.624 97.7875 163.663 97.8198 163.696C97.8521 163.729 97.8914 163.756 97.9353 163.774C97.9791 163.792 98.0265 163.801 98.0743 163.8Z" fill="#E0E0E0"/>
<path d="M98.0754 165.902H120.464C120.566 165.901 120.665 165.865 120.74 165.8C120.816 165.735 120.862 165.647 120.872 165.552C120.877 165.507 120.872 165.462 120.857 165.419C120.842 165.376 120.818 165.337 120.785 165.304C120.753 165.271 120.713 165.244 120.669 165.227C120.624 165.209 120.577 165.2 120.528 165.201H98.1397C98.0377 165.203 97.9399 165.24 97.8648 165.304C97.7897 165.369 97.7425 165.457 97.7321 165.552C97.7267 165.596 97.7317 165.642 97.7466 165.684C97.7615 165.727 97.786 165.766 97.8185 165.8C97.851 165.833 97.8908 165.859 97.9351 165.877C97.9794 165.894 98.0272 165.903 98.0754 165.902Z" fill="#E0E0E0"/>
<path d="M97.3846 168.006H120.452C120.557 168.004 120.658 167.967 120.735 167.902C120.812 167.838 120.861 167.75 120.872 167.655C120.877 167.61 120.872 167.565 120.857 167.522C120.842 167.48 120.816 167.44 120.783 167.407C120.749 167.374 120.708 167.348 120.663 167.33C120.617 167.312 120.568 167.304 120.518 167.305H97.4509C97.3458 167.307 97.245 167.343 97.1677 167.408C97.0904 167.472 97.0417 167.56 97.031 167.655C97.0254 167.7 97.0305 167.745 97.0459 167.788C97.0612 167.831 97.0865 167.87 97.12 167.903C97.1535 167.936 97.1944 167.963 97.24 167.98C97.2857 167.998 97.335 168.006 97.3846 168.006Z" fill="#E0E0E0"/>
<path d="M97.3689 170.107H119.763C119.865 170.106 119.964 170.07 120.039 170.005C120.114 169.94 120.161 169.852 120.171 169.757C120.176 169.712 120.171 169.667 120.156 169.624C120.141 169.581 120.117 169.542 120.084 169.509C120.052 169.476 120.012 169.449 119.967 169.432C119.923 169.414 119.875 169.405 119.827 169.406H97.4386C97.3366 169.408 97.2388 169.445 97.1637 169.51C97.0886 169.574 97.0414 169.662 97.0309 169.757C97.0256 169.801 97.0304 169.846 97.045 169.888C97.0596 169.931 97.0836 169.97 97.1156 170.003C97.1475 170.036 97.1866 170.062 97.2303 170.08C97.2739 170.098 97.3212 170.107 97.3689 170.107Z" fill="#E0E0E0"/>
<path d="M97.3737 172.912H116.958C117.06 172.91 117.158 172.873 117.233 172.809C117.308 172.744 117.355 172.656 117.365 172.561C117.371 172.517 117.366 172.471 117.351 172.429C117.336 172.386 117.311 172.347 117.279 172.313C117.246 172.28 117.207 172.254 117.162 172.236C117.118 172.219 117.07 172.21 117.022 172.211H97.438C97.3361 172.213 97.2385 172.25 97.1635 172.314C97.0885 172.379 97.0413 172.467 97.0309 172.561C97.0255 172.606 97.0305 172.651 97.0454 172.694C97.0602 172.737 97.0848 172.776 97.1172 172.809C97.1497 172.842 97.1894 172.869 97.2336 172.886C97.2779 172.904 97.3256 172.913 97.3737 172.912Z" fill="#E0E0E0"/>
<path d="M96.6783 175.013H119.75C119.855 175.011 119.956 174.975 120.034 174.91C120.111 174.846 120.16 174.758 120.171 174.663C120.176 174.618 120.171 174.573 120.156 174.53C120.14 174.488 120.115 174.448 120.081 174.415C120.048 174.382 120.007 174.356 119.961 174.338C119.916 174.32 119.866 174.312 119.817 174.313H96.7502C96.6446 174.313 96.5431 174.35 96.4654 174.414C96.3877 174.479 96.3394 174.568 96.3298 174.663C96.3243 174.707 96.3293 174.752 96.3443 174.794C96.3594 174.837 96.3842 174.876 96.4171 174.909C96.45 174.942 96.4903 174.969 96.5353 174.987C96.5803 175.004 96.6291 175.014 96.6783 175.013Z" fill="#E0E0E0"/>
<path d="M96.673 177.117H119.061C119.163 177.116 119.262 177.08 119.337 177.015C119.412 176.95 119.459 176.862 119.469 176.766C119.475 176.722 119.471 176.677 119.456 176.634C119.442 176.591 119.418 176.552 119.386 176.519C119.354 176.485 119.315 176.459 119.27 176.441C119.226 176.424 119.179 176.415 119.131 176.416H96.7374C96.635 176.417 96.5366 176.453 96.4612 176.518C96.3859 176.583 96.339 176.671 96.3297 176.766C96.3244 176.811 96.3293 176.856 96.3442 176.899C96.3591 176.942 96.3836 176.981 96.4162 177.014C96.4487 177.048 96.4884 177.074 96.5327 177.092C96.577 177.109 96.6248 177.118 96.673 177.117Z" fill="#E0E0E0"/>
<path d="M105.097 145.576H117.649C117.754 145.575 117.855 145.539 117.932 145.474C118.009 145.409 118.057 145.321 118.067 145.225C118.072 145.181 118.067 145.136 118.052 145.094C118.037 145.052 118.013 145.013 117.98 144.979C117.947 144.946 117.907 144.92 117.863 144.902C117.818 144.884 117.77 144.875 117.721 144.875H105.163C105.059 144.877 104.959 144.914 104.882 144.978C104.805 145.043 104.757 145.131 104.746 145.225C104.74 145.27 104.745 145.315 104.761 145.358C104.776 145.401 104.801 145.44 104.834 145.473C104.868 145.507 104.908 145.533 104.954 145.551C104.999 145.568 105.048 145.577 105.097 145.576Z" fill="#E0E0E0"/>
<path d="M107.165 148.381H114.881C114.976 148.378 115.067 148.341 115.137 148.276C115.207 148.212 115.251 148.124 115.262 148.03C115.266 147.986 115.261 147.941 115.247 147.898C115.233 147.856 115.21 147.817 115.18 147.784C115.149 147.751 115.113 147.725 115.072 147.707C115.031 147.689 114.986 147.679 114.942 147.68H107.23C107.135 147.681 107.043 147.717 106.972 147.782C106.902 147.846 106.858 147.935 106.85 148.03C106.845 148.074 106.849 148.119 106.863 148.162C106.876 148.204 106.899 148.243 106.929 148.276C106.959 148.309 106.995 148.336 107.036 148.354C107.077 148.372 107.121 148.381 107.165 148.381Z" fill="#E0E0E0"/>
<path opacity="0.5" d="M97.73 160.295H121.478L122.276 151.184H98.5282L97.73 160.295Z" fill="#E0E0E0"/>
<path d="M147.168 116.445H205.664L212.388 39.6777H153.884L147.168 116.445Z" fill="#FAFAFA"/>
<path d="M168.275 49.5653H197.76C197.951 49.5662 198.135 49.4962 198.276 49.3688C198.418 49.2414 198.507 49.0659 198.526 48.8764C198.536 48.7888 198.527 48.7001 198.5 48.6162C198.472 48.5323 198.427 48.4551 198.368 48.3899C198.309 48.3247 198.236 48.2729 198.155 48.2381C198.074 48.2032 197.986 48.186 197.898 48.1876H168.413C168.222 48.1867 168.038 48.2567 167.897 48.3841C167.755 48.5114 167.666 48.687 167.647 48.8764C167.637 48.9641 167.646 49.0528 167.673 49.1367C167.701 49.2206 167.745 49.2978 167.805 49.363C167.864 49.4282 167.937 49.4799 168.018 49.5148C168.099 49.5497 168.187 49.5669 168.275 49.5653Z" fill="#E6E6E6"/>
<path d="M158.365 87.1297H194.467C194.658 87.1307 194.842 87.0606 194.983 86.9333C195.125 86.8059 195.214 86.6303 195.233 86.4409C195.242 86.3528 195.232 86.2639 195.203 86.18C195.175 86.0961 195.13 86.0191 195.07 85.9541C195.01 85.889 194.937 85.8374 194.855 85.8026C194.774 85.7678 194.686 85.7505 194.597 85.752H158.488C158.297 85.7511 158.113 85.8211 157.971 85.9485C157.83 86.0759 157.741 86.2514 157.722 86.4409C157.712 86.5299 157.721 86.62 157.749 86.705C157.777 86.79 157.823 86.8679 157.885 86.9334C157.946 86.9988 158.02 87.0503 158.103 87.0842C158.186 87.1181 158.275 87.1336 158.365 87.1297Z" fill="#E6E6E6"/>
<path d="M158.02 91.1491H199.246C199.438 91.1499 199.623 91.0787 199.764 90.9498C199.906 90.8208 199.994 90.6434 200.012 90.4526C200.02 90.3645 200.01 90.2756 199.982 90.1917C199.954 90.1078 199.908 90.0308 199.848 89.9658C199.788 89.9007 199.715 89.8491 199.634 89.8143C199.552 89.7795 199.465 89.7623 199.376 89.7638H158.135C157.945 89.7628 157.76 89.8328 157.619 89.9602C157.477 90.0876 157.388 90.2631 157.369 90.4526C157.36 90.5423 157.371 90.6329 157.4 90.7183C157.429 90.8036 157.476 90.8818 157.537 90.9477C157.599 91.0136 157.674 91.0656 157.757 91.1004C157.84 91.1351 157.93 91.1517 158.02 91.1491Z" fill="#E6E6E6"/>
<path d="M157.668 95.1588H198.894C199.084 95.1597 199.268 95.0897 199.41 94.9623C199.552 94.8349 199.641 94.6594 199.66 94.4699C199.669 94.3819 199.66 94.2929 199.633 94.2086C199.606 94.1243 199.561 94.0467 199.502 93.9809C199.443 93.9151 199.37 93.8626 199.289 93.8269C199.208 93.7911 199.12 93.7729 199.032 93.7734H157.783C157.591 93.7727 157.406 93.8438 157.265 93.9727C157.123 94.1017 157.034 94.2791 157.017 94.4699C157.008 94.5593 157.019 94.6496 157.048 94.7346C157.077 94.8196 157.124 94.8973 157.186 94.9626C157.247 95.0279 157.322 95.0793 157.406 95.1131C157.489 95.1469 157.578 95.1625 157.668 95.1588Z" fill="#E6E6E6"/>
<path d="M157.316 99.1688H198.541C198.732 99.1698 198.916 99.0997 199.058 98.9723C199.199 98.845 199.288 98.6694 199.307 98.48C199.317 98.3923 199.308 98.3036 199.281 98.2197C199.254 98.1358 199.209 98.0586 199.149 97.9934C199.09 97.9282 199.017 97.8765 198.936 97.8416C198.855 97.8067 198.768 97.7895 198.679 97.7911H157.438C157.248 97.7902 157.064 97.8602 156.922 97.9876C156.781 98.115 156.692 98.2905 156.672 98.48C156.664 98.5687 156.674 98.6582 156.703 98.7427C156.731 98.8271 156.777 98.9045 156.838 98.9697C156.899 99.0349 156.973 99.0863 157.056 99.1207C157.138 99.155 157.227 99.1714 157.316 99.1688Z" fill="#E6E6E6"/>
<path d="M156.963 103.181H193.065C193.256 103.181 193.44 103.111 193.582 102.984C193.723 102.857 193.812 102.681 193.831 102.492C193.841 102.404 193.832 102.315 193.805 102.231C193.778 102.147 193.733 102.07 193.673 102.005C193.614 101.94 193.541 101.888 193.46 101.853C193.379 101.818 193.292 101.801 193.203 101.803H157.124C156.934 101.802 156.75 101.872 156.608 101.999C156.466 102.127 156.377 102.302 156.358 102.492C156.347 102.578 156.355 102.665 156.38 102.748C156.406 102.831 156.449 102.907 156.506 102.972C156.563 103.037 156.633 103.089 156.712 103.125C156.791 103.161 156.877 103.18 156.963 103.181Z" fill="#E6E6E6"/>
<path d="M156.611 107.198H197.837C198.028 107.199 198.213 107.128 198.355 106.999C198.497 106.87 198.585 106.692 198.603 106.502C198.614 106.414 198.606 106.325 198.579 106.24C198.552 106.156 198.507 106.078 198.448 106.012C198.388 105.947 198.315 105.895 198.233 105.861C198.151 105.826 198.063 105.81 197.975 105.813H156.734C156.543 105.812 156.359 105.882 156.217 106.009C156.076 106.137 155.987 106.312 155.968 106.502C155.956 106.591 155.965 106.682 155.993 106.768C156.02 106.854 156.066 106.933 156.127 106.999C156.189 107.066 156.264 107.118 156.347 107.152C156.431 107.186 156.521 107.202 156.611 107.198Z" fill="#E6E6E6"/>
<path d="M156.259 111.21H197.484C197.675 111.211 197.859 111.141 198.001 111.013C198.142 110.886 198.231 110.71 198.25 110.521C198.261 110.433 198.253 110.343 198.226 110.258C198.2 110.173 198.155 110.095 198.096 110.029C198.036 109.963 197.963 109.911 197.881 109.875C197.8 109.84 197.711 109.823 197.622 109.824H156.358C156.167 109.824 155.982 109.895 155.84 110.024C155.698 110.153 155.61 110.33 155.592 110.521C155.582 110.612 155.592 110.704 155.621 110.791C155.651 110.878 155.699 110.957 155.763 111.023C155.826 111.088 155.904 111.139 155.99 111.172C156.075 111.204 156.167 111.217 156.259 111.21Z" fill="#E6E6E6"/>
<path d="M171.331 54.1573H193.885C194.076 54.1583 194.26 54.0882 194.401 53.9608C194.543 53.8335 194.632 53.6579 194.651 53.4685C194.662 53.3806 194.654 53.2913 194.627 53.2068C194.601 53.1224 194.556 53.0447 194.496 52.9792C194.436 52.9137 194.363 52.862 194.281 52.8275C194.2 52.7931 194.112 52.7767 194.023 52.7796H171.453C171.263 52.7787 171.079 52.8487 170.937 52.9761C170.796 53.1035 170.707 53.279 170.688 53.4685C170.676 53.5577 170.685 53.6483 170.712 53.734C170.74 53.8196 170.786 53.8981 170.847 53.9638C170.909 54.0296 170.984 54.081 171.068 54.1145C171.151 54.1479 171.241 54.1625 171.331 54.1573Z" fill="#E6E6E6"/>
<path d="M174.616 58.7508H189.818C190.009 58.7518 190.193 58.6817 190.334 58.5544C190.476 58.427 190.565 58.2514 190.584 58.062C190.593 57.9739 190.583 57.885 190.554 57.8011C190.526 57.7172 190.481 57.6402 190.421 57.5752C190.361 57.5101 190.288 57.4585 190.206 57.4237C190.125 57.3889 190.037 57.3716 189.948 57.3731H174.739C174.548 57.3722 174.364 57.4422 174.222 57.5696C174.081 57.697 173.992 57.8725 173.973 58.062C173.964 58.1507 173.974 58.2403 174.003 58.3247C174.031 58.4091 174.078 58.4865 174.139 58.5517C174.199 58.6169 174.274 58.6683 174.356 58.7027C174.438 58.737 174.527 58.7534 174.616 58.7508Z" fill="#E6E6E6"/>
<path opacity="0.5" d="M158.265 80.4169H200.877L202.301 64.0762H159.697L158.265 80.4169Z" fill="#F0F0F0"/>
<path d="M317.08 174.406C316.881 176.702 310.003 178.011 301.763 177.291C293.522 176.572 286.943 174.1 287.15 171.788L288.031 161.678L317.953 164.295L317.08 174.406Z" fill="#EBEBEB"/>
<path opacity="0.6" d="M287.755 164.502C288.896 166.599 294.97 168.643 302.429 169.301C309.888 169.959 316.214 168.995 317.746 167.127L317.991 164.295L288.023 161.678L287.755 164.502Z" fill="#E0E0E0"/>
<path d="M302.352 168.275L278.251 158.486C278.141 158.442 278.047 158.365 277.983 158.266C277.919 158.166 277.887 158.049 277.893 157.931C277.899 157.813 277.942 157.699 278.016 157.606C278.09 157.514 278.191 157.447 278.305 157.414L303.915 150.074C304.043 150.025 304.185 150.025 304.313 150.074L328.261 161.754C328.367 161.805 328.455 161.889 328.511 161.993C328.568 162.096 328.591 162.215 328.576 162.332C328.562 162.45 328.511 162.559 328.431 162.646C328.351 162.734 328.246 162.793 328.131 162.818L302.689 168.275C302.579 168.309 302.462 168.309 302.352 168.275Z" fill="#EBEBEB"/>
<path d="M100.735 213.891H68.3774V218.866H100.735V213.891Z" fill="#F0F0F0"/>
<path d="M69.45 216.762H99.6857C100.35 216.762 100.987 217.025 101.457 217.495C101.926 217.964 102.19 218.601 102.19 219.264V268.042H66.9609V219.264C66.9599 218.936 67.024 218.61 67.1495 218.306C67.275 218.001 67.4594 217.725 67.6922 217.493C67.9249 217.26 68.2014 217.076 68.5057 216.95C68.81 216.825 69.1361 216.761 69.4653 216.762H69.45Z" fill="#E6E6E6"/>
<path d="M99.4097 207.768H69.71C68.1831 207.768 66.9453 209.005 66.9453 210.531V212.658C66.9453 214.184 68.1831 215.421 69.71 215.421H99.4097C100.937 215.421 102.174 214.184 102.174 212.658V210.531C102.174 209.005 100.937 207.768 99.4097 207.768Z" fill="#E6E6E6"/>
<path d="M106.731 268.042H90.2656V265.746L106.731 264.215V268.042Z" fill="#F5F5F5"/>
<path d="M235.823 196.907L225.101 173.111H199.966L203.795 195.376C203.877 195.897 203.752 196.43 203.445 196.859C203.139 197.288 202.676 197.58 202.156 197.672H201.834H190.821C190.539 197.672 190.268 197.784 190.069 197.984C189.869 198.183 189.757 198.454 189.757 198.736V199.915C189.757 200.197 189.869 200.468 190.069 200.667C190.268 200.867 190.539 200.979 190.821 200.979H235.034C235.341 200.979 235.635 200.857 235.852 200.64C236.068 200.423 236.19 200.129 236.19 199.823V198.598C236.187 198.015 236.061 197.439 235.823 196.907ZM224.197 193.968H212.135C211.755 193.968 211.387 193.833 211.097 193.588C210.807 193.343 210.613 193.003 210.55 192.628L208.727 182.12C208.691 181.911 208.696 181.697 208.743 181.491C208.789 181.284 208.876 181.089 208.999 180.916C209.121 180.743 209.277 180.596 209.456 180.484C209.635 180.371 209.835 180.295 210.044 180.26H210.32H219.441C219.751 180.259 220.055 180.347 220.315 180.514C220.576 180.681 220.783 180.92 220.912 181.201L225.668 191.71C225.778 191.957 225.825 192.227 225.805 192.497C225.785 192.767 225.698 193.027 225.553 193.255C225.407 193.482 225.206 193.67 224.97 193.802C224.733 193.933 224.468 194.003 224.197 194.006V193.968Z" fill="#263238"/>
<path opacity="0.8" d="M235.823 196.907L225.101 173.111H199.966L203.795 195.376C203.877 195.897 203.752 196.43 203.445 196.859C203.139 197.288 202.676 197.58 202.156 197.672H201.834H190.821C190.539 197.672 190.268 197.784 190.069 197.984C189.869 198.183 189.757 198.454 189.757 198.736V199.915C189.757 200.197 189.869 200.468 190.069 200.667C190.268 200.867 190.539 200.979 190.821 200.979H235.034C235.341 200.979 235.635 200.857 235.852 200.64C236.068 200.423 236.19 200.129 236.19 199.823V198.598C236.187 198.015 236.061 197.439 235.823 196.907ZM224.197 193.968H212.135C211.755 193.968 211.387 193.833 211.097 193.588C210.807 193.343 210.613 193.003 210.55 192.628L208.727 182.12C208.691 181.911 208.696 181.697 208.743 181.491C208.789 181.284 208.876 181.089 208.999 180.916C209.121 180.743 209.277 180.596 209.456 180.484C209.635 180.371 209.835 180.295 210.044 180.26H210.32H219.441C219.751 180.259 220.055 180.347 220.315 180.514C220.576 180.681 220.783 180.92 220.912 181.201L225.668 191.71C225.778 191.957 225.825 192.227 225.805 192.497C225.785 192.767 225.698 193.027 225.553 193.255C225.407 193.482 225.206 193.67 224.97 193.802C224.733 193.933 224.468 194.003 224.197 194.006V193.968Z" fill="white"/>
<path opacity="0.2" d="M224.197 193.968H212.135C211.755 193.968 211.387 193.833 211.097 193.588C210.807 193.343 210.613 193.003 210.55 192.628L208.727 182.12C208.691 181.911 208.696 181.697 208.743 181.491C208.789 181.284 208.876 181.089 208.999 180.916C209.121 180.743 209.276 180.596 209.456 180.484C209.635 180.371 209.835 180.295 210.044 180.26H210.32H219.441C219.751 180.258 220.054 180.347 220.315 180.514C220.576 180.681 220.783 180.919 220.911 181.201L225.667 191.71C225.778 191.957 225.825 192.227 225.805 192.497C225.785 192.766 225.698 193.027 225.552 193.255C225.407 193.482 225.206 193.67 224.97 193.801C224.733 193.933 224.468 194.003 224.197 194.006V193.968Z" fill="white"/>
<path d="M211.737 180.213H210.32C210.108 180.212 209.898 180.253 209.702 180.333C209.506 180.413 209.328 180.532 209.178 180.681C209.028 180.83 208.908 181.008 208.827 181.203C208.746 181.399 208.704 181.609 208.704 181.82C208.696 181.912 208.696 182.004 208.704 182.096L210.527 192.604C210.589 192.979 210.783 193.319 211.073 193.563C211.364 193.807 211.732 193.939 212.112 193.936H213.536C213.157 193.939 212.788 193.807 212.498 193.563C212.207 193.319 212.013 192.979 211.951 192.604L210.128 182.096C210.091 181.887 210.096 181.673 210.142 181.466C210.188 181.259 210.275 181.064 210.398 180.89C210.52 180.717 210.676 180.57 210.856 180.458C211.036 180.346 211.236 180.27 211.446 180.236C211.542 180.219 211.639 180.212 211.737 180.213Z" fill="#263238"/>
<path d="M237.247 196.907L226.525 173.127H225.108L235.83 196.907C236.083 197.462 236.213 198.065 236.213 198.675V199.907C236.211 200.213 236.089 200.506 235.872 200.722C235.656 200.939 235.363 201.061 235.057 201.063H236.481C236.787 201.061 237.08 200.939 237.297 200.722C237.513 200.506 237.636 200.213 237.638 199.907V198.675C237.635 198.065 237.502 197.462 237.247 196.907Z" fill="#263238"/>
<path opacity="0.2" d="M225.07 173.111H199.958L200.946 178.79H227.643L225.07 173.111Z" fill="black"/>
<path d="M261.096 175.606H153.961C153.027 175.621 152.124 175.265 151.452 174.617C150.779 173.969 150.39 173.081 150.369 172.147C150.358 171.991 150.358 171.835 150.369 171.68L157.14 94.3082C157.245 93.2467 157.737 92.2609 158.522 91.5383C159.307 90.8157 160.33 90.4069 161.398 90.3895H268.555C269.019 90.3794 269.48 90.461 269.912 90.6296C270.344 90.7983 270.738 91.0507 271.072 91.3722C271.406 91.6938 271.672 92.0781 271.857 92.5032C272.042 92.9283 272.14 93.3857 272.147 93.849C272.159 94.0019 272.159 94.1554 272.147 94.3082L265.369 171.688C265.262 172.751 264.768 173.738 263.98 174.461C263.192 175.183 262.165 175.591 261.096 175.606Z" fill="#263238"/>
<path d="M151.12 163.322L150.354 171.687C150.301 172.147 150.339 172.613 150.467 173.059C150.594 173.504 150.809 173.919 151.098 174.282C151.387 174.644 151.744 174.945 152.15 175.168C152.556 175.392 153.003 175.533 153.463 175.583C153.616 175.598 153.77 175.598 153.923 175.583H261.065C262.132 175.566 263.156 175.157 263.941 174.434C264.726 173.712 265.218 172.726 265.323 171.664L266.089 163.299L151.12 163.322Z" fill="#407BFF"/>
<path opacity="0.7" d="M151.12 163.322L150.354 171.687C150.301 172.147 150.339 172.613 150.467 173.059C150.594 173.504 150.809 173.919 151.098 174.282C151.387 174.644 151.744 174.945 152.15 175.168C152.556 175.392 153.003 175.533 153.463 175.583C153.616 175.598 153.77 175.598 153.923 175.583H261.065C262.132 175.566 263.156 175.157 263.941 174.434C264.726 173.712 265.218 172.726 265.323 171.664L266.089 163.299L151.12 163.322Z" fill="white"/>
<path d="M262.306 160.957H155.309C155.058 160.962 154.808 160.918 154.575 160.826C154.341 160.735 154.127 160.598 153.947 160.423C153.766 160.249 153.621 160.041 153.521 159.811C153.421 159.581 153.368 159.333 153.364 159.082C153.356 159.001 153.356 158.919 153.364 158.837L158.962 94.89C159.02 94.3172 159.286 93.7853 159.709 93.3948C160.132 93.0042 160.684 92.782 161.26 92.7699H268.279C268.531 92.7648 268.78 92.8094 269.014 92.901C269.248 92.9926 269.461 93.1294 269.642 93.3036C269.823 93.4779 269.967 93.6861 270.067 93.9163C270.167 94.1465 270.221 94.3942 270.225 94.6451C270.225 94.7216 270.225 94.8058 270.225 94.89L264.626 158.837C264.566 159.413 264.297 159.947 263.869 160.338C263.442 160.729 262.885 160.949 262.306 160.957Z" fill="#407BFF"/>
<path d="M262.306 160.957H155.309C155.058 160.962 154.808 160.918 154.575 160.826C154.341 160.735 154.127 160.598 153.947 160.423C153.766 160.249 153.621 160.041 153.521 159.811C153.421 159.581 153.368 159.333 153.364 159.082C153.356 159.001 153.356 158.919 153.364 158.837L158.962 94.89C159.02 94.3172 159.286 93.7853 159.709 93.3948C160.132 93.0042 160.684 92.782 161.26 92.7699H268.279C268.531 92.7648 268.78 92.8094 269.014 92.901C269.248 92.9926 269.461 93.1294 269.642 93.3036C269.823 93.4779 269.967 93.6861 270.067 93.9163C270.167 94.1465 270.221 94.3942 270.225 94.6451C270.225 94.7216 270.225 94.8058 270.225 94.89L264.626 158.837C264.566 159.413 264.297 159.947 263.869 160.338C263.442 160.729 262.885 160.949 262.306 160.957Z" fill="#F47E20"/>
<path d="M270.929 90.4051H268.555C269.018 90.395 269.479 90.4766 269.911 90.6453C270.343 90.8139 270.737 91.0663 271.071 91.3878C271.405 91.7094 271.672 92.0938 271.857 92.5189C272.041 92.9439 272.14 93.4013 272.147 93.8646C272.158 94.0175 272.158 94.171 272.147 94.3239L265.369 171.688C265.264 172.749 264.772 173.735 263.987 174.458C263.202 175.18 262.178 175.589 261.111 175.607H263.485C264.551 175.589 265.574 175.18 266.358 174.457C267.142 173.735 267.632 172.749 267.735 171.688L274.513 94.3162C274.564 93.8563 274.524 93.3909 274.395 92.9465C274.266 92.5021 274.051 92.0875 273.761 91.7264C273.472 91.3653 273.114 91.0648 272.708 90.842C272.302 90.6192 271.856 90.4786 271.396 90.4281L270.929 90.4051Z" fill="#407BFF"/>
<path opacity="0.2" d="M270.929 90.4051H268.555C269.018 90.395 269.479 90.4766 269.911 90.6453C270.343 90.8139 270.737 91.0663 271.071 91.3878C271.405 91.7094 271.672 92.0938 271.857 92.5189C272.041 92.9439 272.14 93.4013 272.147 93.8646C272.158 94.0175 272.158 94.171 272.147 94.3239L265.369 171.688C265.264 172.749 264.772 173.735 263.987 174.458C263.202 175.18 262.178 175.589 261.111 175.607H263.485C264.551 175.589 265.574 175.18 266.358 174.457C267.142 173.735 267.632 172.749 267.735 171.688L274.513 94.3162C274.564 93.8563 274.524 93.3909 274.395 92.9465C274.266 92.5021 274.051 92.0875 273.761 91.7264C273.472 91.3653 273.114 91.0648 272.708 90.842C272.302 90.6192 271.856 90.4786 271.396 90.4281L270.929 90.4051Z" fill="white"/>
<path d="M181.8 160.482H230.891L236.527 96.0762H187.444L181.8 160.482Z" fill="#407BFF"/>
<path opacity="0.7" d="M181.8 160.482H230.891L236.527 96.0762H187.444L181.8 160.482Z" fill="white"/>
<path d="M199.521 104.38H224.251C224.409 104.377 224.561 104.317 224.678 104.21C224.796 104.103 224.869 103.956 224.886 103.799C224.893 103.726 224.884 103.652 224.86 103.582C224.836 103.513 224.798 103.449 224.749 103.395C224.699 103.341 224.639 103.298 224.571 103.269C224.504 103.239 224.431 103.224 224.358 103.225H199.621C199.463 103.227 199.312 103.287 199.195 103.392C199.078 103.498 199.004 103.642 198.985 103.799C198.978 103.873 198.986 103.948 199.009 104.019C199.033 104.09 199.071 104.155 199.122 104.21C199.173 104.265 199.235 104.309 199.303 104.338C199.372 104.367 199.446 104.382 199.521 104.38Z" fill="#263238"/>
<path d="M191.204 135.89H221.494C221.652 135.887 221.805 135.827 221.922 135.72C222.039 135.612 222.113 135.466 222.129 135.308C222.136 135.235 222.127 135.16 222.103 135.09C222.078 135.02 222.04 134.956 221.989 134.902C221.939 134.848 221.877 134.805 221.809 134.776C221.741 134.747 221.667 134.733 221.593 134.734H191.304C191.147 134.736 190.996 134.795 190.88 134.901C190.764 135.007 190.691 135.152 190.676 135.308C190.667 135.382 190.674 135.457 190.697 135.528C190.72 135.599 190.757 135.665 190.808 135.72C190.858 135.775 190.919 135.819 190.987 135.848C191.056 135.877 191.13 135.892 191.204 135.89Z" fill="#263238"/>
<path d="M190.906 139.259H225.499C225.657 139.258 225.81 139.198 225.926 139.09C226.042 138.982 226.114 138.835 226.127 138.678C226.135 138.604 226.127 138.53 226.103 138.46C226.08 138.39 226.042 138.326 225.992 138.272C225.942 138.217 225.881 138.174 225.814 138.145C225.746 138.116 225.672 138.102 225.599 138.104H191.013C190.855 138.106 190.704 138.166 190.587 138.271C190.47 138.377 190.396 138.521 190.377 138.678C190.37 138.751 190.378 138.826 190.401 138.896C190.424 138.967 190.462 139.031 190.512 139.086C190.562 139.141 190.622 139.185 190.69 139.215C190.758 139.245 190.832 139.26 190.906 139.259Z" fill="#263238"/>
<path d="M190.615 142.626H225.208C225.365 142.622 225.516 142.56 225.631 142.453C225.747 142.346 225.819 142.201 225.836 142.045C225.845 141.971 225.838 141.896 225.815 141.825C225.792 141.754 225.755 141.689 225.704 141.633C225.654 141.578 225.593 141.535 225.525 141.505C225.456 141.476 225.382 141.461 225.308 141.463H190.714C190.556 141.466 190.405 141.527 190.289 141.634C190.173 141.742 190.101 141.888 190.086 142.045C190.077 142.119 190.085 142.194 190.107 142.265C190.13 142.336 190.168 142.401 190.218 142.456C190.268 142.511 190.329 142.555 190.398 142.584C190.466 142.614 190.54 142.628 190.615 142.626Z" fill="#263238"/>
<path d="M190.316 146.001H224.909C225.068 146 225.22 145.94 225.336 145.832C225.452 145.724 225.524 145.577 225.537 145.42C225.546 145.346 225.539 145.271 225.516 145.2C225.493 145.129 225.456 145.064 225.406 145.009C225.356 144.953 225.294 144.91 225.226 144.88C225.157 144.851 225.083 144.836 225.009 144.838H190.423C190.264 144.841 190.112 144.902 189.995 145.009C189.878 145.116 189.804 145.262 189.787 145.42C189.78 145.493 189.788 145.568 189.811 145.638C189.834 145.709 189.872 145.773 189.922 145.828C189.972 145.883 190.033 145.927 190.1 145.957C190.168 145.987 190.242 146.002 190.316 146.001Z" fill="#263238"/>
<path d="M190.056 149.363H220.345C220.504 149.36 220.656 149.299 220.773 149.192C220.89 149.085 220.964 148.939 220.981 148.781C220.988 148.707 220.98 148.633 220.957 148.562C220.934 148.492 220.896 148.427 220.846 148.372C220.796 148.317 220.735 148.274 220.668 148.244C220.6 148.214 220.526 148.199 220.452 148.199H190.124C189.967 148.202 189.815 148.263 189.7 148.37C189.584 148.478 189.512 148.624 189.496 148.781C189.487 148.858 189.495 148.935 189.519 149.009C189.544 149.082 189.584 149.149 189.638 149.204C189.691 149.26 189.757 149.303 189.829 149.331C189.901 149.358 189.979 149.369 190.056 149.363Z" fill="#263238"/>
<path d="M189.726 152.722H224.319C224.477 152.721 224.63 152.662 224.747 152.556C224.864 152.45 224.938 152.305 224.955 152.148C224.963 152.074 224.954 151.999 224.931 151.928C224.907 151.857 224.869 151.792 224.818 151.737C224.767 151.682 224.706 151.638 224.637 151.609C224.568 151.579 224.494 151.565 224.419 151.567H189.833C189.675 151.569 189.522 151.63 189.405 151.737C189.288 151.844 189.214 151.99 189.198 152.148C189.19 152.222 189.198 152.296 189.221 152.366C189.245 152.436 189.282 152.5 189.332 152.554C189.382 152.609 189.443 152.652 189.511 152.681C189.579 152.709 189.652 152.724 189.726 152.722Z" fill="#263238"/>
<path d="M189.435 156.089H224.028C224.185 156.087 224.335 156.027 224.451 155.921C224.567 155.815 224.64 155.671 224.656 155.515C224.665 155.441 224.658 155.366 224.635 155.296C224.613 155.225 224.575 155.159 224.525 155.104C224.475 155.049 224.413 155.005 224.345 154.976C224.276 154.946 224.203 154.932 224.128 154.934H189.535C189.377 154.937 189.225 154.998 189.11 155.105C188.994 155.212 188.922 155.358 188.907 155.515C188.899 155.589 188.907 155.663 188.93 155.733C188.954 155.803 188.991 155.867 189.041 155.921C189.091 155.976 189.152 156.019 189.22 156.048C189.288 156.077 189.361 156.091 189.435 156.089Z" fill="#263238"/>
<path d="M202.079 108.23H221.019C221.177 108.229 221.329 108.168 221.446 108.061C221.562 107.953 221.634 107.806 221.647 107.648C221.656 107.574 221.648 107.499 221.626 107.428C221.603 107.357 221.565 107.292 221.515 107.237C221.465 107.182 221.404 107.138 221.335 107.109C221.267 107.079 221.193 107.065 221.118 107.067H202.179C202.022 107.071 201.871 107.133 201.756 107.24C201.64 107.347 201.568 107.492 201.551 107.648C201.542 107.722 201.549 107.797 201.572 107.868C201.595 107.939 201.632 108.004 201.683 108.059C201.733 108.115 201.794 108.158 201.862 108.188C201.931 108.217 202.005 108.232 202.079 108.23Z" fill="#263238"/>
<path d="M204.836 112.072H217.626C217.784 112.069 217.935 112.01 218.052 111.904C218.169 111.798 218.243 111.654 218.262 111.498C218.269 111.423 218.261 111.348 218.237 111.277C218.214 111.206 218.175 111.141 218.125 111.086C218.074 111.031 218.012 110.988 217.943 110.958C217.875 110.929 217.8 110.915 217.726 110.916H204.936C204.778 110.917 204.625 110.978 204.509 111.085C204.393 111.193 204.321 111.34 204.308 111.498C204.3 111.571 204.308 111.645 204.332 111.715C204.355 111.785 204.393 111.85 204.443 111.904C204.493 111.958 204.554 112.001 204.621 112.03C204.689 112.059 204.763 112.073 204.836 112.072Z" fill="#263238"/>
<g opacity="0.4">
<path d="M199.521 104.38H224.251C224.409 104.377 224.561 104.317 224.678 104.21C224.796 104.103 224.869 103.956 224.886 103.799C224.893 103.726 224.884 103.652 224.86 103.582C224.836 103.513 224.798 103.449 224.749 103.395C224.699 103.341 224.639 103.298 224.571 103.269C224.504 103.239 224.431 103.224 224.358 103.225H199.621C199.463 103.227 199.312 103.287 199.195 103.392C199.078 103.498 199.004 103.642 198.985 103.799C198.978 103.873 198.986 103.948 199.009 104.019C199.033 104.09 199.071 104.155 199.122 104.21C199.173 104.265 199.235 104.309 199.303 104.338C199.372 104.367 199.446 104.382 199.521 104.38Z" fill="white"/>
<path d="M191.204 135.89H221.493C221.652 135.887 221.804 135.827 221.921 135.72C222.038 135.612 222.112 135.466 222.129 135.308C222.135 135.235 222.126 135.16 222.102 135.09C222.078 135.02 222.039 134.956 221.989 134.902C221.938 134.848 221.877 134.805 221.809 134.776C221.74 134.747 221.667 134.733 221.593 134.734H191.304C191.146 134.736 190.995 134.795 190.879 134.901C190.763 135.007 190.691 135.152 190.676 135.308C190.667 135.382 190.674 135.457 190.697 135.528C190.719 135.599 190.757 135.665 190.807 135.72C190.857 135.775 190.919 135.819 190.987 135.848C191.055 135.877 191.129 135.892 191.204 135.89Z" fill="white"/>
<path d="M190.906 139.259H225.499C225.657 139.258 225.81 139.198 225.926 139.09C226.042 138.982 226.114 138.835 226.127 138.678C226.135 138.604 226.127 138.53 226.103 138.46C226.08 138.39 226.042 138.326 225.992 138.272C225.942 138.217 225.881 138.174 225.814 138.145C225.746 138.116 225.672 138.102 225.599 138.104H191.013C190.855 138.106 190.704 138.166 190.587 138.271C190.47 138.377 190.396 138.521 190.377 138.678C190.37 138.751 190.378 138.826 190.401 138.896C190.424 138.967 190.462 139.031 190.512 139.086C190.562 139.141 190.622 139.185 190.69 139.215C190.758 139.245 190.832 139.26 190.906 139.259Z" fill="white"/>
<path d="M190.615 142.626H225.208C225.365 142.622 225.516 142.56 225.631 142.453C225.747 142.346 225.819 142.201 225.836 142.045C225.845 141.971 225.838 141.896 225.815 141.825C225.792 141.754 225.755 141.689 225.704 141.633C225.654 141.578 225.593 141.535 225.525 141.505C225.456 141.476 225.382 141.461 225.308 141.463H190.714C190.556 141.466 190.405 141.527 190.289 141.634C190.173 141.742 190.101 141.888 190.086 142.045C190.077 142.119 190.085 142.194 190.107 142.265C190.13 142.336 190.168 142.401 190.218 142.456C190.268 142.511 190.329 142.555 190.398 142.584C190.466 142.614 190.54 142.628 190.615 142.626Z" fill="white"/>
<path d="M190.316 146.001H224.909C225.068 146 225.22 145.94 225.336 145.832C225.452 145.724 225.524 145.577 225.537 145.42C225.546 145.346 225.539 145.271 225.516 145.2C225.493 145.129 225.456 145.064 225.406 145.009C225.356 144.953 225.294 144.91 225.226 144.88C225.157 144.851 225.083 144.836 225.009 144.838H190.423C190.264 144.841 190.112 144.902 189.995 145.009C189.878 145.116 189.804 145.262 189.787 145.42C189.78 145.493 189.788 145.568 189.811 145.638C189.834 145.709 189.872 145.773 189.922 145.828C189.972 145.883 190.033 145.927 190.1 145.957C190.168 145.987 190.242 146.002 190.316 146.001Z" fill="white"/>
<path d="M190.056 149.361H220.345C220.504 149.358 220.656 149.297 220.773 149.19C220.89 149.083 220.964 148.937 220.981 148.779C220.988 148.705 220.98 148.631 220.957 148.56C220.934 148.49 220.896 148.425 220.846 148.37C220.796 148.316 220.735 148.272 220.668 148.242C220.6 148.212 220.526 148.197 220.452 148.197H190.124C189.967 148.2 189.815 148.261 189.7 148.369C189.584 148.476 189.512 148.622 189.496 148.779C189.487 148.856 189.495 148.933 189.519 149.007C189.544 149.08 189.584 149.147 189.638 149.202C189.691 149.258 189.757 149.301 189.829 149.329C189.901 149.356 189.979 149.367 190.056 149.361Z" fill="white"/>
<path d="M189.726 152.722H224.319C224.477 152.721 224.63 152.662 224.747 152.556C224.864 152.45 224.938 152.305 224.955 152.148C224.963 152.074 224.954 151.999 224.931 151.928C224.907 151.857 224.869 151.792 224.818 151.737C224.767 151.682 224.706 151.638 224.637 151.609C224.568 151.579 224.494 151.565 224.419 151.567H189.833C189.675 151.569 189.522 151.63 189.405 151.737C189.288 151.844 189.214 151.99 189.198 152.148C189.19 152.222 189.198 152.296 189.221 152.366C189.245 152.436 189.282 152.5 189.332 152.554C189.382 152.609 189.443 152.652 189.511 152.681C189.579 152.709 189.652 152.724 189.726 152.722Z" fill="white"/>
<path d="M189.435 156.089H224.028C224.185 156.087 224.335 156.027 224.451 155.921C224.567 155.815 224.64 155.671 224.656 155.515C224.665 155.441 224.658 155.366 224.635 155.296C224.613 155.225 224.575 155.159 224.525 155.104C224.475 155.049 224.413 155.005 224.345 154.976C224.276 154.946 224.203 154.932 224.128 154.934H189.535C189.377 154.937 189.225 154.998 189.11 155.105C188.994 155.212 188.922 155.358 188.907 155.515C188.899 155.589 188.907 155.663 188.93 155.733C188.954 155.803 188.991 155.867 189.041 155.921C189.091 155.976 189.152 156.019 189.22 156.048C189.288 156.077 189.361 156.091 189.435 156.089Z" fill="white"/>
<path d="M202.079 108.23H221.019C221.177 108.229 221.329 108.168 221.446 108.061C221.562 107.953 221.634 107.806 221.647 107.648C221.656 107.574 221.648 107.499 221.626 107.428C221.603 107.357 221.565 107.292 221.515 107.237C221.465 107.182 221.404 107.138 221.335 107.109C221.267 107.079 221.193 107.065 221.118 107.067H202.179C202.022 107.071 201.871 107.133 201.756 107.24C201.64 107.347 201.568 107.492 201.551 107.648C201.542 107.722 201.549 107.797 201.572 107.868C201.595 107.939 201.632 108.004 201.683 108.059C201.733 108.115 201.794 108.158 201.862 108.188C201.931 108.217 202.005 108.232 202.079 108.23Z" fill="white"/>
<path d="M204.836 112.072H217.626C217.784 112.069 217.935 112.01 218.052 111.904C218.169 111.798 218.243 111.654 218.262 111.498C218.269 111.423 218.261 111.348 218.237 111.277C218.214 111.206 218.175 111.141 218.125 111.086C218.074 111.031 218.012 110.988 217.943 110.958C217.875 110.929 217.8 110.915 217.726 110.916H204.936C204.778 110.917 204.625 110.978 204.509 111.085C204.393 111.193 204.321 111.34 204.308 111.498C204.3 111.571 204.308 111.645 204.332 111.715C204.355 111.785 204.393 111.85 204.443 111.904C204.493 111.958 204.554 112.001 204.621 112.03C204.689 112.059 204.763 112.073 204.836 112.072Z" fill="white"/>
</g>
<path opacity="0.5" d="M191.12 130.259H226.87L228.065 116.551H192.315L191.12 130.259Z" fill="white"/>
<path d="M257.068 261.48H117.515V290.565H257.114C255.858 280.912 255.842 271.138 257.068 261.48Z" fill="#407BFF"/>
<path opacity="0.7" d="M257.068 261.48H117.515V290.565H257.114C255.858 280.912 255.842 271.138 257.068 261.48Z" fill="white"/>
<path d="M142.941 292.097H99.0804L98.6362 291.646C96.5579 289.57 94.9092 287.106 93.7844 284.393C92.6595 281.68 92.0806 278.773 92.0806 275.837C92.0806 272.9 92.6595 269.993 93.7844 267.28C94.9092 264.568 96.5579 262.103 98.6362 260.028L99.0804 259.584H142.941L140.329 262.194C136.711 265.813 134.678 270.72 134.678 275.837C134.678 280.953 136.711 285.86 140.329 289.48L142.941 292.097Z" fill="#407BFF"/>
<g opacity="0.3">
<path d="M142.941 292.097H99.0804L98.6362 291.646C96.5579 289.57 94.9092 287.106 93.7844 284.393C92.6595 281.68 92.0806 278.773 92.0806 275.837C92.0806 272.9 92.6595 269.993 93.7844 267.28C94.9092 264.568 96.5579 262.103 98.6362 260.028L99.0804 259.584H142.941L140.329 262.194C136.711 265.813 134.678 270.72 134.678 275.837C134.678 280.953 136.711 285.86 140.329 289.48L142.941 292.097Z" fill="black"/>
</g>
<path d="M258.499 292.095H140.038L139.908 291.965C135.763 287.912 133.302 282.446 133.015 276.658C132.902 273.585 133.428 270.522 134.559 267.662C135.69 264.802 137.401 262.207 139.586 260.042L140.038 259.598H258.499C258.906 259.598 259.295 259.759 259.582 260.046C259.87 260.333 260.031 260.722 260.031 261.128C260.031 261.534 259.87 261.924 259.582 262.211C259.295 262.498 258.906 262.659 258.499 262.659H141.324C137.974 266.237 136.11 270.954 136.11 275.854C136.11 280.754 137.974 285.471 141.324 289.049H258.499C258.906 289.049 259.295 289.211 259.582 289.498C259.87 289.785 260.031 290.174 260.031 290.58C260.027 290.983 259.864 291.369 259.577 291.653C259.29 291.936 258.903 292.095 258.499 292.095Z" fill="#407BFF"/>
<path d="M246.116 272.288H239.415C239.11 272.288 238.818 272.167 238.603 271.952C238.387 271.737 238.266 271.445 238.266 271.14C238.266 270.836 238.387 270.544 238.603 270.328C238.818 270.113 239.11 269.992 239.415 269.992H246.116C246.421 269.992 246.713 270.113 246.928 270.328C247.144 270.544 247.265 270.836 247.265 271.14C247.265 271.445 247.144 271.737 246.928 271.952C246.713 272.167 246.421 272.288 246.116 272.288Z" fill="white"/>
<path d="M230.646 272.288H168.382C168.077 272.288 167.785 272.167 167.57 271.952C167.354 271.737 167.233 271.445 167.233 271.14C167.233 270.836 167.354 270.544 167.57 270.328C167.785 270.113 168.077 269.992 168.382 269.992H230.646C230.95 269.992 231.243 270.113 231.458 270.328C231.673 270.544 231.795 270.836 231.795 271.14C231.795 271.445 231.673 271.737 231.458 271.952C231.243 272.167 230.95 272.288 230.646 272.288Z" fill="white"/>
<path d="M159.958 272.288H146.173C145.868 272.288 145.576 272.167 145.36 271.952C145.145 271.737 145.024 271.445 145.024 271.14C145.024 270.836 145.145 270.544 145.36 270.328C145.576 270.113 145.868 269.992 146.173 269.992H159.958C160.263 269.992 160.555 270.113 160.77 270.328C160.986 270.544 161.107 270.836 161.107 271.14C161.107 271.445 160.986 271.737 160.77 271.952C160.555 272.167 160.263 272.288 159.958 272.288Z" fill="white"/>
<path d="M246.116 282.017H187.145C186.841 282.017 186.548 281.896 186.333 281.681C186.118 281.465 185.997 281.173 185.997 280.869C185.997 280.564 186.118 280.272 186.333 280.057C186.548 279.842 186.841 279.721 187.145 279.721H246.116C246.42 279.721 246.713 279.842 246.928 280.057C247.144 280.272 247.265 280.564 247.265 280.869C247.265 281.173 247.144 281.465 246.928 281.681C246.713 281.896 246.42 282.017 246.116 282.017Z" fill="white"/>
<path d="M178.568 282.017H146.173C145.868 282.017 145.576 281.896 145.36 281.681C145.145 281.465 145.024 281.173 145.024 280.869C145.024 280.564 145.145 280.272 145.36 280.057C145.576 279.842 145.868 279.721 146.173 279.721H178.568C178.873 279.721 179.165 279.842 179.38 280.057C179.596 280.272 179.717 280.564 179.717 280.869C179.717 281.173 179.596 281.465 179.38 281.681C179.165 281.896 178.873 282.017 178.568 282.017Z" fill="white"/>
<path d="M253.368 202.77H127.769V228.945H253.414C252.281 220.258 252.266 211.461 253.368 202.77Z" fill="#407BFF"/>
<path opacity="0.8" d="M253.368 202.77H127.769V228.945H253.414C252.281 220.258 252.266 211.461 253.368 202.77Z" fill="white"/>
<path d="M150.653 230.323H111.173L110.767 229.917C108.898 228.049 107.415 225.832 106.403 223.391C105.391 220.95 104.871 218.334 104.871 215.693C104.871 213.051 105.391 210.435 106.403 207.994C107.415 205.554 108.898 203.336 110.767 201.468L111.173 201.062H150.645L148.302 203.405C145.046 206.663 143.218 211.08 143.218 215.685C143.218 220.29 145.046 224.707 148.302 227.965L150.653 230.323Z" fill="#1F61F4"/>
<path d="M254.655 230.323H148.041L147.934 230.193C144.212 226.543 142.007 221.622 141.761 216.416C141.653 213.653 142.12 210.898 143.133 208.325C144.145 205.752 145.681 203.417 147.643 201.468L148.049 201.062H254.655C255.021 201.062 255.371 201.208 255.63 201.466C255.889 201.724 256.034 202.075 256.034 202.44C256.034 202.806 255.889 203.156 255.63 203.414C255.371 203.673 255.021 203.818 254.655 203.818H149.19C146.181 207.036 144.506 211.276 144.506 215.681C144.506 220.086 146.181 224.326 149.19 227.544H254.655C255.021 227.544 255.371 227.69 255.63 227.948C255.889 228.206 256.034 228.557 256.034 228.922C256.037 229.105 256.003 229.287 255.935 229.456C255.868 229.626 255.767 229.781 255.638 229.911C255.51 230.042 255.357 230.145 255.188 230.216C255.019 230.286 254.838 230.323 254.655 230.323Z" fill="#407BFF"/>
<g opacity="0.4">
<path d="M254.655 230.323H148.041L147.934 230.193C144.212 226.543 142.007 221.622 141.761 216.416C141.653 213.653 142.12 210.898 143.133 208.325C144.145 205.752 145.681 203.417 147.643 201.468L148.049 201.062H254.655C255.021 201.062 255.371 201.208 255.63 201.466C255.889 201.724 256.034 202.075 256.034 202.44C256.034 202.806 255.889 203.156 255.63 203.414C255.371 203.673 255.021 203.818 254.655 203.818H149.19C146.181 207.036 144.506 211.276 144.506 215.681C144.506 220.086 146.181 224.326 149.19 227.544H254.655C255.021 227.544 255.371 227.69 255.63 227.948C255.889 228.206 256.034 228.557 256.034 228.922C256.037 229.105 256.003 229.287 255.935 229.456C255.868 229.626 255.767 229.781 255.638 229.911C255.51 230.042 255.357 230.145 255.188 230.216C255.019 230.286 254.838 230.323 254.655 230.323Z" fill="white"/>
</g>
<path d="M243.512 212.527H237.477C237.203 212.527 236.94 212.419 236.746 212.225C236.552 212.031 236.443 211.768 236.443 211.494C236.443 211.359 236.47 211.224 236.522 211.099C236.574 210.973 236.65 210.86 236.746 210.764C236.842 210.668 236.956 210.592 237.082 210.54C237.207 210.488 237.341 210.461 237.477 210.461H243.512C243.648 210.461 243.782 210.488 243.908 210.54C244.033 210.592 244.147 210.668 244.243 210.764C244.339 210.86 244.415 210.973 244.467 211.099C244.519 211.224 244.546 211.359 244.546 211.494C244.546 211.768 244.437 212.031 244.243 212.225C244.049 212.419 243.786 212.527 243.512 212.527Z" fill="white"/>
<path d="M229.55 212.527H173.551C173.415 212.529 173.281 212.502 173.155 212.451C173.029 212.399 172.914 212.323 172.818 212.227C172.722 212.131 172.646 212.017 172.594 211.891C172.543 211.765 172.517 211.63 172.518 211.494C172.517 211.358 172.543 211.223 172.594 211.098C172.646 210.972 172.722 210.857 172.818 210.761C172.914 210.665 173.029 210.589 173.155 210.538C173.281 210.486 173.415 210.46 173.551 210.461H229.55C229.686 210.46 229.821 210.486 229.947 210.538C230.073 210.589 230.188 210.665 230.284 210.761C230.38 210.857 230.456 210.972 230.508 211.098C230.559 211.223 230.585 211.358 230.584 211.494C230.585 211.63 230.559 211.765 230.508 211.891C230.456 212.017 230.38 212.131 230.284 212.227C230.188 212.323 230.073 212.399 229.947 212.451C229.821 212.502 229.686 212.529 229.55 212.527Z" fill="white"/>
<path d="M165.969 212.527H153.563C153.427 212.529 153.292 212.502 153.166 212.451C153.04 212.399 152.926 212.323 152.829 212.227C152.733 212.131 152.657 212.017 152.605 211.891C152.554 211.765 152.528 211.63 152.529 211.494C152.528 211.358 152.554 211.223 152.605 211.098C152.657 210.972 152.733 210.857 152.829 210.761C152.926 210.665 153.04 210.589 153.166 210.538C153.292 210.486 153.427 210.46 153.563 210.461H165.969C166.106 210.46 166.24 210.486 166.366 210.538C166.492 210.589 166.607 210.665 166.703 210.761C166.799 210.857 166.875 210.972 166.927 211.098C166.978 211.223 167.004 211.358 167.003 211.494C167.004 211.63 166.978 211.765 166.927 211.891C166.875 212.017 166.799 212.131 166.703 212.227C166.607 212.323 166.492 212.399 166.366 212.451C166.24 212.502 166.106 212.529 165.969 212.527Z" fill="white"/>
<path d="M243.512 221.254H190.439C190.303 221.255 190.168 221.229 190.042 221.177C189.916 221.126 189.802 221.05 189.705 220.954C189.609 220.858 189.533 220.743 189.481 220.617C189.43 220.492 189.404 220.357 189.405 220.221C189.404 220.085 189.43 219.95 189.481 219.824C189.533 219.698 189.609 219.584 189.705 219.488C189.802 219.392 189.916 219.316 190.042 219.264C190.168 219.213 190.303 219.187 190.439 219.188H243.512C243.786 219.188 244.049 219.296 244.243 219.49C244.437 219.684 244.546 219.947 244.546 220.221C244.546 220.495 244.437 220.758 244.243 220.951C244.049 221.145 243.786 221.254 243.512 221.254Z" fill="white"/>
<path d="M182.68 221.253H153.578C153.443 221.256 153.308 221.232 153.182 221.183C153.056 221.133 152.94 221.06 152.843 220.966C152.745 220.872 152.667 220.76 152.614 220.635C152.56 220.511 152.531 220.378 152.529 220.242C152.528 220.106 152.554 219.971 152.605 219.846C152.657 219.72 152.733 219.606 152.829 219.509C152.926 219.413 153.04 219.337 153.166 219.286C153.292 219.234 153.427 219.208 153.563 219.209H182.665C182.801 219.208 182.936 219.234 183.062 219.286C183.188 219.337 183.302 219.413 183.398 219.509C183.495 219.606 183.571 219.72 183.622 219.846C183.674 219.971 183.7 220.106 183.699 220.242C183.695 220.51 183.586 220.766 183.396 220.955C183.205 221.144 182.949 221.251 182.68 221.253Z" fill="white"/>
<path d="M257.787 232.029H132.188V258.205H257.833C256.7 249.518 256.684 240.721 257.787 232.029Z" fill="#407BFF"/>
<path opacity="0.7" d="M257.787 232.029H132.188V258.205H257.833C256.7 249.518 256.684 240.721 257.787 232.029Z" fill="white"/>
<path d="M155.079 259.583H115.6L115.201 259.177C113.332 257.309 111.849 255.091 110.837 252.651C109.825 250.21 109.305 247.594 109.305 244.952C109.305 242.311 109.825 239.695 110.837 237.254C111.849 234.813 113.332 232.596 115.201 230.728L115.6 230.322H155.079L152.728 232.672C151.113 234.284 149.832 236.198 148.958 238.306C148.084 240.413 147.635 242.671 147.635 244.952C147.635 247.233 148.084 249.492 148.958 251.599C149.832 253.706 151.113 255.621 152.728 257.233L155.079 259.583Z" fill="#407BFF"/>
<path d="M259.082 259.583H152.46L152.345 259.468C148.623 255.818 146.418 250.897 146.173 245.691C146.067 242.929 146.536 240.175 147.548 237.602C148.56 235.03 150.095 232.694 152.054 230.744L152.46 230.338H259.082C259.447 230.34 259.796 230.486 260.054 230.744C260.313 231.002 260.458 231.351 260.46 231.716C260.458 232.08 260.313 232.43 260.054 232.688C259.796 232.945 259.447 233.091 259.082 233.093H153.617C150.602 236.309 148.925 240.55 148.925 244.957C148.925 249.363 150.602 253.604 153.617 256.82H259.082C259.263 256.82 259.442 256.855 259.609 256.925C259.777 256.994 259.929 257.095 260.057 257.223C260.185 257.351 260.286 257.503 260.355 257.67C260.425 257.837 260.46 258.017 260.46 258.198C260.46 258.564 260.315 258.915 260.057 259.174C259.799 259.434 259.448 259.581 259.082 259.583Z" fill="#407BFF"/>
<g opacity="0.3">
<path d="M259.082 259.583H152.46L152.345 259.468C148.623 255.818 146.418 250.897 146.173 245.691C146.067 242.929 146.536 240.175 147.548 237.602C148.56 235.03 150.095 232.694 152.054 230.744L152.46 230.338H259.082C259.447 230.34 259.796 230.486 260.054 230.744C260.313 231.002 260.458 231.351 260.46 231.716C260.458 232.08 260.313 232.43 260.054 232.688C259.796 232.945 259.447 233.091 259.082 233.093H153.617C150.602 236.309 148.925 240.55 148.925 244.957C148.925 249.363 150.602 253.604 153.617 256.82H259.082C259.263 256.82 259.442 256.855 259.609 256.925C259.777 256.994 259.929 257.095 260.057 257.223C260.185 257.351 260.286 257.503 260.355 257.67C260.425 257.837 260.46 258.017 260.46 258.198C260.46 258.564 260.315 258.915 260.057 259.174C259.799 259.434 259.448 259.581 259.082 259.583Z" fill="white"/>
</g>
<path d="M157.982 248.447H164.017C164.291 248.447 164.554 248.556 164.748 248.75C164.942 248.944 165.051 249.206 165.051 249.481C165.049 249.754 164.939 250.016 164.746 250.209C164.552 250.402 164.291 250.512 164.017 250.514H157.982C157.709 250.512 157.447 250.402 157.253 250.209C157.06 250.016 156.95 249.754 156.948 249.481C156.948 249.206 157.057 248.944 157.251 248.75C157.445 248.556 157.708 248.447 157.982 248.447Z" fill="white"/>
<path d="M171.943 248.447H227.942C228.078 248.446 228.213 248.472 228.339 248.524C228.465 248.575 228.579 248.651 228.675 248.748C228.772 248.844 228.848 248.958 228.899 249.084C228.951 249.21 228.977 249.345 228.976 249.481C228.976 249.616 228.949 249.751 228.897 249.876C228.845 250.001 228.769 250.115 228.673 250.211C228.577 250.307 228.463 250.383 228.338 250.435C228.212 250.487 228.078 250.514 227.942 250.514H171.943C171.807 250.514 171.673 250.487 171.547 250.435C171.422 250.383 171.308 250.307 171.212 250.211C171.116 250.115 171.04 250.001 170.988 249.876C170.936 249.751 170.909 249.616 170.909 249.481C170.908 249.345 170.934 249.21 170.986 249.084C171.037 248.958 171.114 248.844 171.21 248.748C171.306 248.651 171.42 248.575 171.546 248.524C171.672 248.472 171.807 248.446 171.943 248.447Z" fill="white"/>
<path d="M235.524 248.447H247.931C248.067 248.446 248.202 248.472 248.328 248.524C248.454 248.576 248.568 248.652 248.664 248.748C248.761 248.844 248.837 248.958 248.888 249.084C248.94 249.21 248.966 249.345 248.965 249.481C248.965 249.616 248.938 249.751 248.886 249.876C248.834 250.001 248.758 250.115 248.662 250.211C248.566 250.307 248.452 250.383 248.327 250.435C248.201 250.487 248.067 250.514 247.931 250.514H235.524C235.388 250.515 235.252 250.489 235.125 250.438C234.998 250.386 234.883 250.31 234.786 250.214C234.688 250.118 234.611 250.004 234.557 249.878C234.504 249.752 234.476 249.617 234.475 249.481C234.475 249.344 234.502 249.208 234.555 249.082C234.608 248.955 234.686 248.841 234.783 248.745C234.881 248.648 234.997 248.573 235.124 248.522C235.251 248.471 235.387 248.445 235.524 248.447Z" fill="white"/>
<path d="M157.982 239.721H211.056C211.192 239.72 211.326 239.746 211.452 239.797C211.578 239.849 211.693 239.925 211.789 240.021C211.885 240.117 211.961 240.232 212.013 240.357C212.064 240.483 212.09 240.618 212.089 240.754C212.089 240.89 212.063 241.024 212.011 241.149C211.959 241.275 211.883 241.389 211.787 241.485C211.691 241.581 211.577 241.657 211.451 241.709C211.326 241.761 211.191 241.787 211.056 241.787H157.982C157.709 241.785 157.447 241.676 157.253 241.482C157.06 241.289 156.95 241.027 156.948 240.754C156.948 240.48 157.057 240.217 157.251 240.023C157.445 239.83 157.708 239.721 157.982 239.721Z" fill="white"/>
<path d="M218.813 239.721H247.915C248.052 239.72 248.186 239.746 248.312 239.797C248.438 239.849 248.553 239.925 248.649 240.021C248.745 240.117 248.821 240.232 248.873 240.357C248.924 240.483 248.95 240.618 248.949 240.754C248.949 241.028 248.84 241.291 248.647 241.485C248.453 241.678 248.19 241.787 247.915 241.787H218.813C218.677 241.787 218.543 241.761 218.418 241.709C218.292 241.657 218.178 241.581 218.082 241.485C217.986 241.389 217.91 241.275 217.858 241.149C217.806 241.024 217.779 240.89 217.779 240.754C217.778 240.618 217.804 240.483 217.856 240.357C217.908 240.232 217.984 240.117 218.08 240.021C218.176 239.925 218.29 239.849 218.416 239.797C218.542 239.746 218.677 239.72 218.813 239.721Z" fill="white"/>
<path d="M208.662 339.02L192.351 318.521L218.158 314.562L208.662 339.02Z" stroke="#FBAA1C" stroke-width="3"/>
<path d="M234.843 1.50035L229.838 20.1809" stroke="#2FAC61" stroke-width="3" stroke-linecap="round"/>
<path d="M223 8.33867L241.68 13.3441" stroke="#2FAC61" stroke-width="3" stroke-linecap="round"/>
<path d="M340.5 140C343.806 140 346.5 142.697 346.5 146.043C346.5 149.389 343.806 152.086 340.5 152.086C337.194 152.086 334.5 149.389 334.5 146.043C334.5 142.697 337.194 140 340.5 140Z" stroke="#2FAC8E" stroke-width="3"/>
<circle cx="37.1741" cy="194.674" r="11.6741" stroke="url(#paint0_linear_8087_24707)" stroke-width="3"/>
<defs>
<linearGradient id="paint0_linear_8087_24707" x1="24.5496" y1="198.263" x2="48.9849" y2="206.936" gradientUnits="userSpaceOnUse">
<stop stop-color="#95BEFF"/>
<stop offset="1" stop-color="#0040E6"/>
</linearGradient>
</defs>
</svg>
