<svg width="592" height="449" viewBox="0 0 592 449" fill="none" xmlns="http://www.w3.org/2000/svg">
<g opacity="0.8">
<g opacity="0.5">
<g opacity="0.5">
<g opacity="0.5">
<g opacity="0.5">
<path opacity="0.5" d="M584.252 104.606C588.531 104.606 592 100.869 592 96.2583C592 91.6477 588.531 87.9102 584.252 87.9102C579.973 87.9102 576.504 91.6477 576.504 96.2583C576.504 100.869 579.973 104.606 584.252 104.606Z" fill="white" fill-opacity="0.2"/>
</g>
</g>
</g>
</g>
<g opacity="0.8">
<g opacity="0.8">
<path opacity="0.8" d="M573.062 23.2984C573.959 17.7949 570.223 12.6069 564.72 11.7108C559.216 10.8147 554.028 14.5499 553.132 20.0534C552.236 25.557 555.971 30.745 561.475 31.6411C566.978 32.5371 572.166 28.802 573.062 23.2984Z" fill="white" fill-opacity="0.2"/>
</g>
</g>
<g opacity="0.8">
<g opacity="0.8">
<path opacity="0.8" d="M108.721 33.3308C110.242 38.7514 107.076 44.3893 101.656 45.9099C96.235 47.4306 90.5972 44.2651 89.0765 38.8445C87.5558 33.4239 90.7213 27.7861 96.1419 26.2655C101.562 24.7345 107.2 27.8999 108.721 33.3308Z" fill="white" fill-opacity="0.2"/>
</g>
</g>
<g opacity="0.8">
<g opacity="0.8">
<g opacity="0.8">
<g opacity="0.8">
<path opacity="0.8" d="M512.359 337.268C514.614 336.399 517.221 337.237 518.472 339.316C520.593 342.854 517.727 347.809 512.421 346.836C507.559 344.478 508.397 338.799 512.359 337.268Z" fill="white" fill-opacity="0.2"/>
</g>
</g>
</g>
</g>
<g opacity="0.8">
<g opacity="0.8">
<path opacity="0.8" d="M540.96 323.746C543.463 328.794 541.404 334.918 536.356 337.421C531.308 339.925 525.184 337.866 522.681 332.818C520.177 327.77 522.236 321.646 527.284 319.142C532.332 316.639 538.456 318.698 540.96 323.746Z" fill="white" fill-opacity="0.2"/>
</g>
</g>
<g opacity="0.8">
<g opacity="0.8">
<path opacity="0.8" d="M544.054 12.4342C547.488 12.4342 550.271 9.65074 550.271 6.21712C550.271 2.7835 547.488 0 544.054 0C540.62 0 537.837 2.7835 537.837 6.21712C537.837 9.65074 540.62 12.4342 544.054 12.4342Z" fill="white" fill-opacity="0.2"/>
</g>
</g>
</g>
<path d="M471.308 390.38H449.744V412.722H474.957V394.015C474.957 392.012 473.318 390.38 471.308 390.38Z" fill="#CED3E6"/>
<path d="M409.242 342.501H334.393V390.38H409.242V342.501Z" fill="#CED3E6"/>
<path d="M466.475 412.722H259.982V404.428C259.982 396.671 266.297 390.38 274.081 390.38H452.367C460.151 390.38 466.466 396.671 466.466 404.428V412.722H466.475Z" fill="white"/>
<path d="M400.077 342.501H325.228V390.38H400.077V342.501Z" fill="white"/>
<path d="M325.226 357.202L400.066 351.228L400.084 342.501H325.323L325.226 357.202Z" fill="#CED3E6"/>
<path d="M532.921 144.79V332.557C532.921 338.063 528.44 342.519 522.923 342.519H203.332C197.806 342.519 193.334 338.054 193.334 332.557V144.79C193.334 139.283 197.815 134.827 203.332 134.827H522.923C528.44 134.818 532.921 139.283 532.921 144.79Z" fill="#CED3E6"/>
<path d="M532.922 144.791V318.669H502.006V134.819H522.923C528.441 134.819 532.922 139.284 532.922 144.791Z" fill="#585859"/>
<path d="M520.204 144.79V332.557C520.204 338.063 515.723 342.519 510.206 342.519H203.332C197.806 342.519 193.334 338.054 193.334 332.557V144.79C193.334 139.283 197.815 134.827 203.332 134.827H510.206C510.356 134.827 510.507 134.827 510.648 134.836C510.755 134.845 510.861 134.845 510.976 134.854H510.985C511.065 134.862 511.136 134.862 511.215 134.88C511.348 134.889 511.472 134.907 511.605 134.924C511.693 134.933 511.773 134.951 511.853 134.96C511.897 134.968 511.933 134.968 511.977 134.977C512.057 134.986 512.136 135.004 512.225 135.021C516.777 135.957 520.204 139.972 520.204 144.79Z" fill="white"/>
<path d="M512.216 135.02C512.136 135.003 512.057 134.985 511.968 134.976C511.933 134.967 511.888 134.959 511.844 134.959C511.755 134.941 511.676 134.932 511.596 134.923C511.463 134.906 511.339 134.888 511.206 134.879C511.127 134.87 511.056 134.861 510.976 134.853H510.967C510.861 134.844 510.755 134.835 510.64 134.835C510.489 134.826 510.347 134.826 510.197 134.826H203.332C197.806 134.826 193.334 139.291 193.334 144.789V318.667H520.204V144.789C520.204 139.971 516.777 135.956 512.216 135.02ZM507.239 301.292C507.239 302.792 506.026 304.001 504.52 304.001H209.018C207.512 304.001 206.299 302.792 206.299 301.292V150.445C206.299 148.945 207.512 147.736 209.018 147.736H504.52C506.026 147.736 507.239 148.945 507.239 150.445V301.292Z" fill="#39393B"/>
<path d="M507.241 150.446V301.294C507.241 302.794 506.027 304.003 504.522 304.003H209.02C207.514 304.003 206.301 302.794 206.301 301.294V150.446C206.301 148.946 207.514 147.737 209.02 147.737H504.522C506.019 147.737 507.241 148.955 507.241 150.446Z" fill="#CED3E6"/>
<path d="M507.24 150.446V164.68H206.291V150.446C206.291 148.946 207.504 147.737 209.01 147.737H504.512C506.018 147.737 507.24 148.955 507.24 150.446Z" fill="white"/>
<path d="M483.931 155.988C483.931 157.258 482.895 158.291 481.62 158.291C480.345 158.291 479.309 157.258 479.309 155.988C479.309 154.717 480.345 153.685 481.62 153.685C482.895 153.685 483.931 154.717 483.931 155.988Z" fill="#DF615C"/>
<path d="M489.103 158.291C490.38 158.291 491.415 157.26 491.415 155.988C491.415 154.716 490.38 153.685 489.103 153.685C487.827 153.685 486.792 154.716 486.792 155.988C486.792 157.26 487.827 158.291 489.103 158.291Z" fill="#5392F3"/>
<path d="M469.835 158.423H234.729C233.542 158.423 232.577 157.452 232.577 156.278V155.696C232.577 154.514 233.551 153.552 234.729 153.552H469.826C471.012 153.552 471.978 154.522 471.978 155.696V156.27C471.987 157.452 471.012 158.423 469.835 158.423Z" fill="#D2DCEC"/>
<path d="M217.157 155.987V158.246C217.157 158.564 216.812 158.767 216.537 158.608L214.58 157.479L212.623 156.349C212.348 156.19 212.348 155.793 212.623 155.635L214.58 154.505L216.537 153.376C216.812 153.217 217.157 153.42 217.157 153.737V155.987Z" fill="black"/>
<path d="M220.604 155.987V158.246C220.604 158.564 220.949 158.767 221.223 158.608L223.181 157.479L225.138 156.349C225.412 156.19 225.412 155.793 225.138 155.635L223.181 154.505L221.223 153.376C220.949 153.217 220.604 153.42 220.604 153.737V155.987Z" fill="black"/>
<path d="M494.531 157.912L494.425 157.806C494.194 157.576 494.194 157.215 494.425 156.985L497.524 153.897C497.754 153.667 498.118 153.667 498.348 153.897L498.454 154.003C498.684 154.232 498.684 154.594 498.454 154.823L495.355 157.912C495.124 158.132 494.761 158.132 494.531 157.912Z" fill="#39393B"/>
<path d="M498.348 157.912L498.454 157.806C498.684 157.576 498.684 157.215 498.454 156.985L495.355 153.897C495.124 153.667 494.761 153.667 494.531 153.897L494.425 154.003C494.194 154.232 494.194 154.594 494.425 154.823L497.524 157.912C497.754 158.132 498.126 158.132 498.348 157.912Z" fill="#39393B"/>
<path d="M466.725 297.94H246.002C242.858 297.94 240.316 295.399 240.316 292.275V173.785C240.316 170.653 242.867 168.12 246.002 168.12H466.725C469.869 168.12 472.411 170.661 472.411 173.785V292.266C472.411 295.399 469.869 297.94 466.725 297.94Z" fill="white"/>
<path d="M307.497 234.539H256.611C255.832 234.539 255.194 233.912 255.194 233.127C255.194 232.35 255.823 231.715 256.611 231.715H307.497C308.276 231.715 308.914 232.341 308.914 233.127C308.905 233.912 308.276 234.539 307.497 234.539Z" fill="#CED3E6"/>
<path d="M307.497 222.626H256.611C255.832 222.626 255.194 222 255.194 221.215C255.194 220.438 255.823 219.803 256.611 219.803H307.497C308.276 219.803 308.914 220.429 308.914 221.215C308.905 221.991 308.276 222.626 307.497 222.626Z" fill="#CED3E6"/>
<path d="M307.497 246.46H256.611C255.832 246.46 255.194 245.834 255.194 245.049C255.194 244.272 255.823 243.637 256.611 243.637H307.497C308.276 243.637 308.914 244.263 308.914 245.049C308.905 245.834 308.276 246.46 307.497 246.46Z" fill="#CED3E6"/>
<path d="M463.855 234.54H412.97C412.19 234.54 411.553 233.913 411.553 233.128C411.553 232.351 412.182 231.716 412.97 231.716H463.855C464.635 231.716 465.272 232.342 465.272 233.128C465.272 233.913 464.635 234.54 463.855 234.54Z" fill="#CED3E6"/>
<path d="M463.855 222.627H412.97C412.19 222.627 411.553 222.001 411.553 221.216C411.553 220.439 412.182 219.804 412.97 219.804H463.855C464.635 219.804 465.272 220.43 465.272 221.216C465.272 221.992 464.635 222.627 463.855 222.627Z" fill="#CED3E6"/>
<path d="M463.855 246.46H412.97C412.19 246.46 411.553 245.834 411.553 245.049C411.553 244.272 412.182 243.637 412.97 243.637H463.855C464.635 243.637 465.272 244.263 465.272 245.049C465.272 245.834 464.635 246.46 463.855 246.46Z" fill="#CED3E6"/>
<path d="M240.315 277.776H472.419V296.739C472.419 297.401 471.879 297.939 471.214 297.939H241.52C240.856 297.939 240.315 297.401 240.315 296.739V277.776Z" fill="#39393B"/>
<path d="M449.614 285.251V283.539H451.757V282.021H448.844C448.419 282.021 448.082 282.366 448.082 282.78V285.251H449.614Z" fill="white"/>
<path d="M449.614 288.296H448.091V290.899C448.091 291.323 448.436 291.658 448.852 291.658H451.766V290.14H449.623V288.296H449.614Z" fill="white"/>
<path d="M456.23 285.251H457.753V282.78C457.753 282.357 457.408 282.021 456.992 282.021H454.193V283.539H456.23V285.251Z" fill="white"/>
<path d="M456.23 288.295V290.13H454.193V291.648H456.992C457.417 291.648 457.753 291.304 457.753 290.889V288.286H456.23V288.295Z" fill="white"/>
<path d="M253.831 287.166V282.356L258.011 284.765L262.182 287.166L258.011 289.566L253.831 291.966V287.166Z" fill="white"/>
<path d="M276.978 291.587H275.88C275.472 291.587 275.136 291.252 275.136 290.846V283.584C275.136 283.178 275.472 282.843 275.88 282.843H276.978C277.385 282.843 277.722 283.178 277.722 283.584V290.846C277.722 291.252 277.385 291.587 276.978 291.587Z" fill="white"/>
<path d="M282.383 291.587H281.285C280.878 291.587 280.541 291.252 280.541 290.846V283.584C280.541 283.178 280.878 282.843 281.285 282.843H282.383C282.79 282.843 283.127 283.178 283.127 283.584V290.846C283.127 291.252 282.79 291.587 282.383 291.587Z" fill="white"/>
<path d="M472.42 273.982H240.316V277.777H472.42V273.982Z" fill="#CED3E6"/>
<path d="M359.41 273.991H240.316V277.786H359.41V273.991Z" fill="#DF615C"/>
<path d="M284.548 150.628C284.548 150.628 283.148 159.152 276.843 160.679C271.751 161.905 266.96 157.043 265.304 155.119C264.905 154.66 264.693 154.369 264.693 154.369C264.693 154.369 264.312 154.405 263.745 154.396C262.417 154.378 260.061 154.105 259.14 152.481C257.821 150.169 262.612 148.581 262.612 148.581C262.612 148.581 260.159 146.392 260.77 144.804C261.372 143.242 264.666 142.916 264.666 142.916C264.666 142.916 261.115 140.621 262.31 138.618C264.099 135.609 267.766 138.918 268.058 139.104C267.828 138.839 263.231 134.1 265.747 133.253C267.943 132.512 271.547 134.974 273.929 137.409C274.31 137.798 274.523 138.018 274.523 138.018C274.523 138.018 274.664 137.912 274.912 137.745C276.099 136.951 279.748 134.833 282.068 136.765C284.858 139.112 284.548 150.628 284.548 150.628Z" fill="#EA9B7A"/>
<path d="M277.968 155.862C277.809 155.933 277.623 155.933 277.472 155.827C277.242 155.677 277.18 155.368 277.34 155.138C278.172 153.912 278.429 152.65 278.101 151.406C277.269 148.211 272.983 146.005 272.938 145.979C272.69 145.855 272.593 145.555 272.717 145.308C272.841 145.061 273.142 144.964 273.39 145.088C273.585 145.185 278.119 147.523 279.066 151.15C279.465 152.685 279.164 154.212 278.163 155.685C278.119 155.765 278.048 155.827 277.968 155.862Z" fill="#D96C63"/>
<path d="M273.593 143.57C273.593 144.161 273.345 144.629 272.884 144.929C272.787 144.991 272.681 145.044 272.557 145.097C272.3 145.194 271.99 145.264 271.653 145.3C271.901 145.458 272.123 145.635 272.291 145.82C272.468 146.005 272.601 146.2 272.681 146.403C272.787 146.703 272.831 147.153 272.459 147.656C271.653 148.714 269.803 149.147 268.297 149.323C269.378 149.959 270.316 150.823 270.626 151.688C270.821 152.244 270.759 152.773 270.431 153.206C270.201 153.506 269.82 153.771 269.351 154C268.173 154.574 266.446 154.927 265.295 155.121C264.896 154.662 264.684 154.371 264.684 154.371C264.684 154.371 264.303 154.415 263.736 154.406C263.807 154.344 263.896 154.309 263.993 154.3C265.844 154.088 269.014 153.435 269.634 152.615C269.714 152.5 269.794 152.341 269.687 152.023C269.342 151.07 267.544 149.809 265.995 149.429C265.747 149.367 265.587 149.138 265.623 148.882C265.649 148.626 265.871 148.441 266.127 148.45C267.367 148.476 270.768 148.264 271.671 147.055C271.804 146.879 271.769 146.782 271.751 146.738C271.671 146.508 271.388 146.279 270.998 146.05C270.201 145.582 268.944 145.158 268.04 144.938C267.934 144.911 267.845 144.858 267.783 144.779C267.677 144.664 267.633 144.497 267.668 144.338C267.73 144.073 268.005 143.905 268.271 143.967C268.439 144.011 268.802 144.099 269.245 144.241C270.086 144.338 270.892 144.382 271.503 144.32C271.866 144.285 272.158 144.205 272.353 144.091C272.468 144.02 272.601 143.888 272.601 143.561C272.61 143.146 272.397 142.608 272.061 142.052C271.955 141.876 271.972 141.655 272.105 141.496L272.114 141.487C272.327 141.214 272.743 141.24 272.92 141.54C273.336 142.229 273.602 142.952 273.593 143.57Z" fill="#D96C63"/>
<path d="M269.925 134.242C270.784 134.771 271.536 135.265 272.272 135.953C272.98 136.624 273.432 136.968 273.919 137.418C273.883 137.471 273.954 137.365 273.919 137.418L264.301 96.7745C264.16 96.148 263.221 96.3422 263.336 96.9687L269.925 134.242C269.934 134.242 269.925 134.242 269.925 134.242Z" fill="#39393B"/>
<path d="M278.287 156.812C274.957 158.956 274.018 157.368 274.018 157.368L272.327 147.82C272.38 147.767 272.424 147.714 272.468 147.653C272.84 147.15 272.796 146.691 272.69 146.4C272.61 146.188 272.477 145.994 272.3 145.817C272.185 145.694 272.052 145.588 271.91 145.473L271.875 145.261C272.123 145.217 272.362 145.164 272.557 145.085C272.681 145.032 272.787 144.988 272.885 144.917C273.186 144.723 273.398 144.441 273.504 144.114C273.912 144.503 274.408 144.723 275.001 144.785C275.161 144.803 275.32 144.803 275.488 144.803L278.287 156.812Z" fill="#39393B"/>
<path d="M281.185 141.91C281.087 141.999 279.617 143.278 277.899 144.108C276.951 144.566 275.915 144.893 275.003 144.796C274.25 144.716 273.639 144.372 273.197 143.781C271.611 141.663 272.966 138.893 273.923 137.428C274.304 137.816 274.516 138.037 274.516 138.037C274.516 138.037 274.658 137.931 274.906 137.763C274.091 138.972 272.718 141.469 274.002 143.19C274.277 143.56 274.64 143.763 275.109 143.816C276.872 144.002 279.617 141.972 280.52 141.178C280.724 140.993 281.043 141.01 281.229 141.222C281.415 141.407 281.388 141.725 281.185 141.91Z" fill="#D96C63"/>
<path d="M332.653 132.052V132.034C332.653 132.017 332.653 132.034 332.653 132.034L332.644 132.087L332.618 132.211L332.556 132.502L332.423 133.146C332.379 133.367 332.325 133.596 332.281 133.826C332.228 134.055 332.184 134.284 332.122 134.514C331.909 135.44 331.679 136.384 331.422 137.329C330.9 139.217 330.351 141.114 329.713 142.976C329.066 144.838 328.402 146.7 327.65 148.509C327.26 149.409 326.888 150.318 326.472 151.2C326.082 152.1 325.648 152.974 325.232 153.847C324.355 155.586 323.443 157.298 322.451 158.939C322.221 159.362 321.955 159.759 321.698 160.174C321.442 160.58 321.202 160.995 320.928 161.392C320.397 162.186 319.883 162.989 319.316 163.757C318.236 165.327 317.04 166.792 315.854 168.248C314.623 169.669 313.365 171.063 312.028 172.36C311.691 172.687 311.364 173.022 311.027 173.34L309.991 174.275L309.477 174.743L309.344 174.857L309.406 174.796L309.495 174.716C309.619 174.619 309.743 174.531 309.885 174.443C310.434 174.054 311.116 173.754 311.744 173.578C311.904 173.534 312.037 173.49 312.187 173.472C312.258 173.454 312.338 173.446 312.409 173.437L312.595 173.401C312.719 173.384 312.851 173.375 312.967 173.375C313.064 173.366 313.161 173.357 313.259 173.366C313.303 173.366 313.365 173.375 313.392 173.375C313.427 173.375 313.462 173.375 313.498 173.375C313.56 173.375 313.64 173.393 313.693 173.401C313.737 173.401 313.772 173.41 313.817 173.419L313.87 173.437C313.879 173.437 313.888 173.437 313.896 173.437C314.038 173.481 313.755 173.437 313.321 173.251C312.878 173.066 312.293 172.757 311.656 172.387C311.018 172.007 310.319 171.548 309.61 171.045C308.184 170.04 306.688 168.839 305.2 167.56C303.703 166.272 302.198 164.904 300.701 163.474C299.205 162.054 297.708 160.571 296.238 159.062C294.759 157.553 293.28 156.009 291.836 154.447C291.101 153.671 290.375 152.886 289.667 152.1L287.577 149.824L271.441 161.886L271.982 162.698L272.495 163.448L273.514 164.922C274.204 165.892 274.895 166.854 275.595 167.807C277.012 169.704 278.464 171.584 279.97 173.437C281.493 175.281 283.043 177.116 284.681 178.917C285.505 179.817 286.337 180.717 287.196 181.599C288.055 182.49 288.941 183.373 289.853 184.246C291.686 186.002 293.616 187.723 295.795 189.417C296.884 190.264 298.044 191.094 299.302 191.914C300.568 192.735 301.941 193.538 303.553 194.297C305.165 195.047 307.007 195.779 309.362 196.273L309.796 196.362C309.947 196.388 310.115 196.415 310.274 196.441C310.593 196.485 310.912 196.529 311.231 196.574C311.558 196.609 311.922 196.635 312.267 196.653L312.789 196.679C312.967 196.688 313.161 196.688 313.347 196.688C313.728 196.688 314.109 196.679 314.481 196.662C314.879 196.635 315.287 196.591 315.694 196.538C315.898 196.512 316.093 196.485 316.305 196.459C316.518 196.423 316.73 196.379 316.943 196.335C317.368 196.247 317.784 196.159 318.209 196.035C319.927 195.55 321.628 194.756 323.124 193.75C323.487 193.503 323.833 193.238 324.178 192.964L324.435 192.761L324.665 192.567L324.851 192.4L325.595 191.747L327.074 190.432C327.552 189.982 328.021 189.523 328.5 189.064C330.404 187.246 332.157 185.288 333.866 183.302C335.531 181.281 337.134 179.225 338.587 177.081C340.074 174.955 341.412 172.74 342.687 170.507L343.608 168.813C343.918 168.248 344.192 167.675 344.485 167.101C344.777 166.528 345.06 165.963 345.335 165.38L346.149 163.651C348.257 159.009 349.957 154.236 351.277 149.374C351.923 146.938 352.508 144.485 352.951 141.988C353.172 140.735 353.385 139.482 353.553 138.193C353.597 137.876 353.633 137.549 353.677 137.223C353.712 136.896 353.757 136.57 353.792 136.234C353.827 135.908 353.863 135.555 353.889 135.211L353.987 133.984L332.653 132.052Z" fill="#FAAF3A"/>
<path d="M281.981 159.442C282.043 160.201 282.716 160.775 283.487 160.704C284.248 160.643 284.824 159.972 284.753 159.204C284.691 158.445 284.018 157.872 283.248 157.942C282.486 158.004 281.919 158.675 281.981 159.442Z" fill="#C77E2E"/>
<path d="M310.91 183.267C311.176 183.267 311.415 183.09 311.486 182.817C312.601 178.369 312.46 172.784 312.451 172.545C312.442 172.219 312.167 171.963 311.84 171.972C311.512 171.981 311.255 172.254 311.264 172.581C311.264 172.634 311.406 178.237 310.334 182.526C310.255 182.843 310.449 183.161 310.768 183.24C310.812 183.258 310.866 183.267 310.91 183.267Z" fill="#C77E2E"/>
<path d="M314.721 178.978C314.81 178.978 314.899 178.96 314.987 178.916C315.279 178.766 315.403 178.413 315.253 178.122C315.173 177.963 313.251 174.134 312.339 172.986C312.135 172.73 311.764 172.686 311.507 172.889C311.25 173.092 311.206 173.463 311.409 173.719C312.242 174.76 314.172 178.607 314.19 178.643C314.287 178.854 314.5 178.978 314.721 178.978Z" fill="#C77E2E"/>
<path d="M277.701 170.949C277.86 170.949 278.011 170.887 278.126 170.773C283.103 165.655 294.341 157.581 294.456 157.492C294.722 157.298 294.784 156.928 294.589 156.663C294.394 156.398 294.022 156.336 293.757 156.531C293.641 156.61 282.324 164.755 277.276 169.943C277.045 170.181 277.054 170.552 277.285 170.781C277.409 170.887 277.55 170.949 277.701 170.949Z" fill="#C77E2E"/>
<path d="M282.513 166.572C282.646 166.572 282.779 166.528 282.894 166.431C283.142 166.219 283.177 165.848 282.974 165.592L276.969 158.409C276.757 158.162 276.385 158.127 276.128 158.33C275.88 158.542 275.845 158.912 276.048 159.168L282.053 166.351C282.177 166.501 282.345 166.572 282.513 166.572Z" fill="#C77E2E"/>
<path d="M347.341 306.364L355.4 258.997L356.064 255.123L332.871 246.97L331.551 246.502L326.025 244.561C326.025 244.561 325.582 246.59 324.9 250.067C324.821 250.49 324.732 250.932 324.643 251.39C322.465 262.597 318.391 285.681 317.275 306.356H347.341V306.364Z" fill="#39393B"/>
<path d="M343.237 306.363C346.718 287.48 351.199 259.878 351.464 258.263C351.517 257.919 351.287 257.602 350.942 257.549C350.605 257.496 350.278 257.725 350.224 258.069C350.162 258.466 345.513 287.118 341.962 306.363H343.237Z" fill="#585859"/>
<path d="M394.265 229.433C394.265 229.433 396.009 245.934 392.246 255.12C388.482 264.305 339.713 259.576 327.288 251.308C322.187 247.919 333.044 216.629 333.044 216.629L394.265 229.433Z" fill="#39393B"/>
<path d="M324.637 251.401C325.372 251.268 326.098 251.083 326.798 250.845C327.913 250.465 328.985 249.954 330.003 249.301C331.057 248.621 332.014 247.836 332.864 246.971C338.239 241.571 339.825 233.4 339.895 233.003C339.957 232.667 339.736 232.341 339.391 232.27C339.054 232.208 338.726 232.429 338.656 232.773C338.638 232.87 336.991 241.368 331.535 246.503C330.854 247.148 330.11 247.739 329.313 248.251C328.347 248.868 327.32 249.354 326.248 249.706C325.806 249.848 325.345 249.971 324.885 250.068C324.814 250.492 324.725 250.933 324.637 251.401Z" fill="#585859"/>
<path d="M354.728 256.014C354.711 256.341 354.976 256.623 355.322 256.65C355.322 256.65 355.322 256.65 355.331 256.65C355.676 256.667 355.968 256.411 355.986 256.076C356.092 253.817 356.234 251.514 356.376 249.202C356.402 248.796 356.429 248.39 356.455 247.984C356.951 240.449 357.571 233.045 358.04 227.813C358.076 227.389 358.111 226.983 358.156 226.586C358.262 225.439 358.359 224.424 358.439 223.559C358.023 223.498 357.607 223.427 357.199 223.356C357.119 224.221 357.022 225.245 356.916 226.401C356.88 226.798 356.845 227.204 356.801 227.627C356.331 232.807 355.711 240.149 355.224 247.64C355.198 248.055 355.171 248.47 355.145 248.885C354.976 251.276 354.835 253.676 354.728 256.014Z" fill="#585859"/>
<path d="M352.94 248.05C353.135 248.147 354.012 248.553 355.127 248.888C355.517 249.003 355.933 249.118 356.367 249.197C356.757 249.277 357.155 249.33 357.554 249.347C358.316 249.391 359.042 249.312 359.653 249.021C360.414 248.659 360.91 247.997 361.079 247.115C361.53 244.785 362.487 235.185 363.133 228.39C363.177 227.975 363.213 227.561 363.248 227.172C363.355 226.087 363.443 225.099 363.523 224.26C363.107 224.207 362.69 224.163 362.274 224.102C362.194 224.949 362.106 225.946 362 227.049C361.964 227.446 361.92 227.852 361.885 228.267C361.238 235.043 360.29 244.635 359.848 246.885C359.75 247.406 359.511 247.741 359.095 247.935C358.431 248.253 357.439 248.182 356.447 247.971C356.022 247.882 355.606 247.759 355.216 247.635C354.499 247.406 353.879 247.141 353.498 246.965C353.188 246.815 352.816 246.938 352.657 247.238C352.506 247.538 352.63 247.9 352.94 248.05Z" fill="#585859"/>
<path d="M388.197 306.363C390.128 288.785 392.359 265.252 393.617 251.627C393.661 251.204 393.697 250.789 393.732 250.383C394.29 244.365 394.627 240.58 394.627 240.58C391.633 239.335 386.205 240.191 380.431 241.824C380.014 241.938 379.598 242.062 379.173 242.186C368.918 245.247 358.043 250.418 358.043 250.418V306.363H388.197Z" fill="#39393B"/>
<path d="M385.261 306.361C386.926 286.815 388.901 258.578 388.928 258.208C388.954 257.863 388.689 257.563 388.343 257.537C387.998 257.519 387.697 257.775 387.679 258.119C387.653 258.49 385.669 286.833 384.004 306.361H385.261Z" fill="#585859"/>
<path d="M375.728 233C375.781 233.291 376.64 237.712 379.182 242.186C380.679 244.825 382.769 247.472 385.62 249.298C388.02 250.834 390.695 251.61 393.617 251.628C393.661 251.204 393.697 250.79 393.732 250.384C391.004 250.384 388.516 249.669 386.302 248.257C383.752 246.625 381.848 244.242 380.439 241.833C377.845 237.386 376.968 232.85 376.959 232.78C376.897 232.444 376.569 232.215 376.233 232.277C375.888 232.338 375.666 232.656 375.728 233Z" fill="#585859"/>
<path d="M325.582 228.394C339.078 240.951 371.004 247.622 395.605 235.683C398.306 228.332 401.273 202.107 402.07 194.263C402.229 192.701 402.353 191.139 402.46 189.577C402.956 182.059 402.849 174.479 402.486 166.555C402.469 166.123 402.442 165.69 402.424 165.258C402.106 158.737 401.618 151.978 401.167 144.795C400.272 130.579 395.508 121.826 387.237 120.52C383.393 119.911 380.347 118.834 378.106 117.775C377.832 117.643 377.575 117.52 377.318 117.387C374.652 116.028 373.138 114.811 373.138 114.811H354.691C353.106 117.114 351.105 118.57 348.953 119.593C348.714 119.708 348.474 119.814 348.226 119.92C341.682 122.735 334.048 122.179 332.472 130.041C331.48 134.982 335.279 145.139 334.881 165.743C334.854 167.252 334.801 168.823 334.721 170.446C334.65 171.973 334.553 173.544 334.429 175.167C334.314 176.676 334.181 178.247 334.022 179.853C333.88 181.256 333.721 182.703 333.543 184.177C333.357 185.694 333.154 187.247 332.924 188.845C331.701 197.43 328.407 217.382 325.582 228.394Z" fill="#FAAF3A"/>
<path d="M388.802 232.692C388.758 232.692 388.705 232.683 388.652 232.674C388.36 232.595 388.183 232.295 388.262 231.995C398.508 194.563 396.436 156.522 396.419 156.143C396.401 155.843 396.631 155.578 396.941 155.561C397.251 155.543 397.508 155.772 397.525 156.081C397.543 156.461 399.624 194.686 389.334 232.295C389.263 232.524 389.042 232.692 388.802 232.692Z" fill="#C77E2E"/>
<path d="M333.203 184.08C333.504 184.08 333.761 183.859 333.797 183.551C335.019 172.723 335.036 151.193 335.036 150.972C335.036 150.646 334.771 150.381 334.443 150.381C334.115 150.381 333.85 150.646 333.85 150.972C333.85 151.184 333.832 172.662 332.619 183.418C332.583 183.745 332.814 184.036 333.141 184.071C333.159 184.071 333.186 184.08 333.203 184.08Z" fill="#C77E2E"/>
<path d="M358.479 224.849C358.541 225.608 359.214 226.181 359.984 226.111C360.746 226.049 361.321 225.378 361.251 224.611C361.189 223.852 360.515 223.278 359.745 223.349C358.975 223.41 358.408 224.09 358.479 224.849Z" fill="#C77E2E"/>
<path d="M358.259 231.554C358.321 232.313 358.994 232.886 359.764 232.816C360.526 232.754 361.102 232.083 361.031 231.316C360.96 230.548 360.296 229.983 359.525 230.054C358.755 230.116 358.188 230.786 358.259 231.554Z" fill="#C77E2E"/>
<path d="M342.016 157.799C338.394 153.608 339.749 144.281 339.811 143.884C339.855 143.593 340.103 143.381 340.395 143.381H352.678C352.97 143.381 353.218 143.593 353.263 143.884C353.325 144.281 354.679 153.608 351.057 157.799C349.906 159.132 348.383 159.802 346.532 159.802C344.69 159.811 343.167 159.132 342.016 157.799ZM340.917 144.572C340.687 146.54 340.085 153.767 342.91 157.032C343.84 158.108 345.027 158.629 346.532 158.629C348.046 158.629 349.233 158.108 350.154 157.032C352.979 153.767 352.377 146.54 352.147 144.572H340.917Z" fill="#C77E2E"/>
<path d="M374.809 69.5088C371.373 67.294 360.542 66.1821 360.542 66.1821C360.542 66.1821 358.762 61.523 356.752 60.1906C352.191 57.1639 351.625 63.2967 351.625 63.2967C351.625 63.2967 347.17 57.0757 343.158 58.8582C339.147 60.6318 344.274 66.4116 344.274 66.4116C344.274 66.4116 338.261 65.2997 338.925 70.4089C339.589 75.518 345.39 77.7329 345.39 77.7329C345.39 77.7329 343.61 80.6183 344.496 85.2863C345.39 89.9454 347.391 90.1748 347.391 90.1748L372.356 92.3985C372.356 92.3985 377.484 92.3985 378.821 85.9569C380.158 79.5153 375.704 76.8504 375.704 76.8504C375.704 76.8504 378.6 71.9531 374.809 69.5088Z" fill="#39393B"/>
<path d="M354.415 111.694V116.362C354.964 116.803 355.522 117.192 356.071 117.518C364.21 122.389 372.995 116.362 372.995 116.362V100.17L356.638 110.326L354.415 111.694Z" fill="#EA9B7A"/>
<path d="M354.415 111.564V116.373C354.964 116.814 355.522 117.202 356.071 117.529C363.005 114.793 368.053 107.549 368.053 107.549L356.629 110.328L354.415 111.564Z" fill="#39393B"/>
<path d="M372.959 111.626C372.959 111.626 378.44 112.544 379.946 118.791C374.606 124.359 369.886 129.177 362.252 130.589V119.409C362.252 119.409 368.991 117.732 372.959 111.626Z" fill="#FAAF3A"/>
<path d="M354.246 113.241C354.246 113.241 349.348 114.291 347.453 120.53C352.386 126.513 355.025 128.763 362.251 130.589V119.409C362.251 119.409 358.222 119.347 354.246 113.241Z" fill="#FAAF3A"/>
<path d="M351.489 200.113L354.66 207.746L356.085 211.179L360.106 220.859L362.054 217.126L362.736 215.794L364.304 212.803L364.986 211.47L366.544 208.479L367.235 207.155L368.794 204.155V204.146L369.484 202.831L370.946 200.008L370.919 199.699L370.689 197.466L370.166 192.392L369.945 190.16L369.422 185.086L369.192 182.854L368.678 177.78L368.448 175.547L367.926 170.473L367.704 168.232L367.182 163.167L366.952 160.926L366.438 155.861L366.208 153.619L365.694 148.554L365.464 146.313L364.941 141.248L364.711 139.007L364.18 133.765L360.292 133.615L360.177 134.489L359.947 136.262L359.415 140.286L359.176 142.06L358.645 146.084L358.406 147.857L357.874 151.881L357.635 153.655L357.104 157.678L356.874 159.452L356.342 163.476L356.103 165.25L355.572 169.273L355.333 171.047L354.801 175.071L354.571 176.853L354.031 180.877L353.801 182.651L353.269 186.666L353.03 188.448L352.499 192.472L352.26 194.245L351.728 198.269L351.498 200.043L351.489 200.113Z" fill="#39393B"/>
<path d="M359.946 136.263L364.941 141.248L364.711 139.007L360.177 134.489L359.946 136.263Z" fill="#585859"/>
<path d="M359.182 142.059L365.7 148.553L365.469 146.312L359.421 140.285L359.182 142.059Z" fill="#585859"/>
<path d="M358.41 147.857L366.442 155.86L366.212 153.619L358.649 146.083L358.41 147.857Z" fill="#585859"/>
<path d="M357.638 153.655L367.184 163.168L366.954 160.927L357.877 151.882L357.638 153.655Z" fill="#585859"/>
<path d="M356.876 159.452L367.928 170.474L367.707 168.232L357.106 157.679L356.876 159.452Z" fill="#585859"/>
<path d="M356.105 165.249L368.681 177.779L368.451 175.547L356.345 163.476L356.105 165.249Z" fill="#585859"/>
<path d="M355.336 171.048L369.426 185.087L369.195 182.855L355.575 169.274L355.336 171.048Z" fill="#585859"/>
<path d="M354.569 176.854L370.165 192.393L369.943 190.16L354.8 175.071L354.569 176.854Z" fill="#585859"/>
<path d="M353.805 182.651L370.923 199.699L370.693 197.466L354.035 180.877L353.805 182.651Z" fill="#585859"/>
<path d="M353.034 188.448L368.798 204.147L369.488 202.832L353.273 186.666L353.034 188.448Z" fill="#585859"/>
<path d="M352.26 194.247L366.544 208.481L367.235 207.157L352.499 192.474L352.26 194.247Z" fill="#585859"/>
<path d="M351.499 200.042L364.305 212.802L364.987 211.469L351.729 198.269L351.499 200.042Z" fill="#585859"/>
<path d="M354.663 207.745L356.089 211.178L362.058 217.125L362.74 215.793L354.663 207.745Z" fill="#585859"/>
<path d="M364.182 133.765L362.252 136.633L360.295 133.615L359.958 136.192L362.216 138.495L364.386 135.768L364.182 133.765Z" fill="#585859"/>
<path d="M367.431 128.957L362.25 136.634L357.282 128.957L362.25 122.542L367.431 128.957Z" fill="#39393B"/>
<path d="M370.446 134.207C370.579 134.207 370.711 134.162 370.818 134.074C375.954 129.998 380.32 119.453 380.506 119.003C380.63 118.703 380.488 118.35 380.178 118.226C379.877 118.103 379.523 118.244 379.399 118.553C379.355 118.659 375.237 128.586 370.543 132.742L362.732 122.171C362.617 122.021 362.44 121.923 362.245 121.932C362.05 121.932 361.873 122.029 361.767 122.179L354.479 132.486C353.363 130.483 350.44 125.171 347.987 120.247C347.846 119.956 347.483 119.832 347.19 119.982C346.898 120.123 346.774 120.485 346.925 120.776C350.024 126.997 353.868 133.827 353.903 133.898C354 134.074 354.186 134.189 354.39 134.198C354.594 134.207 354.789 134.11 354.904 133.951L362.263 123.547L369.959 133.96C370.056 134.092 370.198 134.171 370.357 134.198C370.402 134.207 370.428 134.207 370.446 134.207Z" fill="#C77E2E"/>
<path d="M362.263 123.132C362.591 123.132 362.857 122.868 362.857 122.541V119.894C362.857 119.567 362.591 119.303 362.263 119.303C361.936 119.303 361.67 119.567 361.67 119.894V122.541C361.67 122.868 361.936 123.132 362.263 123.132Z" fill="#C77E2E"/>
<path d="M348.568 90.9948C348.568 90.9948 345.902 87.8622 344.396 90.9948C342.891 94.1273 344.051 100.472 348.098 99.4394L348.568 90.9948Z" fill="#D96C63"/>
<path d="M345.717 101.99C345.717 101.99 345.699 111.652 355.786 111.626C365.811 111.608 372.639 103.763 372.993 103.402C373.002 103.393 373.002 103.393 373.002 103.393L373.108 101.363L373.675 90.8274L373.976 85.1976C373.976 85.1976 375.26 75.0588 365.58 73.2057C358.514 71.8556 351.889 73.0204 348.542 76.7C348.436 76.8147 348.329 76.9383 348.232 77.0618C347.178 78.3501 346.505 79.9296 346.328 81.7827L346.018 91.8951L345.938 94.3747L345.717 101.99Z" fill="#EA9B7A"/>
<path d="M357.291 84.6406C357.291 84.6406 361.525 87.782 364.04 85.7789C366.555 83.7759 360.692 81.5963 358.761 81.764C356.84 81.9228 356.034 83.9259 357.291 84.6406Z" fill="#39393B"/>
<path d="M352.688 84.6406C352.688 84.6406 348.455 87.782 345.94 85.7789C343.425 83.7759 349.288 81.5963 351.218 81.764C353.149 81.9228 353.946 83.9259 352.688 84.6406Z" fill="#39393B"/>
<path d="M356.026 103.252C357.638 103.393 358.851 102.387 358.913 102.334C359.099 102.175 359.117 101.893 358.958 101.708C358.798 101.523 358.515 101.505 358.329 101.664C358.267 101.717 356.868 102.873 355.229 102.14C355.008 102.043 354.742 102.14 354.645 102.37C354.548 102.59 354.645 102.855 354.875 102.952C355.265 103.128 355.655 103.217 356.026 103.252Z" fill="#D96C63"/>
<path d="M360.393 96.3516C360.393 96.3516 354.238 97.5869 351.13 97.3046C351.13 97.3046 352.29 101.867 356.868 100.719C360.437 99.8282 360.393 96.3516 360.393 96.3516Z" fill="white"/>
<path d="M348.251 77.0618C349.836 76.5059 350.979 77.0265 353.44 78.1031C357.001 79.6649 360.986 78.2619 364.51 76.4618C368.035 74.6705 370.143 77.1677 368.947 78.8002C367.752 80.4414 367.876 81.765 369.213 83.8475C370.541 85.93 366.698 86.9095 368.823 88.5419C369.718 89.2302 369.664 90.2626 369.301 91.2245C368.903 92.2745 369.833 93.3422 370.931 93.1393C372.082 92.8481 373.694 90.8274 373.694 90.8274L373.995 85.1976C373.995 85.1976 375.279 75.0588 365.6 73.2057C358.533 71.8556 351.908 73.0204 348.561 76.7C348.455 76.8147 348.348 76.9383 348.251 77.0618Z" fill="#39393B"/>
<path d="M359.172 93.1388C359.172 93.8448 360.624 94.4095 362.422 94.4095C364.211 94.4095 365.672 93.8359 365.672 93.1388C365.672 92.4329 364.22 91.8682 362.422 91.8682C360.633 91.8682 359.172 92.4417 359.172 93.1388Z" fill="#D96C63"/>
<path d="M345.954 94.3742C346.202 94.4007 346.468 94.4095 346.733 94.4095C348.522 94.4095 349.975 93.8359 349.975 93.1388C349.975 92.4329 348.522 91.8682 346.733 91.8682C346.494 91.8682 346.255 91.877 346.025 91.9035L345.954 94.3742Z" fill="#D96C63"/>
<path d="M357.781 89.2726C357.781 90.2345 358.224 91.0198 358.764 91.0198C359.304 91.0198 359.747 90.2345 359.747 89.2726C359.747 88.3108 359.304 87.5255 358.764 87.5255C358.215 87.5166 357.781 88.302 357.781 89.2726Z" fill="#39393B"/>
<path d="M348.036 89.2726C348.036 90.2345 348.479 91.0198 349.019 91.0198C349.559 91.0198 350.002 90.2345 350.002 89.2726C350.002 88.3108 349.559 87.5255 349.019 87.5255C348.47 87.5166 348.036 88.302 348.036 89.2726Z" fill="#39393B"/>
<path d="M369.84 99.4824C369.884 99.5883 371.159 102.536 372.993 103.4C373.001 103.391 373.001 103.391 373.001 103.391L373.108 101.362C373.108 101.362 371.522 101.088 369.84 99.4824Z" fill="#39393B"/>
<path d="M371.609 92.775C371.609 92.775 375.488 87.5865 378.322 91.6632C380.66 95.0252 376.241 103.779 371.609 100.778V92.775Z" fill="#EA9B7A"/>
<path d="M372.141 99.2153C372.344 99.2153 372.513 99.0653 372.539 98.8624C372.973 94.9357 376.267 93.5679 376.409 93.515C376.613 93.4356 376.71 93.2061 376.631 92.9944C376.551 92.7914 376.321 92.6943 376.117 92.7738C375.957 92.8355 372.229 94.3621 371.751 98.7741C371.724 98.9947 371.884 99.1889 372.105 99.2153C372.114 99.2153 372.123 99.2153 372.141 99.2153Z" fill="#39393B"/>
<path d="M375.86 96.8082C375.975 96.8082 376.09 96.7553 376.17 96.6582C376.311 96.4905 376.285 96.2346 376.108 96.1023C375.948 95.9699 374.523 94.8493 373.318 95.1581C373.106 95.211 372.973 95.4316 373.035 95.6434C373.088 95.8552 373.309 95.9876 373.522 95.9258C374.213 95.7493 375.258 96.4376 375.612 96.72C375.683 96.7729 375.771 96.8082 375.86 96.8082Z" fill="#39393B"/>
<path d="M354.631 94.139C354.853 94.139 355.03 93.9625 355.03 93.7419C355.03 93.5213 354.853 93.3448 354.631 93.3448C353.161 93.3448 352.479 92.5683 352.249 92.2418C353.843 88.9769 355.419 85.6767 355.437 85.6502C355.535 85.4561 355.446 85.2178 355.251 85.1207C355.056 85.0237 354.817 85.1119 354.72 85.3061C354.702 85.3414 353.064 88.7563 351.443 92.0918C351.39 92.1977 351.39 92.3212 351.443 92.4359C351.47 92.4888 352.267 94.139 354.631 94.139Z" fill="#39393B"/>
<path d="M451.114 129.948C451.114 129.948 456.481 135.348 461.786 133.248C466.063 131.545 467.01 125.615 467.223 123.4C467.276 122.871 467.276 122.553 467.276 122.553C467.276 122.553 467.568 122.386 467.967 122.094C468.906 121.406 470.464 120.012 470.296 118.379C470.057 116.05 465.806 117.347 465.806 117.347C465.806 117.347 466.453 114.532 465.195 113.703C463.964 112.891 461.431 114.329 461.431 114.329C461.431 114.329 462.804 110.879 460.927 110.05C458.101 108.797 457.172 113.041 457.048 113.314C457.074 113.006 458.42 100.008 456.18 100.678C454.223 101.261 452.425 112.123 451.964 115.079C451.894 115.547 451.858 115.812 451.858 115.812C451.858 115.812 451.699 115.803 451.433 115.812C450.175 115.847 446.483 116.182 445.801 118.741C444.995 121.847 451.114 129.948 451.114 129.948Z" fill="#EA9B7A"/>
<path d="M462.104 120.767C461.653 121.773 461.422 122.867 461.644 123.644C461.785 124.147 462.104 124.491 462.565 124.632C462.884 124.729 463.291 124.729 463.743 124.65C464.885 124.464 466.302 123.838 467.232 123.388C467.285 122.858 467.285 122.541 467.285 122.541C467.285 122.541 467.577 122.373 467.984 122.082C467.905 122.073 467.816 122.1 467.745 122.135C466.311 122.92 463.707 124.067 462.83 123.794C462.715 123.758 462.574 123.679 462.494 123.397C462.255 122.541 462.901 120.723 463.813 119.655C463.964 119.488 463.955 119.232 463.805 119.073C463.654 118.905 463.397 118.879 463.22 119.02C462.343 119.664 459.802 121.244 458.535 120.838C458.349 120.776 458.323 120.697 458.314 120.652C458.261 120.449 458.34 120.132 458.509 119.77C458.845 119.029 459.527 118.085 460.067 117.467C460.129 117.396 460.165 117.308 460.174 117.229C460.191 117.087 460.138 116.946 460.032 116.849C459.846 116.69 459.571 116.708 459.412 116.893C459.173 117.167 458.332 118.155 457.827 119.179C457.641 119.549 457.508 119.929 457.455 120.273C457.419 120.494 457.428 120.705 457.481 120.891C457.561 121.155 457.756 121.508 458.287 121.676C459.377 122.038 460.926 121.402 462.104 120.767Z" fill="#D96C63"/>
<path d="M455.374 117.068C455.551 117.121 455.675 117.262 455.693 117.448C455.737 118.021 455.87 118.515 456.083 118.807C456.251 119.036 456.41 119.062 456.534 119.062C456.729 119.054 456.977 118.957 457.26 118.798C457.96 118.401 458.846 117.615 459.616 116.848C459.607 116.936 459.572 117.015 459.51 117.086C458.97 117.704 458.288 118.648 457.951 119.389C457.863 119.442 457.774 119.504 457.686 119.548C457.402 119.707 457.137 119.821 456.889 119.892C456.773 119.918 456.676 119.936 456.57 119.936C456.091 119.954 455.675 119.742 455.365 119.318C455.047 118.877 454.869 118.224 454.807 117.509C454.781 117.209 455.064 116.98 455.356 117.059C455.365 117.068 455.365 117.068 455.374 117.068Z" fill="#D96C63"/>
<path d="M449.065 121.984C449.18 121.993 450.889 122.17 452.545 121.887C453.466 121.737 454.37 121.446 454.972 120.908C455.468 120.467 455.734 119.911 455.751 119.258C455.804 116.928 453.413 115.631 451.979 115.066C451.908 115.534 451.872 115.799 451.872 115.799C451.872 115.799 451.713 115.79 451.447 115.799C452.652 116.249 454.91 117.343 454.875 119.231C454.866 119.637 454.706 119.964 454.396 120.246C453.227 121.279 450.216 121.217 449.163 121.102C448.923 121.076 448.702 121.252 448.675 121.49C448.649 121.746 448.826 121.958 449.065 121.984Z" fill="#D96C63"/>
<path d="M458.508 130.358C458.658 130.331 458.791 130.234 458.844 130.084C458.933 129.855 458.818 129.608 458.587 129.519C457.365 129.061 456.533 128.284 456.134 127.234C455.098 124.525 457.037 120.757 457.064 120.722C457.179 120.51 457.091 120.245 456.878 120.131C456.666 120.016 456.4 120.104 456.285 120.316C456.196 120.484 454.142 124.472 455.319 127.543C455.815 128.849 456.816 129.784 458.286 130.34C458.357 130.367 458.437 130.375 458.508 130.358Z" fill="#D96C63"/>
<path d="M393.174 123.645L402.349 131.586C403.819 132.954 405.289 134.304 406.768 135.654C408.238 137.004 409.708 138.345 411.187 139.669C412.666 140.993 414.136 142.307 415.606 143.596C417.076 144.884 418.555 146.146 420.016 147.355C421.469 148.573 422.93 149.746 424.294 150.752C424.967 151.255 425.631 151.714 426.162 152.058L426.517 152.287L426.658 152.376C426.694 152.393 426.694 152.402 426.711 152.42C426.765 152.473 426.8 152.508 426.827 152.543C426.871 152.605 426.871 152.658 426.924 152.702C426.977 152.755 427.119 152.79 427.376 152.773C427.889 152.737 428.846 152.411 429.953 151.776C431.051 151.14 432.273 150.223 433.477 149.146C434.682 148.061 435.913 146.843 437.099 145.519C439.482 142.863 441.775 139.872 443.945 136.739C446.124 133.607 447.664 131.189 449.63 127.854C452.81 131.683 457.698 133.58 463.003 132.945C461.506 136.995 459.779 140.931 457.831 144.84C455.856 148.731 453.678 152.587 451.03 156.364C449.701 158.253 448.267 160.132 446.611 161.967C444.955 163.803 443.113 165.612 440.863 167.324C439.738 168.171 438.508 169 437.117 169.75C435.727 170.492 434.186 171.171 432.468 171.683C430.75 172.186 428.846 172.53 426.862 172.565C424.878 172.609 422.824 172.345 420.92 171.806C419.963 171.542 419.042 171.215 418.174 170.836L417.537 170.544L416.997 170.28C416.811 170.192 416.66 170.112 416.492 170.024C416.332 169.936 416.155 169.847 416.005 169.768C414.765 169.097 413.702 168.453 412.684 167.809C410.665 166.53 408.849 165.259 407.069 163.971C405.298 162.682 403.598 161.376 401.915 160.07C400.241 158.764 398.585 157.441 396.965 156.108C395.344 154.767 393.732 153.435 392.147 152.076C390.562 150.717 388.994 149.349 387.427 147.973C385.877 146.587 384.327 145.202 382.795 143.799L380.502 141.681L379.368 140.604C378.987 140.243 378.615 139.89 378.217 139.501L393.174 123.645Z" fill="#FAAF3A"/>
<path d="M401.933 161.156C401.827 161.156 401.712 161.12 401.614 161.059C395.557 156.832 384.779 147.928 384.673 147.84C384.434 147.646 384.407 147.302 384.602 147.064C384.797 146.825 385.142 146.799 385.381 146.993C385.488 147.081 396.23 155.958 402.252 160.159C402.5 160.335 402.562 160.679 402.385 160.926C402.278 161.076 402.11 161.156 401.933 161.156Z" fill="#C77E2E"/>
<path d="M389.402 151.519C389.375 151.519 389.348 151.519 389.322 151.511L385.053 150.893C384.752 150.849 384.54 150.566 384.584 150.266C384.628 149.966 384.912 149.755 385.213 149.799L389.481 150.416C389.782 150.461 389.995 150.743 389.951 151.043C389.906 151.325 389.667 151.519 389.402 151.519Z" fill="#C77E2E"/>
<path d="M460.025 139.809C460.246 139.695 460.37 139.447 460.317 139.192C460.255 138.892 459.954 138.697 459.644 138.759C451.603 140.506 447.6 132.865 447.564 132.785C447.423 132.512 447.086 132.397 446.803 132.538C446.803 132.538 446.803 132.538 446.794 132.538C446.52 132.679 446.413 133.015 446.555 133.288C446.599 133.376 451.001 141.777 459.883 139.845C459.936 139.853 459.98 139.836 460.025 139.809Z" fill="#C77E2E"/>
<path d="M455.901 139.96C456.016 139.898 456.105 139.81 456.158 139.686L458.806 133.527C458.93 133.244 458.797 132.909 458.514 132.786C458.23 132.662 457.894 132.794 457.77 133.077L455.122 139.236C454.998 139.518 455.131 139.854 455.414 139.977C455.582 140.048 455.75 140.03 455.901 139.96Z" fill="#C77E2E"/>
<path d="M451.162 134.038C451.41 134.515 452.003 134.7 452.481 134.453C452.959 134.206 453.145 133.615 452.897 133.138C452.649 132.662 452.056 132.477 451.578 132.724C451.1 132.98 450.905 133.562 451.162 134.038Z" fill="#C77E2E"/>
<path d="M425.647 159.62C425.798 159.54 425.913 159.39 425.939 159.214C425.948 159.178 426.542 155.666 427.587 153.619C427.728 153.346 427.622 153.002 427.339 152.86C427.064 152.719 426.719 152.834 426.577 153.108C425.452 155.314 424.85 158.878 424.824 159.028C424.77 159.337 424.983 159.62 425.284 159.673C425.426 159.699 425.55 159.673 425.647 159.62Z" fill="#C77E2E"/>
<path d="M429.314 158.357C429.35 158.34 429.385 158.313 429.42 158.287C429.66 158.084 429.686 157.731 429.491 157.493C429.474 157.475 427.906 155.587 427.534 153.751C427.472 153.451 427.171 153.248 426.87 153.31C426.569 153.372 426.365 153.672 426.427 153.972C426.861 156.09 428.553 158.119 428.632 158.207C428.792 158.419 429.084 158.472 429.314 158.357Z" fill="#C77E2E"/>
<path d="M103.447 230.435L116.403 277.644L111.78 272.341C113.49 273.25 115.473 273.947 117.661 274.432C119.848 274.926 122.239 275.209 124.737 275.332C127.234 275.465 129.837 275.438 132.503 275.332C135.169 275.218 137.887 275.023 140.651 274.785H140.668C144.742 274.441 148.329 277.45 148.674 281.509C149.002 285.383 146.247 288.807 142.466 289.424C139.614 289.874 136.719 290.307 133.752 290.651C130.776 290.995 127.73 291.251 124.577 291.321C121.424 291.392 118.157 291.269 114.774 290.783C111.4 290.298 107.902 289.415 104.483 287.951C102.296 287.007 100.737 285.224 100.029 283.133L99.8604 282.639L84.3184 236.215C82.5738 231 85.3988 225.353 90.6414 223.614C95.8753 221.876 101.543 224.691 103.288 229.915C103.35 230.082 103.403 230.277 103.447 230.435Z" fill="#EA9B7A"/>
<path d="M108.438 401.566C108.243 401.566 108.049 401.53 107.854 401.46L39.9825 377.079C39.0969 376.761 38.6275 375.782 38.9552 374.899C39.274 374.017 40.257 373.549 41.1426 373.876L109.014 398.257C109.9 398.574 110.369 399.554 110.041 400.436C109.793 401.133 109.138 401.566 108.438 401.566Z" fill="#CED3E6"/>
<path d="M37.7451 401.57C37.0455 401.57 36.3901 401.137 36.1333 400.44C35.8145 399.558 36.275 398.578 37.1606 398.252L105.838 373.465C106.723 373.147 107.706 373.606 108.034 374.489C108.353 375.371 107.892 376.35 107.007 376.677L38.3296 401.464C38.1347 401.534 37.9399 401.57 37.7451 401.57Z" fill="#CED3E6"/>
<path d="M114.474 445.145C113.031 445.145 111.773 444.077 111.57 442.613L99.313 351.398H48.0199L35.9493 442.613C35.7368 444.21 34.2667 445.339 32.6638 445.127C31.0609 444.916 29.9273 443.451 30.1399 441.854L42.5469 348.116C42.7418 346.66 43.9816 345.574 45.4517 345.574H101.89C103.36 345.574 104.6 346.66 104.795 348.107L117.397 441.845C117.609 443.442 116.485 444.916 114.882 445.127C114.74 445.136 114.607 445.145 114.474 445.145Z" fill="white"/>
<path d="M85.5289 348.483H48.8833C37.2733 348.483 24.8397 342.148 23.0508 330.72C20.6686 315.428 20.0752 300.63 20.7394 287.041C21.4922 271.679 28.8602 257.384 40.9751 247.854C40.9751 247.854 48.2988 279.647 39.0888 323.529C42.6134 340.197 85.5289 348.483 85.5289 348.483Z" fill="white"/>
<path d="M77.9 162.023C77.9 162.023 73.5429 151.558 62.0037 153.535C53.9449 154.911 50.5088 164.918 50.9782 180.377C51.6689 202.87 44.0352 216.424 44.0352 216.424L54.1663 218.718C54.1751 218.709 79.9722 180.157 77.9 162.023Z" fill="#39393B"/>
<path d="M170.336 406.065H153.961C153.961 406.065 150.171 387.958 148.905 377.81C147.629 367.654 146.974 343.59 146.974 343.59C146.974 343.59 133.929 347.817 106.618 346.22C46.1059 342.699 69.0514 298.402 69.0514 298.402C71.0971 301.217 83.6193 299.267 92.1829 300.608C118.458 303.123 141.236 313.394 154.909 319.271C158.203 320.683 161.126 322.183 163.694 323.763C166.988 325.783 169.052 331.934 170.3 340.008C174.029 364.292 170.336 406.065 170.336 406.065Z" fill="#39393B"/>
<path d="M155.984 397.345C155.709 397.345 155.47 397.151 155.408 396.877C153.044 385.23 152.255 370.732 151.618 359.084C151.086 349.422 150.591 340.297 149.342 339.203C148.332 338.312 144.143 339.009 138.848 339.883C128.3 341.63 112.36 344.259 94.7898 340.192C85.2166 337.968 78.1762 333.335 73.8722 326.417C66.4421 314.487 69.8339 299.689 69.8694 299.539C69.9402 299.221 70.259 299.027 70.5778 299.107C70.8966 299.177 71.0915 299.495 71.0118 299.813C70.9763 299.954 67.7085 314.293 74.8818 325.808C79.0175 332.453 85.8099 336.909 95.0643 339.053C112.413 343.077 128.212 340.465 138.671 338.736C144.932 337.703 148.713 337.077 150.139 338.33C151.68 339.689 152.114 346.36 152.805 359.022C153.442 370.635 154.23 385.08 156.577 396.648C156.639 396.966 156.435 397.275 156.117 397.336C156.063 397.336 156.028 397.336 155.984 397.345Z" fill="#585859"/>
<path d="M170.641 397.641H170.632L152.424 397.253C152.097 397.244 151.84 396.979 151.849 396.653C151.858 396.326 152.123 396.07 152.451 396.079L170.659 396.468C170.986 396.476 171.243 396.741 171.234 397.068C171.217 397.394 170.96 397.641 170.641 397.641Z" fill="#585859"/>
<path d="M169.882 426.966H158.325L156.102 413.456L154.88 406.062H169.235L169.465 413.456L169.882 426.966Z" fill="#EA9B7A"/>
<path d="M169.887 426.965H158.33L156.674 416.905L156.107 413.455H169.471L169.577 417.029L169.887 426.965Z" fill="#FAAF3A"/>
<path d="M169.577 417.029L156.674 416.905L156.107 413.455H169.471L169.577 417.029Z" fill="#C77E2E"/>
<path d="M198.405 445.145H154.701C154.374 444.554 154.197 443.725 154.126 442.728C153.851 439.039 155.029 433.162 155.605 429.456C155.676 429.024 155.738 428.618 155.782 428.256C155.862 427.638 155.915 427.118 155.915 426.738C155.915 423.712 158.598 424.232 158.598 424.232C163.017 428.556 168.03 422.07 170.952 424.197C170.952 424.197 171.067 424.285 171.342 424.488C171.59 424.682 171.962 424.982 172.475 425.415C173.219 426.033 174.264 426.933 175.681 428.203C179.152 431.318 185.05 433.365 190.072 435.457C190.709 435.721 191.303 435.986 191.861 436.26C192.277 436.463 192.675 436.666 193.047 436.86C197.156 439.066 198.458 441.183 198.759 442.719C199.043 444.201 198.405 445.145 198.405 445.145Z" fill="#0875F7"/>
<path d="M193.048 436.878C191.924 437.769 189.418 439.561 187.407 439.561C187.319 439.561 187.23 439.561 187.142 439.552C185.725 439.437 180.517 436.887 176.275 434.566C173.849 433.234 171.626 431.928 170.032 430.878C167.42 429.157 166.959 428.504 166.862 428.045C166.481 426.325 169.332 425.133 171.334 424.507C171.582 424.701 171.954 425.001 172.467 425.433C169.988 426.104 167.942 427.163 168.04 427.772C168.287 428.284 170.873 430.242 177.055 433.622C181.775 436.199 186.247 438.272 187.239 438.361C188.585 438.466 190.56 437.249 191.853 436.287C192.287 436.472 192.677 436.675 193.048 436.878Z" fill="#084FC7"/>
<path d="M198.401 445.143H154.698C154.37 444.552 154.193 443.723 154.122 442.726H198.764C199.039 444.199 198.401 445.143 198.401 445.143Z" fill="#084FC7"/>
<path d="M159.145 445.146H157.843C159.136 443.672 160.349 441.405 160.19 438.175C159.977 433.869 157.392 430.975 155.585 429.457C155.656 429.025 155.718 428.619 155.762 428.257C157.702 429.73 160.969 432.969 161.226 438.122C161.386 441.219 160.367 443.522 159.145 445.146Z" fill="#084FC7"/>
<path d="M174.934 430.781C174.615 430.781 174.314 430.56 174.235 430.234C174.137 429.846 174.376 429.457 174.757 429.36L177.485 428.681C177.874 428.584 178.264 428.822 178.362 429.201C178.459 429.59 178.22 429.978 177.839 430.075L175.111 430.755C175.058 430.781 174.996 430.781 174.934 430.781Z" fill="white"/>
<path d="M172.225 428.517C171.906 428.517 171.605 428.297 171.526 427.97C171.428 427.582 171.667 427.194 172.048 427.097L174.776 426.417C175.165 426.32 175.555 426.558 175.653 426.938C175.75 427.326 175.511 427.714 175.13 427.811L172.402 428.491C172.34 428.509 172.287 428.517 172.225 428.517Z" fill="white"/>
<path d="M177.671 432.368C177.352 432.368 177.051 432.147 176.971 431.821C176.874 431.433 177.113 431.044 177.493 430.947L180.221 430.268C180.611 430.171 181 430.409 181.098 430.788C181.195 431.177 180.956 431.565 180.575 431.662L177.848 432.341C177.786 432.359 177.724 432.368 177.671 432.368Z" fill="white"/>
<path d="M180.401 433.884C180.082 433.884 179.781 433.663 179.701 433.336C179.604 432.948 179.843 432.56 180.224 432.463L182.952 431.783C183.341 431.686 183.731 431.925 183.828 432.304C183.926 432.692 183.687 433.081 183.306 433.178L180.578 433.857C180.516 433.875 180.463 433.884 180.401 433.884Z" fill="white"/>
<path d="M183.368 435.291C183.049 435.291 182.748 435.07 182.668 434.744C182.571 434.355 182.81 433.967 183.191 433.879L185.918 433.199C186.308 433.102 186.698 433.341 186.795 433.72C186.893 434.108 186.653 434.497 186.273 434.594L183.545 435.273C183.483 435.282 183.43 435.291 183.368 435.291Z" fill="white"/>
<path d="M186.602 436.492C186.283 436.492 185.982 436.271 185.903 435.945C185.805 435.557 186.044 435.168 186.425 435.071L189.153 434.392C189.542 434.295 189.932 434.533 190.029 434.912C190.127 435.301 189.888 435.689 189.507 435.777L186.779 436.457C186.717 436.483 186.655 436.492 186.602 436.492Z" fill="white"/>
<path d="M38.7468 284.35C38.7468 284.35 38.2332 287.871 42.9622 288.859L92.2717 290.501C92.2717 290.501 95.6015 288.833 94.9993 284.721C94.9904 284.712 74.1703 273.064 38.7468 284.35Z" fill="#084FC7"/>
<path d="M92.9381 300.596C67.3446 314.626 39.3955 303.331 39.3955 303.331C40.7593 299.616 41.7777 295.425 42.5128 291.613C43.3629 287.174 43.8411 283.256 44.0625 281.2C54.9464 280.609 81.638 279.471 92.0968 281.942L92.1765 286.115L92.9381 300.596Z" fill="#EA9B7A"/>
<path d="M74.0279 293.875C73.8419 295.19 73.2397 296.195 72.6995 296.116C72.1505 296.037 71.8671 294.907 72.0531 293.592C72.239 292.278 72.8412 291.272 73.3814 291.351C73.9305 291.43 74.2227 292.56 74.0279 293.875Z" fill="#D96C63"/>
<path d="M92.1744 286.115C81.2729 285.454 59.8328 285.224 42.5107 291.604C43.3609 287.165 43.8391 283.248 44.0605 281.191C54.9444 280.6 81.6359 279.462 92.0947 281.933L92.1744 286.115Z" fill="#D96C63"/>
<path d="M104.334 265.944C104.228 266.262 104.104 266.553 103.971 266.826C103.918 266.932 103.865 267.038 103.812 267.135C102.439 269.668 100.323 271.865 98.5427 273.427C98.1707 273.753 97.8165 274.044 97.4889 274.309C96.8335 274.839 96.2756 275.253 95.8948 275.527C95.5406 275.774 95.3369 275.906 95.3369 275.906C95.3369 275.933 95.3369 275.95 95.328 275.986C95.3103 276.171 95.2926 276.374 95.2749 276.586C95.2129 277.389 95.1598 278.342 95.1243 279.436C95.0889 280.31 95.0623 281.271 95.0446 282.313C95.0358 283.08 95.0181 283.883 95.0092 284.713C80.5476 278.271 50.7565 282.339 38.7568 284.351C38.9782 283.319 39.173 282.304 39.359 281.315C40.2091 276.753 40.6873 272.65 40.8733 268.971C41.1567 263.5 40.6785 255.276 39.5095 246.778C39.4387 246.222 39.359 245.675 39.2793 245.128C39.2261 244.766 39.173 244.413 39.111 244.051C38.7036 241.387 38.2254 238.713 37.6852 236.119C35.3207 224.806 36.9767 212.938 48.4893 211.535C49.3218 211.429 50.1454 211.341 50.9513 211.252C56.3711 210.679 60.8344 210.476 62.0742 210.432C62.3045 210.423 62.4196 210.423 62.4196 210.423L84.6656 216.864L86.7821 217.473C87.9954 217.862 89.1201 218.241 90.1651 218.612C90.6078 218.77 91.0418 218.929 91.4491 219.079C92.5296 219.485 93.5037 219.873 94.3982 220.271C96.1782 221.056 97.5951 221.824 98.7021 222.609C103.582 226.059 102.829 229.959 102.705 237.663C102.705 237.698 102.705 237.733 102.705 237.769C102.705 237.866 102.705 237.963 102.705 238.069C102.705 238.113 102.705 238.157 102.705 238.201C102.705 238.519 102.705 238.828 102.705 239.145C102.714 240.142 102.749 241.131 102.811 242.119C102.891 243.575 103.024 245.022 103.183 246.434C103.245 246.999 103.307 247.563 103.378 248.128C103.44 248.658 103.511 249.178 103.582 249.699C104.441 256.432 105.548 262.344 104.334 265.944Z" fill="#0875F7"/>
<path d="M102.679 237.769C102.679 237.866 102.679 237.963 102.679 238.069C102.679 238.113 102.679 238.157 102.679 238.201C102.679 238.519 102.679 238.828 102.679 239.145L98.0033 242.066C97.8616 242.154 97.7022 242.181 97.5428 242.154C97.3657 242.128 97.2063 242.022 97.1 241.863C96.9052 241.554 97.0026 241.157 97.3037 240.963L102.263 237.866C102.396 237.778 102.537 237.751 102.679 237.769Z" fill="#084FC7"/>
<path d="M71.86 262.716C71.6829 262.716 71.5058 262.645 71.3729 262.504C71.1338 262.239 71.1515 261.824 71.4172 261.586L75.7655 257.686C76.0311 257.448 76.4474 257.465 76.6865 257.73C76.9256 257.995 76.9079 258.409 76.6422 258.648L72.294 262.548C72.17 262.663 72.0194 262.716 71.86 262.716Z" fill="#084FC7"/>
<path d="M103.546 249.69L100.57 252.363C100.446 252.478 100.287 252.531 100.136 252.531C99.9593 252.531 99.7822 252.461 99.6493 252.319C99.4102 252.055 99.4279 251.64 99.6936 251.402L103.342 248.128C103.413 248.649 103.484 249.169 103.546 249.69Z" fill="#084FC7"/>
<path d="M63.0375 247.033C62.9401 246.883 62.8958 246.698 62.9401 246.513C63.0198 246.16 63.374 245.948 63.7282 246.027L69.4225 247.369C69.7768 247.448 69.9893 247.801 69.9096 248.154C69.8299 248.507 69.4757 248.719 69.1215 248.639L63.4271 247.298C63.2589 247.254 63.126 247.157 63.0375 247.033Z" fill="#084FC7"/>
<path d="M42.7243 258.162C42.5472 258.162 42.37 258.091 42.2372 257.95C41.9981 257.685 42.0158 257.271 42.2815 257.032L46.6297 253.132C46.8954 252.894 47.3116 252.912 47.5507 253.176C47.7898 253.441 47.7721 253.856 47.5064 254.094L43.1582 257.994C43.0342 258.109 42.8748 258.162 42.7243 258.162Z" fill="#084FC7"/>
<path d="M93.3435 257.235C93.3966 257.068 93.5295 256.918 93.6977 256.847C94.0254 256.706 94.415 256.856 94.5567 257.182L96.8947 262.53C97.0364 262.856 96.8858 263.244 96.5581 263.386C96.2305 263.527 95.8408 263.377 95.6991 263.05L93.3612 257.703C93.2992 257.544 93.2903 257.385 93.3435 257.235Z" fill="#084FC7"/>
<path d="M104.333 265.944C104.227 266.262 104.103 266.553 103.97 266.826C103.917 266.932 103.863 267.038 103.81 267.135L100.631 266.138C100.472 266.085 100.348 265.979 100.268 265.847C100.179 265.697 100.144 265.503 100.206 265.326C100.312 264.982 100.684 264.797 101.021 264.903L104.333 265.944Z" fill="#084FC7"/>
<path d="M86.3725 266.412C86.5496 266.395 86.7356 266.448 86.8773 266.58C87.143 266.818 87.1607 267.233 86.9216 267.498L82.9896 271.813C82.7505 272.078 82.3343 272.095 82.0686 271.857C81.8029 271.619 81.7852 271.204 82.0243 270.939L85.9563 266.624C86.0714 266.492 86.222 266.421 86.3725 266.412Z" fill="#084FC7"/>
<path d="M84.0633 256.451C83.8862 256.424 83.7268 256.318 83.6205 256.159C83.4257 255.859 83.5231 255.454 83.8242 255.259L88.7835 252.162C89.0846 251.968 89.4919 252.065 89.6868 252.365C89.8816 252.665 89.7842 253.071 89.4831 253.265L84.5238 256.362C84.3732 256.451 84.2138 256.477 84.0633 256.451Z" fill="#084FC7"/>
<path d="M87.2164 237.671C87.3316 237.804 87.4024 237.98 87.3758 238.174C87.3404 238.527 87.0128 238.792 86.6585 238.748L80.8402 238.112C80.486 238.077 80.2203 237.751 80.2646 237.398C80.3 237.045 80.6277 236.78 80.9819 236.824L86.8002 237.459C86.9685 237.477 87.1102 237.557 87.2164 237.671Z" fill="#084FC7"/>
<path d="M78.7567 225.107C78.8009 224.93 78.9161 224.78 79.0843 224.692C79.4031 224.524 79.8016 224.639 79.9699 224.957L82.7418 230.092C82.9101 230.41 82.7949 230.807 82.4761 230.975C82.1573 231.143 81.7588 231.028 81.5905 230.71L78.8186 225.575C78.7389 225.416 78.7212 225.257 78.7567 225.107Z" fill="#084FC7"/>
<path d="M98.5319 273.428C98.1599 273.754 97.8057 274.046 97.478 274.31L96.7164 272.369C96.6544 272.21 96.6544 272.051 96.7164 271.901C96.7784 271.734 96.9112 271.593 97.0884 271.522C97.4249 271.39 97.8057 271.557 97.9385 271.884L98.5319 273.428Z" fill="#084FC7"/>
<path d="M45.044 263.553C44.9554 263.394 44.9377 263.209 45.0086 263.023C45.1325 262.688 45.5045 262.512 45.841 262.635L51.3494 264.612C51.6859 264.735 51.863 265.106 51.739 265.441C51.615 265.777 51.2431 265.953 50.9066 265.829L45.3982 263.853C45.2388 263.8 45.1237 263.685 45.044 263.553Z" fill="#084FC7"/>
<path d="M47.7417 270.966C47.9188 270.966 48.0959 271.045 48.2287 271.186C48.4678 271.451 48.4413 271.866 48.1756 272.104L43.7919 275.969C43.5263 276.207 43.11 276.181 42.8709 275.916C42.6318 275.651 42.6584 275.237 42.9241 274.998L47.3077 271.133C47.4317 271.019 47.5823 270.966 47.7417 270.966Z" fill="#084FC7"/>
<path d="M55.685 277.099C55.8001 277.24 55.8533 277.425 55.8178 277.61C55.7558 277.963 55.4193 278.202 55.0651 278.14L49.2999 277.16C48.9457 277.099 48.7066 276.763 48.7686 276.41C48.8306 276.057 49.1671 275.819 49.5213 275.881L55.2865 276.86C55.4459 276.896 55.5876 276.984 55.685 277.099Z" fill="#084FC7"/>
<path d="M60.5041 222.512C60.4598 222.345 60.4775 222.15 60.5838 221.992C60.7786 221.692 61.186 221.603 61.4871 221.798L66.4021 224.957C66.7032 225.151 66.7917 225.557 66.5969 225.857C66.4021 226.157 65.9947 226.245 65.6936 226.051L60.7786 222.892C60.6458 222.803 60.5484 222.662 60.5041 222.512Z" fill="#084FC7"/>
<path d="M94.0609 226.236C94.2203 226.148 94.4063 226.13 94.5923 226.192C94.9288 226.315 95.1059 226.686 94.9908 227.021L93.0336 232.519C92.9097 232.854 92.5377 233.03 92.2012 232.916C91.8647 232.792 91.6876 232.422 91.8027 232.086L93.7598 226.589C93.813 226.439 93.9192 226.315 94.0609 226.236Z" fill="#084FC7"/>
<path d="M91.4292 219.079L88.4094 222.944C88.188 223.226 87.7806 223.279 87.4972 223.059C87.2138 222.838 87.1607 222.432 87.3821 222.15L90.1451 218.62C90.5879 218.77 91.013 218.92 91.4292 219.079Z" fill="#084FC7"/>
<path d="M61.8799 272.415C61.9419 272.6 62.1013 272.732 62.2784 272.768C62.3669 272.785 62.4644 272.785 62.5529 272.75C62.6503 272.715 72.1173 269.661 82.0712 273.774C87.1279 275.865 91.6267 276.659 95.2665 276.588C95.2842 276.377 95.3019 276.182 95.3196 275.988C95.3196 275.962 95.3285 275.935 95.3285 275.918C95.3285 275.918 95.5322 275.785 95.8864 275.538C92.3086 275.715 87.7301 274.956 82.4786 272.794C72.1438 268.523 62.6149 271.612 62.2164 271.744C61.9419 271.832 61.7913 272.132 61.8799 272.415Z" fill="#084FC7"/>
<path d="M84.6459 216.865C83.3972 218.789 80.829 220.969 75.6218 220.598C68.4397 220.077 63.7107 213.247 62.0635 210.441C62.2849 210.433 62.4089 210.433 62.4089 210.433L84.6459 216.865Z" fill="#084FC7"/>
<path d="M77.0035 229.527C77.216 229.571 77.4286 229.597 77.6411 229.615C79.6248 229.774 81.2366 229.2 82.4233 227.912C85.8771 224.153 84.4601 215.576 84.3981 215.214C84.345 214.923 84.0705 214.729 83.7871 214.782C83.4948 214.835 83.3 215.108 83.3531 215.391C83.3708 215.479 84.7435 223.818 81.644 227.197C80.6787 228.247 79.3946 228.697 77.7385 228.565C70.7778 228.009 62.9758 210.387 62.8961 210.211C62.781 209.946 62.4622 209.823 62.1965 209.937C61.9308 210.052 61.8068 210.37 61.922 210.635C62.2319 211.367 69.6265 228.044 77.0035 229.527Z" fill="white"/>
<path d="M98.6865 222.608C98.226 227.691 99.4836 236.083 102.778 242.118C102.698 240.812 102.663 239.507 102.681 238.201C102.681 238.156 102.681 238.112 102.681 238.068C102.681 237.936 102.689 237.803 102.689 237.671C102.813 229.959 103.566 226.059 98.6865 222.608Z" fill="#EA9B7A"/>
<path d="M57.7709 231.558C55.2205 241.37 45.8864 249.242 39.5102 246.788C39.4304 246.241 39.3596 245.685 39.2799 245.138C39.2268 244.777 39.1736 244.424 39.1205 244.062C38.7131 241.397 38.2349 238.723 37.6947 236.129C35.3302 224.816 36.9951 212.948 48.4989 211.545C49.3313 211.439 50.1549 211.351 50.9608 211.263C56.6994 213.707 60.7022 220.254 57.7709 231.558Z" fill="#EA9B7A"/>
<path d="M59.0812 224.075L74.0299 278.555L68.6986 272.431C70.6735 273.473 72.9583 274.284 75.4911 274.849C78.015 275.414 80.778 275.74 83.6562 275.89C86.5432 276.04 89.5453 276.014 92.6183 275.89C95.6913 275.767 98.8351 275.537 102.023 275.264H102.041C106.743 274.867 110.879 278.335 111.278 283.02C111.658 287.485 108.479 291.447 104.104 292.153C100.819 292.674 97.4713 293.168 94.0441 293.565C90.6169 293.962 87.1011 294.253 83.4525 294.342C79.8127 294.421 76.0401 294.289 72.1435 293.724C68.2558 293.159 64.2176 292.153 60.2678 290.45C57.7439 289.365 55.9462 287.3 55.1226 284.891L54.9366 284.326L36.9946 230.746C34.9755 224.728 38.2433 218.216 44.283 216.204C50.3227 214.193 56.8583 217.449 58.8775 223.467C58.9572 223.652 59.028 223.881 59.0812 224.075Z" fill="#EA9B7A"/>
<path d="M65.7755 276.807C65.625 276.807 65.4744 276.728 65.3947 276.586C65.2707 276.375 65.3504 276.11 65.563 275.986C65.7047 275.907 68.9725 274.072 72.3908 273.807C72.6388 273.789 72.8513 273.966 72.8691 274.213C72.8868 274.46 72.7097 274.672 72.4617 274.689C69.247 274.936 66.0323 276.736 66.0058 276.754C65.9261 276.789 65.8464 276.807 65.7755 276.807Z" fill="#D96C63"/>
<path d="M71.2047 274.839C71.125 274.839 71.0453 274.821 70.9744 274.777C68.911 273.533 66.4137 273.339 66.3871 273.339C66.1391 273.321 65.962 273.109 65.9797 272.871C65.9974 272.624 66.2011 272.447 66.4491 272.465C66.5554 272.474 69.1856 272.668 71.4261 274.027C71.6386 274.15 71.7006 274.424 71.5766 274.636C71.5058 274.759 71.3552 274.839 71.2047 274.839Z" fill="#D96C63"/>
<path d="M84.5405 246.127C91.1559 247.459 94.0517 240.647 94.0783 240.577C94.1934 240.303 94.0606 239.994 93.7861 239.888C93.5115 239.774 93.2016 239.906 93.0953 240.18C92.989 240.436 90.4917 246.251 84.7531 245.095C78.7222 243.877 67.4753 232.061 67.369 231.938C67.1653 231.726 66.8288 231.717 66.6163 231.92C66.4037 232.123 66.3949 232.459 66.5986 232.67C67.0591 233.156 78.182 244.839 84.5405 246.127Z" fill="#084FC7"/>
<path d="M74.1325 203.213C74.1325 203.213 63.5143 201.219 60.5211 190.542C57.6695 180.376 59.8657 175.1 62.8324 169.611C65.0641 165.473 72.1488 159.887 82.0762 161.89C92.1011 163.911 99.602 169.046 100.709 177.261C102.781 192.633 90.3299 211.384 74.1325 203.213Z" fill="#39393B"/>
<path d="M61.0271 192.191C60.8322 192.191 60.6463 192.094 60.5489 191.909C60.354 191.574 55.8907 183.57 59.6013 173.034C61.9215 166.452 66.4823 163.513 69.9095 162.198C73.6113 160.778 76.7197 160.919 76.8525 160.919C77.1536 160.937 77.3927 161.192 77.375 161.501C77.3573 161.801 77.1093 162.04 76.7994 162.022C76.7728 162.022 73.753 161.898 70.2637 163.24C65.6233 165.031 62.3909 168.446 60.6463 173.396C57.1128 183.438 61.4699 191.283 61.5141 191.362C61.6647 191.627 61.5761 191.962 61.3105 192.112C61.213 192.165 61.1156 192.191 61.0271 192.191Z" fill="#FAAF3A"/>
<path d="M94.7394 192.37C94.7394 192.37 98.1932 189.652 99.1053 193.253C100.017 196.853 97.4493 203.25 93.4287 201.309L94.7394 192.37Z" fill="#D96C63"/>
<path d="M91.3601 198.975C89.642 199.54 88.1277 201.057 87.738 202.937C87.1712 205.743 88.9955 208.478 91.8028 209.052C94.619 209.617 97.3643 207.799 97.94 205.002C98.365 202.902 97.4529 200.837 95.7791 199.699C95.2212 199.31 94.5747 199.037 93.8663 198.896C93.8486 198.896 93.8308 198.887 93.8131 198.887C93.7157 199.24 93.7511 199.522 93.9548 199.743C94.5216 199.893 95.0352 200.149 95.4869 200.484C96.7887 201.472 97.4883 203.14 97.1429 204.843C96.6647 207.208 94.3356 208.743 91.9623 208.267C89.5889 207.79 88.048 205.469 88.5262 203.105C88.8804 201.384 90.1557 200.166 91.7586 199.778L91.3601 198.975Z" fill="#FAAF3A"/>
<path d="M84.2647 207.792L82.8212 216.81C82.8212 216.81 76.0464 223.702 63.6748 211.339C66.9958 208.877 68.2621 203.159 67.8725 199.471C67.8725 199.471 68.8466 200.053 70.3521 201.412C70.6444 201.677 71.0252 201.88 71.3883 202.136C74.6561 204.342 79.6685 207.227 84.2647 207.792Z" fill="#EA9B7A"/>
<path d="M84.2641 207.789L83.5822 212.06C79.8716 210.41 73.3094 206.889 70.3516 201.4C70.6704 201.63 71.0246 201.868 71.3877 202.124C74.6555 204.339 79.6679 207.224 84.2641 207.789Z" fill="#39393B"/>
<path d="M98.0831 190.188C97.8883 191.141 97.7112 192.049 97.5252 192.914C97.3304 193.849 97.1444 194.732 96.9584 195.561C95.5858 201.8 94.4611 205.144 92.6368 206.397C83.4001 212.724 68.3717 199.912 67.8846 199.497C67.8758 199.488 67.8758 199.488 67.8758 199.488C67.8669 198.756 67.8669 198.023 67.8758 197.309C67.9909 191.238 69.027 185.784 70.6742 180.746C71.4978 175.24 75.7841 170.827 81.3013 169.998C87.0222 169.142 91.3261 172.442 94.0183 173.898C98.0831 176.104 99.6683 182.237 98.0831 190.188Z" fill="#EA9B7A"/>
<path d="M70.9828 175.081C70.9828 175.081 77.4476 162.692 90.3417 166.151C103.236 169.61 103.918 175.575 104.148 178.557C104.378 181.54 97.4707 176.254 97.4707 176.254C97.4707 176.254 97.2316 182.219 94.929 180.384C92.104 178.125 88.9513 173.263 88.9513 173.263C88.9513 173.263 81.2733 180.781 73.9761 178.751C69.8315 177.604 70.9828 175.081 70.9828 175.081Z" fill="#39393B"/>
<path d="M86.8292 202.338C85.1555 202.338 84.0042 201.182 83.9511 201.12C83.774 200.935 83.774 200.644 83.9599 200.467C84.1459 200.291 84.4293 200.291 84.6064 200.476C84.6684 200.538 85.9968 201.853 87.7503 201.253C87.9894 201.173 88.255 201.297 88.3347 201.535C88.4144 201.773 88.2905 202.038 88.0514 202.117C87.6174 202.276 87.21 202.338 86.8292 202.338Z" fill="#D96C63"/>
<path d="M82.9654 194.838C82.9654 194.838 89.1822 196.673 92.4057 196.673C92.4057 196.673 90.794 201.262 86.1889 199.656C82.6023 198.412 82.9654 194.838 82.9654 194.838Z" fill="white"/>
<path d="M94.5223 181.945C94.5223 181.945 92.9106 181.777 93.1674 183.339C93.4331 184.901 96.9311 183.948 98.6669 187.071C98.658 187.071 100.332 183.789 94.5223 181.945Z" fill="#39393B"/>
<path d="M87.3366 180.49C87.3366 180.49 88.8864 180.967 88.0362 182.299C87.1861 183.632 84.3345 181.399 81.5183 183.605C81.5183 183.605 81.2526 179.943 87.3366 180.49Z" fill="#39393B"/>
<path d="M84.5263 191.681C84.3757 192.413 82.7285 192.704 80.8511 192.325C78.9736 191.945 77.5744 191.045 77.725 190.304C77.8755 189.572 79.5138 189.28 81.4001 189.66C83.2776 190.039 84.6768 190.939 84.5263 191.681Z" fill="#D96C63"/>
<path d="M102.885 192.166L97.8635 191.311C97.8369 191.522 97.7838 191.734 97.7395 191.937C97.7307 191.972 97.7218 192.008 97.7041 192.034L102.761 192.89C102.964 192.925 103.159 192.784 103.195 192.581C103.221 192.387 103.097 192.193 102.885 192.166Z" fill="white"/>
<path d="M89.4723 187.881C89.4723 187.625 89.4634 187.369 89.428 187.122C89.2597 185.763 88.6575 184.51 87.7365 183.539C86.8864 182.648 85.7794 181.995 84.4953 181.713C84.4776 181.704 84.451 181.704 84.4333 181.695C81.4932 181.095 78.5973 182.63 77.4017 185.242C77.2955 185.472 77.2069 185.701 77.1272 185.939C77.0564 186.151 77.0032 186.372 76.9501 186.592C76.6136 188.234 76.9412 189.857 77.7648 191.181C78.0394 191.631 78.3847 192.046 78.7655 192.407C79.598 193.21 80.6518 193.793 81.8651 194.04C83.9108 194.463 85.9211 193.846 87.3646 192.557C88.3387 191.693 89.0561 190.51 89.3394 189.143C89.3394 189.134 89.3394 189.134 89.3394 189.125C89.428 188.71 89.4723 188.295 89.4723 187.881ZM82.0156 193.316C81.9802 193.307 81.9537 193.307 81.9271 193.299C80.3419 192.946 79.0578 191.94 78.305 190.625C77.6586 189.487 77.4017 188.128 77.6851 186.751C77.7471 186.469 77.8268 186.195 77.9242 185.931C77.9331 185.913 77.9419 185.895 77.9419 185.878C78.7301 183.839 80.6518 182.454 82.8127 182.33C83.2909 182.304 83.778 182.33 84.2739 182.436C85.3366 182.657 86.2576 183.16 86.9926 183.857C88.3387 185.136 89.0118 187.06 88.6133 189.001C87.9845 191.993 85.0266 193.934 82.0156 193.316Z" fill="white"/>
<path d="M100.729 185.304C100.561 185.216 100.384 185.136 100.198 185.057C99.985 184.969 99.7636 184.898 99.5422 184.827C99.3828 184.783 99.2323 184.739 99.064 184.713C98.7629 184.651 98.4707 184.616 98.1784 184.598C97.8242 184.571 97.4699 184.58 97.1246 184.624C96.1593 184.73 95.2471 185.048 94.4412 185.551C93.5557 186.098 92.8029 186.866 92.2893 187.792C92.1476 188.03 92.0324 188.278 91.9262 188.525C91.9173 188.542 91.9173 188.551 91.9085 188.569C91.7756 188.904 91.6694 189.257 91.5897 189.619C91.0849 192.054 92.0679 194.454 93.9187 195.884C94.5209 196.352 95.2117 196.713 95.9733 196.934C96.0884 196.969 96.2036 197.005 96.3275 197.022C96.3895 197.04 96.4427 197.049 96.5047 197.066C97.1157 197.19 97.7268 197.225 98.3201 197.172C98.4175 197.163 98.515 197.155 98.6035 197.146C98.8603 197.11 99.1171 197.066 99.374 196.996C99.8433 196.872 100.304 196.696 100.729 196.475C102.35 195.628 103.589 194.093 103.988 192.169C104.564 189.354 103.164 186.583 100.729 185.304ZM103.253 192.01C103.226 192.134 103.2 192.248 103.164 192.363C103.12 192.531 103.067 192.69 103.005 192.857C102.562 194.031 101.747 194.984 100.72 195.61C100.348 195.84 99.9407 196.025 99.5157 196.166C99.25 196.254 98.9843 196.316 98.7009 196.36C98.6212 196.378 98.5415 196.387 98.4618 196.396C97.8773 196.466 97.2663 196.449 96.6552 196.325C96.6021 196.316 96.5401 196.299 96.487 196.29C96.4515 196.281 96.4161 196.272 96.3895 196.263C95.4951 196.034 94.6981 195.593 94.0516 195.001C93.9542 194.913 93.8656 194.825 93.7771 194.737C92.5461 193.466 91.9439 191.622 92.3247 189.76C92.4133 189.345 92.5461 188.939 92.7143 188.569C93.2723 187.351 94.2464 186.407 95.4243 185.851C96.1504 185.507 96.9563 185.321 97.7888 185.321C97.9216 185.321 98.0544 185.33 98.1961 185.339C98.4352 185.357 98.6744 185.392 98.9135 185.436C99.0906 185.471 99.2588 185.516 99.4271 185.569C99.6574 185.639 99.8787 185.727 100.1 185.824C100.268 185.904 100.437 185.992 100.605 186.08C102.606 187.263 103.749 189.619 103.253 192.01Z" fill="white"/>
<path d="M69.4016 186.384C69.3574 186.376 69.3131 186.358 69.2777 186.331C69.1005 186.217 69.0563 185.987 69.1625 185.82C71.6776 181.902 77.7262 185.423 77.7793 185.458C77.9564 185.564 78.0184 185.793 77.9121 185.97C77.8059 186.146 77.5756 186.208 77.3985 186.102C77.3454 186.067 71.9167 182.917 69.7913 186.226C69.7027 186.358 69.5433 186.411 69.4016 186.384Z" fill="white"/>
<path d="M92.1935 188.742C92.0961 188.724 92.0164 188.662 91.9544 188.583C91.1486 187.348 89.4305 187.904 89.4128 187.904C89.218 187.965 89.0054 187.859 88.9434 187.665C88.8815 187.471 88.9877 187.259 89.1826 187.198C89.9707 186.933 91.6976 186.801 92.5921 188.177C92.7072 188.354 92.6541 188.583 92.4769 188.689C92.3884 188.742 92.2821 188.76 92.1935 188.742Z" fill="white"/>
<g opacity="0.8">
<g opacity="0.8">
<g opacity="0.8">
<g opacity="0.8">
<g opacity="0.8">
<g opacity="0.8">
<g opacity="0.8">
<path opacity="0.8" d="M97.5199 192.917C97.325 193.852 97.1391 194.734 96.9531 195.564C95.2439 195.149 94.013 194.311 94.1547 193.614C94.2963 192.925 95.7753 192.634 97.5199 192.917Z" fill="#D96C63"/>
</g>
</g>
</g>
</g>
</g>
</g>
</g>
<path d="M85.842 187.973C85.6383 188.988 85.0096 189.712 84.4428 189.597C83.876 189.482 83.5838 188.573 83.7875 187.558C83.9911 186.544 84.6199 185.82 85.1867 185.935C85.7535 186.05 86.0546 186.967 85.842 187.973Z" fill="#39393B"/>
<path d="M95.8899 190.003C95.6862 191.018 95.0574 191.742 94.4906 191.627C93.9239 191.512 93.6316 190.603 93.8353 189.589C94.039 188.574 94.6678 187.85 95.2345 187.965C95.8013 188.08 96.1024 188.989 95.8899 190.003Z" fill="#39393B"/>
<path d="M90.7071 192.721C91.1942 192.818 91.5395 192.8 91.5661 192.8C91.6812 192.791 91.7964 192.738 91.8761 192.65C91.9558 192.562 91.9823 192.438 91.9735 192.324L91.327 187.603C91.2916 187.373 91.079 187.206 90.8488 187.241C90.6185 187.276 90.4503 187.488 90.4857 187.718L91.0613 191.927C90.6362 191.865 89.9986 191.688 89.423 191.212C89.2459 191.062 88.9713 191.088 88.8208 191.265C88.6702 191.441 88.6968 191.715 88.8739 191.865C89.5027 192.377 90.1846 192.615 90.7071 192.721Z" fill="#39393B"/>
<path d="M72.02 196.065C71.9492 196.171 69.9832 198.986 67.8843 199.498C67.8755 199.489 67.8755 199.489 67.8755 199.489C67.8577 198.757 67.8666 198.024 67.8755 197.31C67.9463 197.31 69.9566 197.363 72.02 196.065Z" fill="#39393B"/>
<path d="M71.5959 188.66C71.5959 188.66 68.6381 182.413 64.8035 186.075C61.6419 189.101 64.405 199.196 69.8956 197.034L71.5959 188.66Z" fill="#EA9B7A"/>
<path d="M64.3288 194.052C62.6108 194.617 61.0964 196.135 60.7068 198.014C60.14 200.82 61.9643 203.556 64.7716 204.129C67.5878 204.694 70.3331 202.876 70.9087 200.079C71.3338 197.979 70.4216 195.914 68.7479 194.776C68.1899 194.387 67.5435 194.114 66.835 193.973C66.8173 193.973 66.7996 193.964 66.7819 193.964C66.6845 194.317 66.7287 194.599 66.9236 194.82C67.4903 194.97 68.004 195.226 68.4556 195.561C69.7574 196.549 70.457 198.217 70.1117 199.92C69.6335 202.285 67.3044 203.82 64.931 203.344C62.5576 202.867 61.0167 200.547 61.4949 198.182C61.8403 196.461 63.1244 195.243 64.7273 194.855L64.3288 194.052Z" fill="#FAAF3A"/>
<path d="M69.6655 195.297C69.6832 195.297 69.692 195.306 69.7097 195.306C69.94 195.323 70.1525 195.156 70.1702 194.917C70.6042 190.196 67.0264 187.805 66.8759 187.708C66.681 187.576 66.4154 187.637 66.2825 187.832C66.1497 188.026 66.2117 188.29 66.4065 188.423C66.5393 188.511 69.7097 190.646 69.3201 194.847C69.3024 195.059 69.4529 195.253 69.6655 195.297Z" fill="#39393B"/>
<path d="M66.2844 191.989C66.3729 192.007 66.4792 191.998 66.5678 191.945C66.9928 191.725 68.2415 191.23 68.9234 191.557C69.136 191.663 69.3928 191.575 69.4902 191.363C69.5965 191.151 69.5079 190.895 69.2954 190.798C68.1087 190.224 66.3729 191.098 66.1781 191.204C65.9656 191.31 65.8859 191.566 66.001 191.778C66.0541 191.883 66.1604 191.963 66.2844 191.989Z" fill="#39393B"/>
<path d="M75.3992 178.063C75.3992 178.063 71.4229 188.82 71.2103 190.991C70.9181 193.947 66.9949 183.817 70.9358 175.169L75.3992 178.063Z" fill="#39393B"/>
<path d="M141.829 406.122H125.455C125.455 406.122 121.664 388.016 120.398 377.868C119.123 367.711 118.467 343.648 118.467 343.648C118.467 343.648 105.423 347.875 78.1111 346.278C17.599 342.757 40.5446 298.46 40.5446 298.46C42.5903 301.275 57.9286 305.149 66.4834 306.499C92.7587 309.014 112.729 313.461 126.402 319.338C129.697 320.75 132.619 322.25 135.187 323.829C138.482 325.85 140.545 332 141.794 340.074C145.522 364.34 141.829 406.122 141.829 406.122Z" fill="#39393B"/>
<path d="M127.489 397.397C127.214 397.397 126.975 397.203 126.913 396.929C124.548 385.281 123.76 370.783 123.123 359.136C122.591 349.473 122.095 340.349 120.847 339.255C119.837 338.364 115.648 339.061 110.353 339.934C99.8052 341.682 83.8647 344.311 66.2946 340.243C56.7214 338.02 49.681 333.387 45.3771 326.469C37.947 314.539 41.3388 299.741 41.3742 299.591C41.4451 299.273 41.7639 299.079 42.0827 299.158C42.4015 299.229 42.5963 299.547 42.5166 299.864C42.4812 300.006 39.2134 314.345 46.3867 325.86C50.5223 332.505 57.3148 336.961 66.5692 339.105C83.9178 343.129 99.7166 340.517 110.175 338.787C116.437 337.755 120.218 337.128 121.644 338.381C123.185 339.74 123.619 346.411 124.309 359.074C124.947 370.686 125.735 385.131 128.082 396.7C128.144 397.017 127.94 397.326 127.621 397.388C127.568 397.388 127.524 397.397 127.489 397.397Z" fill="#585859"/>
<path d="M142.147 397.704H142.138L123.93 397.315C123.603 397.307 123.346 397.042 123.355 396.715C123.364 396.389 123.629 396.133 123.957 396.142L142.165 396.53C142.492 396.539 142.749 396.804 142.74 397.13C142.722 397.448 142.457 397.704 142.147 397.704Z" fill="#585859"/>
<path d="M141.381 427.021H129.833L127.601 413.512L126.388 406.126H140.743L140.964 413.512L141.381 427.021Z" fill="#EA9B7A"/>
<path d="M141.377 427.019H129.829L128.164 416.96L127.598 413.51H140.961L141.076 417.092L141.377 427.019Z" fill="#FAAF3A"/>
<path d="M141.076 417.092L128.164 416.96L127.598 413.51H140.961L141.076 417.092Z" fill="#C77E2E"/>
<path d="M169.895 445.205H126.192C125.864 444.614 125.687 443.784 125.616 442.787C125.342 439.099 126.519 433.222 127.095 429.516C127.166 429.084 127.228 428.678 127.272 428.316C127.352 427.698 127.405 427.178 127.405 426.798C127.405 423.771 130.088 424.292 130.088 424.292C134.507 428.616 139.52 422.139 142.442 424.257C142.442 424.257 142.557 424.345 142.832 424.548C143.08 424.742 143.452 425.042 143.965 425.474C144.709 426.092 145.754 426.992 147.171 428.263C150.643 431.378 156.541 433.425 161.562 435.516C162.2 435.781 162.793 436.046 163.351 436.319C163.767 436.522 164.166 436.725 164.538 436.919C168.647 439.125 169.948 441.243 170.25 442.778C170.542 444.261 169.895 445.205 169.895 445.205Z" fill="#0875F7"/>
<path d="M164.551 436.929C163.427 437.82 160.92 439.612 158.91 439.612C158.822 439.612 158.733 439.611 158.645 439.603C157.228 439.488 152.02 436.938 147.778 434.617C145.352 433.285 143.129 431.979 141.535 430.929C138.923 429.208 138.462 428.555 138.365 428.096C137.984 426.375 140.835 425.184 142.837 424.558C143.085 424.752 143.457 425.052 143.97 425.484C141.491 426.155 139.445 427.214 139.542 427.814C139.79 428.326 142.376 430.284 148.558 433.664C153.278 436.241 157.75 438.314 158.742 438.403C160.088 438.508 162.063 437.291 163.356 436.329C163.781 436.523 164.179 436.726 164.551 436.929Z" fill="#084FC7"/>
<path d="M169.891 445.206H126.187C125.859 444.615 125.682 443.785 125.611 442.788H170.254C170.537 444.262 169.891 445.206 169.891 445.206Z" fill="#084FC7"/>
<path d="M130.662 445.207H129.36C130.653 443.733 131.866 441.465 131.707 438.236C131.494 433.93 128.908 431.035 127.102 429.517C127.172 429.085 127.234 428.679 127.279 428.317C129.218 429.791 132.486 433.029 132.743 438.183C132.902 441.271 131.884 443.574 130.662 445.207Z" fill="#084FC7"/>
<path d="M146.441 430.838C146.122 430.838 145.821 430.617 145.742 430.291C145.644 429.902 145.883 429.514 146.264 429.417L148.992 428.738C149.381 428.64 149.771 428.879 149.868 429.258C149.966 429.646 149.727 430.035 149.346 430.132L146.618 430.811C146.556 430.829 146.503 430.838 146.441 430.838Z" fill="white"/>
<path d="M143.728 428.57C143.401 428.57 143.108 428.35 143.029 428.023C142.931 427.635 143.17 427.246 143.551 427.149L146.279 426.47C146.668 426.373 147.058 426.611 147.155 426.991C147.253 427.379 147.014 427.767 146.633 427.864L143.905 428.544C143.843 428.561 143.781 428.57 143.728 428.57Z" fill="white"/>
<path d="M149.167 432.418C148.848 432.418 148.547 432.197 148.467 431.871C148.37 431.482 148.609 431.094 148.99 430.997L151.717 430.318C152.107 430.221 152.496 430.459 152.594 430.838C152.691 431.226 152.452 431.615 152.071 431.712L149.344 432.391C149.291 432.409 149.229 432.418 149.167 432.418Z" fill="white"/>
<path d="M151.894 433.935C151.575 433.935 151.274 433.715 151.195 433.388C151.097 433 151.336 432.612 151.717 432.523L154.445 431.844C154.834 431.747 155.224 431.985 155.321 432.365C155.419 432.753 155.18 433.141 154.799 433.238L152.071 433.918C152.009 433.935 151.947 433.935 151.894 433.935Z" fill="white"/>
<path d="M154.87 435.348C154.551 435.348 154.25 435.128 154.17 434.801C154.073 434.413 154.312 434.025 154.693 433.937L157.42 433.257C157.81 433.16 158.2 433.398 158.297 433.778C158.394 434.166 158.155 434.554 157.775 434.651L155.047 435.331C154.985 435.34 154.923 435.348 154.87 435.348Z" fill="white"/>
<path d="M158.099 436.539C157.772 436.539 157.479 436.318 157.4 435.992C157.302 435.603 157.541 435.215 157.922 435.118L160.65 434.439C161.039 434.342 161.429 434.58 161.527 434.959C161.624 435.348 161.385 435.736 161.004 435.833L158.276 436.512C158.214 436.539 158.161 436.539 158.099 436.539Z" fill="white"/>
<path d="M202.142 297.798V301.416C202.142 303.499 200.884 305.184 199.326 305.184H3.19507C1.63644 305.184 0.378906 303.499 0.378906 301.416V297.798C0.378906 295.716 1.63644 294.03 3.19507 294.03H199.317C200.884 294.03 202.142 295.716 202.142 297.798Z" fill="#F47E20"/>
<path d="M202.142 298.947H0.378906V300.606H202.142V298.947Z" fill="#FBAA1C"/>
<path d="M196.25 314.475H11.8882C11.0646 314.475 10.3916 313.804 10.3916 312.983V305.13H197.737V312.983C197.737 313.804 197.073 314.475 196.25 314.475Z" fill="#FBAA1C"/>
<path d="M187.964 360.574H23.0947V366.98H187.964V360.574Z" fill="#FBAA1C"/>
<path d="M11.2115 446.345L43.1281 314.478H31.9165L0 446.345H11.2115Z" fill="#F47E20"/>
<path d="M199.637 446.345L167.721 314.478H178.932L210.849 446.345H199.637Z" fill="#F47E20"/>
<path d="M18.286 263.721L14.8281 264.249L18.825 290.251L22.2828 289.723L18.286 263.721Z" fill="#FAAF3A"/>
<path d="M18.2908 263.712L14.8281 264.241L15.5897 261.612L15.9882 260.244L16.7764 261.427L18.2908 263.712Z" fill="#EA9B7A"/>
<path d="M21.9901 287.828L18.5322 288.355L18.8231 290.248L22.281 289.721L21.9901 287.828Z" fill="#39393B"/>
<path d="M22.283 291.251L19.2808 291.71C19.1568 291.728 19.0329 291.64 19.0151 291.516L18.8203 290.236L22.283 289.707L22.4778 290.987C22.5043 291.119 22.4158 291.234 22.283 291.251Z" fill="#DF615C"/>
<path d="M16.7785 261.427L15.5918 261.612L15.9903 260.244L16.7785 261.427Z" fill="#39393B"/>
<path d="M21.786 286.474L18.3281 287.002L18.5359 288.354L21.9938 287.826L21.786 286.474Z" fill="#C77E2E"/>
<path d="M15.8901 265.397L18.848 284.651C18.8745 284.792 19.0074 284.898 19.1491 284.872C19.2908 284.845 19.397 284.713 19.3705 284.572L16.4126 265.317C16.386 265.176 16.2532 265.07 16.1115 265.097C15.961 265.114 15.8635 265.247 15.8901 265.397Z" fill="#C77E2E"/>
<path d="M17.2394 265.184L20.1972 284.438C20.2238 284.579 20.3566 284.685 20.4983 284.659C20.6489 284.632 20.7463 284.5 20.7197 284.359L17.7619 265.105C17.7353 264.963 17.6025 264.857 17.4608 264.884C17.3191 264.902 17.2217 265.043 17.2394 265.184Z" fill="#C77E2E"/>
<path d="M24.5401 263.839L21.042 263.851L21.1288 290.155L24.6269 290.144L24.5401 263.839Z" fill="#21B573"/>
<path d="M24.5479 263.835L21.041 263.844L22.1923 261.356L22.7856 260.067L23.379 261.347L24.5479 263.835Z" fill="#EA9B7A"/>
<path d="M24.626 288.23L21.1279 288.241L21.1342 290.156L24.6323 290.145L24.626 288.23Z" fill="#39393B"/>
<path d="M24.4084 291.657L21.3709 291.666C21.238 291.666 21.1406 291.56 21.1406 291.437V290.148L24.6387 290.14V291.428C24.6387 291.56 24.5324 291.657 24.4084 291.657Z" fill="#DF615C"/>
<path d="M23.382 261.347L22.1953 261.356L22.7887 260.067L23.382 261.347Z" fill="#39393B"/>
<path d="M24.6211 286.863L21.123 286.874L21.1276 288.242L24.6256 288.23L24.6211 286.863Z" fill="#217C58"/>
<path d="M21.9219 265.14L21.9839 284.614C21.9839 284.764 22.1078 284.879 22.2495 284.879C22.4001 284.879 22.5152 284.756 22.5152 284.614L22.4532 265.14C22.4532 264.99 22.3292 264.875 22.1876 264.875C22.037 264.875 21.9219 264.99 21.9219 265.14Z" fill="#217C58"/>
<path d="M23.2949 265.132L23.3569 284.607C23.3569 284.757 23.4809 284.871 23.6226 284.871C23.7731 284.871 23.8883 284.748 23.8883 284.607L23.8263 265.132C23.8263 264.982 23.7023 264.867 23.5606 264.867C23.41 264.867 23.2949 264.982 23.2949 265.132Z" fill="#217C58"/>
<path d="M27.1248 263.704L23.4131 289.748L26.8765 290.238L30.5882 264.194L27.1248 263.704Z" fill="#0875F7"/>
<path d="M30.5916 264.207L27.1201 263.713L28.6168 261.41L29.3872 260.219L29.8034 261.578L30.5916 264.207Z" fill="#EA9B7A"/>
<path d="M27.1548 288.362L23.6914 287.872L23.4212 289.768L26.8846 290.258L27.1548 288.362Z" fill="#39393B"/>
<path d="M26.4297 291.72L23.4276 291.296C23.3036 291.279 23.215 291.164 23.2327 291.031L23.4187 289.752L26.8813 290.246L26.6954 291.526C26.6777 291.649 26.5625 291.737 26.4297 291.72Z" fill="#DF615C"/>
<path d="M29.8058 261.578L28.6191 261.41L29.3896 260.219L29.8058 261.578Z" fill="#39393B"/>
<path d="M23.8806 286.502L23.6875 287.856L27.1509 288.347L27.344 286.993L23.8806 286.502Z" fill="#084FC7"/>
<path d="M27.805 265.124L25.0597 284.405C25.042 284.555 25.1394 284.687 25.2899 284.705C25.4405 284.722 25.5733 284.625 25.591 284.475L28.3364 265.195C28.3541 265.045 28.2567 264.912 28.1061 264.895C27.9644 264.877 27.8227 264.974 27.805 265.124Z" fill="#084FC7"/>
<path d="M29.1536 265.308L26.4083 284.588C26.3906 284.738 26.488 284.87 26.6386 284.888C26.7891 284.906 26.922 284.809 26.9397 284.659L29.685 265.378C29.7027 265.228 29.6053 265.096 29.4547 265.078C29.313 265.06 29.1714 265.166 29.1536 265.308Z" fill="#084FC7"/>
<path d="M31.7226 274.237L31.5454 275.649L31.3772 276.929L31.1204 278.879L30.961 280.141L30.7041 282.108L30.5447 283.353L30.2879 285.329L30.1285 286.565L29.8717 288.559L29.7123 289.776L29.4466 291.788L29.2961 292.988L29.1632 294.03H15.4012L15.2684 292.988L15.109 291.788L14.8521 289.776L14.6927 288.559L14.4359 286.565L14.2765 285.329L14.0197 283.353L13.8514 282.108L13.6035 280.141L13.4352 278.879L13.1872 276.929L13.019 275.649L12.833 274.237H31.7226Z" fill="#DF615C"/>
<path d="M31.546 275.649L31.3777 276.929H13.1878L13.0195 275.649H31.546Z" fill="#B11722"/>
<path d="M31.1217 278.878L30.9623 280.14H13.6048L13.4365 278.878H31.1217Z" fill="#B11722"/>
<path d="M30.7043 282.108L30.5449 283.353H14.0198L13.8516 282.108H30.7043Z" fill="#B11722"/>
<path d="M30.2897 285.331L30.1303 286.566H14.4377L14.2783 285.331H30.2897Z" fill="#B11722"/>
<path d="M29.8704 288.56L29.711 289.777H14.8508L14.6914 288.56H29.8704Z" fill="#B11722"/>
<path d="M29.446 291.79L29.2955 292.99H15.2678L15.1084 291.79H29.446Z" fill="#B11722"/>
<path d="M200.995 224.101L189.261 273.551L188.951 274.848L188.163 278.174C187.818 279.622 186.534 280.636 185.046 280.636H105.999C103.926 280.636 102.403 278.713 102.881 276.71L115.713 222.636C116.059 221.197 117.343 220.183 118.831 220.183H197.878C199.942 220.174 201.474 222.097 200.995 224.101Z" fill="#39393B"/>
<path d="M189.263 273.55L188.953 274.847H106.877V273.55H189.263Z" fill="#585859"/>
<path d="M137.86 232.411C137.205 235.914 133.822 238.755 130.306 238.755C126.79 238.755 124.47 235.914 125.125 232.411C125.781 228.908 129.164 226.066 132.679 226.066C136.195 226.066 138.515 228.908 137.86 232.411Z" fill="#FAAF3A"/>
<path d="M130.668 231.195C130.535 231.892 130.18 232.465 129.879 232.465C129.569 232.465 129.428 231.9 129.561 231.195C129.693 230.497 130.048 229.924 130.349 229.924C130.65 229.924 130.792 230.497 130.668 231.195Z" fill="#39393B"/>
<path d="M133.984 231.195C133.851 231.892 133.497 232.465 133.196 232.465C132.886 232.465 132.744 231.9 132.877 231.195C133.01 230.497 133.364 229.924 133.665 229.924C133.975 229.924 134.117 230.497 133.984 231.195Z" fill="#39393B"/>
<path d="M130.957 235.498C128.22 235.498 128.105 232.771 128.105 232.745C128.096 232.595 128.22 232.445 128.379 232.418C128.539 232.383 128.663 232.48 128.672 232.63C128.672 232.727 128.778 234.951 131.072 234.951C133.356 234.951 134.295 232.727 134.339 232.63C134.401 232.48 134.57 232.392 134.711 232.418C134.853 232.454 134.924 232.595 134.862 232.745C134.827 232.771 133.693 235.498 130.957 235.498Z" fill="#39393B"/>
<path d="M174.391 262.035C174.461 265.318 180.041 269.43 180.041 269.43C180.041 269.43 186.523 265.318 187.311 262.035C188.161 258.479 184.088 257.385 181.068 260.067C178.632 257.385 174.32 258.479 174.391 262.035Z" fill="#DF615C"/>
<path d="M162.59 252.523C162.209 255.929 159.136 258.682 155.727 258.682C152.317 258.682 149.846 255.92 150.227 252.523C150.608 249.116 153.681 246.363 157.09 246.363C160.5 246.354 162.962 249.116 162.59 252.523Z" fill="#585859"/>
<path d="M121.958 220.171L108.293 280.633H105.991C103.919 280.633 102.395 278.71 102.874 276.707L115.706 222.633C116.051 221.194 117.335 220.171 118.823 220.171H121.958Z" fill="#585859"/>
<path d="M144.86 280.636L142.46 294.075H150.377L152.777 280.636H144.86Z" fill="white"/>
<path d="M130.601 291.764L132.222 289.496C132.798 288.684 133.736 288.208 134.737 288.208H156.452C157.603 288.208 158.657 288.843 159.188 289.858L160.277 291.941C160.791 292.911 160.083 294.085 158.976 294.085H131.797C130.61 294.076 129.911 292.735 130.601 291.764Z" fill="white"/>
<path d="M85.3555 294.066H150.588L151.296 291.613C151.739 290.069 150.579 288.533 148.967 288.533H88.7738C87.6934 288.533 86.7458 289.248 86.4447 290.28L85.3555 294.066Z" fill="white"/>
<path d="M561.021 412.309H498.995C497.817 412.309 496.86 411.356 496.86 410.182V409.203C496.86 408.029 497.817 407.076 498.995 407.076H561.021C562.199 407.076 563.155 408.029 563.155 409.203V410.182C563.155 411.356 562.199 412.309 561.021 412.309Z" fill="#39393B"/>
<path d="M499.781 349.111H560.382C561.392 349.111 562.206 349.923 562.206 350.929V358.35C562.206 359.356 561.392 360.168 560.382 360.168H499.781C498.772 360.168 497.957 359.356 497.957 358.35V350.929C497.957 349.923 498.772 349.111 499.781 349.111Z" fill="#585859"/>
<path d="M514.079 302.078C514.079 302.078 488.53 297.048 481.401 279.286C474.272 261.523 500.344 248.198 514.079 257.737C528.78 267.947 514.079 302.078 514.079 302.078Z" fill="#21B573"/>
<path d="M529.277 348.75C529.055 348.75 528.852 348.582 528.816 348.353C526.372 331.852 516.498 308.115 508.66 291.111C500.15 272.668 492.126 257.95 492.047 257.8C491.923 257.579 492.011 257.297 492.233 257.173C492.454 257.05 492.737 257.138 492.861 257.359C492.941 257.509 500.982 272.254 509.51 290.723C517.383 307.788 527.284 331.613 529.746 348.22C529.781 348.476 529.613 348.705 529.356 348.741C529.321 348.75 529.303 348.75 529.277 348.75Z" fill="#39393B"/>
<path d="M513.126 300.367C512.957 300.367 512.798 300.279 512.718 300.12C501.604 279.498 483.556 264.533 483.379 264.383C483.184 264.224 483.157 263.933 483.317 263.739C483.476 263.544 483.768 263.518 483.963 263.677C484.149 263.827 502.33 278.898 513.533 299.688C513.657 299.908 513.568 300.191 513.347 300.314C513.276 300.35 513.196 300.367 513.126 300.367Z" fill="#39393B"/>
<path d="M513.632 301.84C513.499 301.84 513.375 301.788 513.278 301.682C505.175 292.178 496.868 286.266 491.333 282.983C485.329 279.427 481.193 278.095 481.157 278.086C480.918 278.007 480.777 277.751 480.856 277.504C480.936 277.257 481.193 277.124 481.441 277.204C481.609 277.257 485.7 278.563 491.784 282.172C497.39 285.489 505.794 291.472 513.986 301.082C514.154 301.276 514.128 301.567 513.933 301.735C513.844 301.805 513.738 301.84 513.632 301.84Z" fill="#39393B"/>
<path d="M511.38 296.433C511.185 296.433 511.008 296.31 510.946 296.124C504.711 277.903 507.005 255.763 507.031 255.542C507.058 255.286 507.288 255.11 507.536 255.136C507.793 255.163 507.97 255.392 507.943 255.639C507.917 255.86 505.65 277.805 511.813 295.824C511.893 296.062 511.769 296.327 511.521 296.407C511.477 296.424 511.433 296.433 511.38 296.433Z" fill="#39393B"/>
<path d="M512.95 300.04C512.728 300.04 512.533 299.882 512.498 299.652C510.594 288.119 512.055 278.713 513.623 272.853C515.323 266.491 517.448 262.909 517.537 262.759C517.67 262.538 517.953 262.468 518.174 262.6C518.396 262.732 518.467 263.015 518.334 263.235C518.316 263.271 516.173 266.888 514.508 273.136C512.976 278.898 511.541 288.163 513.41 299.511C513.454 299.758 513.277 299.996 513.029 300.04C513.003 300.04 512.976 300.04 512.95 300.04Z" fill="#39393B"/>
<path d="M541.037 306.722C541.037 306.722 566.843 303.201 575.017 285.897C583.191 268.584 557.952 253.751 543.676 262.46C528.391 271.779 541.037 306.722 541.037 306.722Z" fill="#21B573"/>
<path d="M531.254 347.242C531.245 347.242 531.254 347.242 531.254 347.242C530.997 347.242 530.784 347.03 530.793 346.774C530.891 338.277 532.75 328.596 536.319 318.008C539.171 309.545 543.103 300.483 548.027 291.077C556.395 275.061 564.826 263.422 564.915 263.307C565.065 263.104 565.358 263.051 565.561 263.201C565.765 263.351 565.818 263.642 565.668 263.845C565.588 263.96 557.193 275.555 548.85 291.509C541.163 306.219 531.953 327.741 531.732 346.783C531.714 347.039 531.502 347.242 531.254 347.242Z" fill="#39393B"/>
<path d="M542.129 305.063C542.049 305.063 541.961 305.045 541.89 304.992C541.669 304.86 541.606 304.577 541.739 304.357C554.155 284.264 573.204 270.287 573.399 270.146C573.603 269.996 573.895 270.04 574.046 270.243C574.196 270.446 574.152 270.737 573.948 270.887C573.762 271.028 554.855 284.9 542.536 304.833C542.43 304.992 542.28 305.063 542.129 305.063Z" fill="#39393B"/>
<path d="M541.536 306.509C541.421 306.509 541.306 306.465 541.217 306.386C541.031 306.209 541.023 305.918 541.2 305.733C549.958 296.617 558.699 291.147 564.491 288.164C570.778 284.926 574.932 283.858 575.109 283.814C575.357 283.752 575.605 283.902 575.667 284.149C575.729 284.396 575.578 284.643 575.33 284.705C575.286 284.714 571.079 285.799 564.88 288.993C559.159 291.941 550.525 297.359 541.864 306.368C541.775 306.465 541.66 306.509 541.536 306.509Z" fill="#39393B"/>
<path d="M544.106 301.243C544.044 301.243 543.99 301.234 543.928 301.208C543.689 301.11 543.583 300.846 543.672 300.608C550.898 282.977 549.933 260.943 549.924 260.723C549.915 260.467 550.11 260.255 550.367 260.237C550.615 260.22 550.836 260.423 550.854 260.679C550.863 260.899 551.837 283.136 544.539 300.96C544.46 301.137 544.283 301.243 544.106 301.243Z" fill="#39393B"/>
<path d="M542.323 304.754C542.287 304.754 542.252 304.754 542.216 304.745C541.968 304.692 541.809 304.445 541.871 304.198C544.422 292.973 543.536 283.646 542.349 277.805C541.056 271.469 539.143 267.737 539.126 267.692C539.011 267.463 539.099 267.189 539.321 267.075C539.551 266.96 539.825 267.048 539.94 267.269C540.02 267.428 541.924 271.125 543.244 277.584C544.457 283.532 545.36 293.009 542.774 304.401C542.721 304.604 542.535 304.754 542.323 304.754Z" fill="#39393B"/>
<path d="M531.107 273.226C531.107 273.226 509.241 259.125 509.215 239.995C509.188 220.864 538.359 218.111 547.578 232.035C557.453 246.939 531.107 273.226 531.107 273.226Z" fill="#21B573"/>
<path d="M528.051 322.217C528.015 322.217 527.98 322.217 527.945 322.208C527.697 322.146 527.546 321.899 527.599 321.652C531.46 305.425 531.115 279.729 530.15 261.039C529.105 240.771 527.112 224.128 527.094 223.97C527.068 223.714 527.245 223.484 527.502 223.458C527.75 223.431 527.989 223.608 528.015 223.864C528.033 224.031 530.026 240.7 531.08 260.995C532.054 279.746 532.39 305.53 528.511 321.864C528.449 322.076 528.263 322.217 528.051 322.217Z" fill="#39393B"/>
<path d="M531.024 271.31C530.794 271.31 530.59 271.134 530.564 270.904C527.907 247.644 516.705 227.084 516.589 226.881C516.465 226.66 516.545 226.378 516.775 226.254C516.997 226.131 517.28 226.21 517.404 226.44C517.519 226.643 528.81 247.361 531.485 270.807C531.512 271.063 531.334 271.292 531.078 271.319C531.06 271.31 531.042 271.31 531.024 271.31Z" fill="#39393B"/>
<path d="M530.946 272.862C530.751 272.862 530.574 272.739 530.512 272.545C526.518 260.721 521.001 252.17 517.078 247.079C512.827 241.555 509.479 238.802 509.444 238.775C509.249 238.616 509.214 238.325 509.382 238.131C509.541 237.937 509.834 237.901 510.028 238.069C510.17 238.184 513.473 240.902 517.786 246.496C521.762 251.649 527.342 260.297 531.38 272.254C531.46 272.492 531.336 272.757 531.088 272.836C531.043 272.862 530.99 272.862 530.946 272.862Z" fill="#39393B"/>
<path d="M530.866 267.013C530.857 267.013 530.848 267.013 530.839 267.013C530.583 267.004 530.388 266.784 530.405 266.528C531.388 247.309 541.75 227.587 541.847 227.384C541.971 227.164 542.246 227.075 542.476 227.19C542.706 227.305 542.786 227.587 542.671 227.817C542.565 228.011 532.301 247.556 531.335 266.572C531.318 266.828 531.114 267.013 530.866 267.013Z" fill="#39393B"/>
<path d="M530.98 270.939C530.945 270.939 530.918 270.939 530.883 270.93C530.635 270.877 530.476 270.63 530.529 270.383C533.044 258.965 537.915 250.706 541.563 245.782C545.522 240.434 548.834 237.831 548.976 237.725C549.179 237.567 549.472 237.602 549.622 237.805C549.781 238.008 549.746 238.299 549.542 238.449C549.507 238.475 546.168 241.105 542.281 246.355C538.694 251.2 533.903 259.336 531.432 270.577C531.388 270.798 531.193 270.939 530.98 270.939Z" fill="#39393B"/>
<path d="M557.821 319.736L557.059 321.748L556.581 323.027L555.2 326.681L554.713 327.96L553.296 331.719L552.817 332.99L546.725 349.102H513.444L507.351 332.99L506.873 331.719L505.456 327.96L504.969 326.681L503.588 323.027L503.109 321.748L502.348 319.736C501.825 318.351 502.853 316.877 504.332 316.877H555.846C557.316 316.877 558.335 318.351 557.821 319.736Z" fill="#0875F7"/>
<path d="M557.051 321.749L556.573 323.029H503.58L503.102 321.749H557.051Z" fill="#084FC7"/>
<path d="M555.192 326.688L554.705 327.959H505.449L504.962 326.688H555.192Z" fill="#084FC7"/>
<path d="M553.289 331.719L552.81 332.989H507.353L506.866 331.719H553.289Z" fill="#084FC7"/>
<path d="M521.169 360.159L519.318 366.089L493.627 448.594H488.605L504.9 367.774L506.432 360.159H521.169Z" fill="#39393B"/>
<path d="M571.701 448.594H566.679L540.227 363.654L539.146 360.159H553.865L554.237 362.012H554.246L571.701 448.594Z" fill="#39393B"/>
<path d="M561.021 400.935H498.995C497.817 400.935 496.86 399.982 496.86 398.808V397.829C496.86 396.655 497.817 395.702 498.995 395.702H561.012C562.19 395.702 563.147 396.655 563.147 397.829V398.808C563.155 399.982 562.199 400.935 561.021 400.935Z" fill="#585859"/>
<path d="M156.579 148.143C169.843 148.143 180.596 137.563 180.596 124.512C180.596 111.461 169.843 100.881 156.579 100.881C143.314 100.881 132.562 111.461 132.562 124.512C132.562 137.563 143.314 148.143 156.579 148.143Z" fill="#CED3E6"/>
<path d="M156.579 145.071C169.843 145.071 180.596 134.491 180.596 121.44C180.596 108.389 169.843 97.8096 156.579 97.8096C143.314 97.8096 132.562 108.389 132.562 121.44C132.562 134.491 143.314 145.071 156.579 145.071Z" fill="#0875F7"/>
<path d="M156.581 140.651C167.36 140.651 176.099 132.051 176.099 121.441C176.099 110.832 167.36 102.231 156.581 102.231C145.801 102.231 137.062 110.832 137.062 121.441C137.062 132.051 145.801 140.651 156.581 140.651Z" fill="white"/>
<path d="M176.109 121.44C176.109 121.952 176.091 122.455 176.047 122.958C175.259 113.075 166.828 105.266 156.582 105.266C146.336 105.266 137.914 113.075 137.117 122.958C137.081 122.455 137.055 121.952 137.055 121.44C137.055 110.843 145.813 102.23 156.573 102.23C167.351 102.23 176.109 110.843 176.109 121.44Z" fill="#CED3E6"/>
<path d="M156.58 123.436C156.43 123.436 156.279 123.366 156.19 123.242L146.617 110.553C146.458 110.341 146.502 110.041 146.715 109.883C146.927 109.724 147.237 109.768 147.397 109.98L156.74 122.36L167.358 117.771C167.606 117.665 167.889 117.771 168.004 118.018C168.11 118.265 168.004 118.548 167.756 118.654L156.775 123.401C156.713 123.428 156.651 123.436 156.58 123.436Z" fill="#39393B"/>
</svg>
