<svg width="375" height="577" viewBox="0 0 375 577" fill="none" xmlns="http://www.w3.org/2000/svg">
<path d="M353.305 70.9206C366.135 86.0908 372.834 105.717 375 117V0C368.756 0.22123 355.156 7.58784 347.785 20.0057C337.654 37.0721 341.673 57.1684 353.305 70.9206Z" fill="#2F5FAC"/>
<path d="M353.51 224.5C355.595 224.5 357.01 225.988 357.01 227.5C357.01 229.012 355.595 230.5 353.51 230.5C351.424 230.5 350.01 229.012 350.01 227.5C350.01 225.988 351.424 224.5 353.51 224.5Z" stroke="#F47E20" stroke-width="3"/>
<path d="M28.5414 525.834C28.5414 494.312 9.1873 474.919 -0.489746 469.162V576.552C9.1873 572.78 28.5414 557.356 28.5414 525.834Z" fill="#FBAA1C"/>
<circle cx="0.272194" cy="42.681" r="14.9192" transform="rotate(-75 0.272194 42.681)" fill="#C6D6EF"/>
</svg>
