<svg width="53" height="37" viewBox="0 0 53 37" fill="none" xmlns="http://www.w3.org/2000/svg">
<path d="M11.5613 0C5.18601 0 0 5.16321 0 11.5105C0 17.6337 4.82644 22.6558 10.8907 23.0028C10.9957 24.1314 10.9169 27.2037 7.95995 31.4775C7.73642 31.7999 7.77698 32.2347 8.05461 32.5111C9.26464 33.7158 10.0125 34.4745 10.5358 35.0052C11.2209 35.699 11.5335 36.0158 11.9909 36.4292C12.146 36.5694 12.3417 36.6399 12.5383 36.6399C12.7291 36.6399 12.9193 36.5734 13.0728 36.4411C18.2254 31.9772 23.9492 22.7541 23.1211 11.4519C22.6358 4.81633 17.7744 0 11.5613 0ZM12.5462 34.7208C12.3243 34.503 12.0712 34.2464 11.6981 33.8686C11.2447 33.4085 10.6226 32.778 9.67912 31.8355C13.2677 26.3301 12.5899 22.4088 12.2932 21.8464C12.1524 21.5795 11.8636 21.3997 11.5613 21.3997C6.08494 21.3997 1.62923 16.9636 1.62923 11.5105C1.62923 6.05819 6.08494 1.62207 11.5613 1.62207C16.8961 1.62207 21.0742 5.80555 21.4966 11.5691C22.4274 24.2812 14.8389 32.5348 12.5462 34.7208Z" fill="#B6BECB"/>
<path d="M52.0531 11.4519V11.4511C51.5662 4.81633 46.704 0 40.4925 0C34.1172 0 28.9304 5.16321 28.9304 11.5105C28.9304 17.6337 33.7576 22.6558 39.8227 23.0028C39.9277 24.1306 39.8481 27.2013 36.8904 31.4775C36.6669 31.7999 36.7074 32.2347 36.985 32.5111C38.1903 33.711 38.9365 34.4682 39.4599 34.998C40.148 35.6966 40.4623 36.015 40.9221 36.43C41.0772 36.5694 41.2737 36.6399 41.4694 36.6399C41.6604 36.6399 41.8505 36.5734 42.004 36.4403C47.1566 31.9764 52.8804 22.7533 52.0531 11.4519ZM41.4773 34.7208C41.2538 34.5014 40.9985 34.2433 40.6221 33.8615C40.1687 33.4021 39.549 32.7733 38.6095 31.8355C42.1981 26.3293 41.5212 22.4088 41.2252 21.8464C41.0844 21.5803 40.7948 21.3997 40.4925 21.3997C35.0153 21.3997 30.5596 16.9636 30.5596 11.5105C30.5596 6.05819 35.0153 1.62207 40.4925 1.62207C45.8265 1.62207 50.0054 5.80555 50.4286 11.5699V11.5691C51.3586 24.2795 43.7701 32.5348 41.4773 34.7208Z" fill="#B6BECB"/>
</svg>
