<svg width="81" height="57" viewBox="0 0 81 57" fill="none" xmlns="http://www.w3.org/2000/svg">
<path d="M62.7833 56.6975C72.6486 56.6975 80.6736 48.7078 80.6736 38.8858C80.6736 29.4107 73.205 21.6393 63.821 21.1024C63.6585 19.3559 63.7804 14.6017 68.3561 7.98843C68.702 7.48956 68.6393 6.81675 68.2097 6.38904C66.3372 4.52484 65.18 3.35077 64.3701 2.52961C63.3101 1.45594 62.8263 0.965734 62.1185 0.325925C61.8785 0.10906 61.5757 1.28103e-06 61.2715 1.30143e-06C60.9762 1.32124e-06 60.682 0.102903 60.4444 0.307599C52.4711 7.21509 43.6139 21.4873 44.8953 38.9766C45.6463 49.2446 53.169 56.6975 62.7833 56.6975ZM61.2593 2.96962C61.6027 3.30659 61.9942 3.70368 62.5715 4.2884C63.2732 5.00036 64.2359 5.97602 65.6958 7.43447C60.1427 15.9537 61.1916 22.0215 61.6507 22.8918C61.8687 23.3048 62.3155 23.583 62.7833 23.583C71.2576 23.583 78.1525 30.4476 78.1525 38.8858C78.1525 47.3229 71.2576 54.1875 62.7833 54.1875C54.528 54.1875 48.0628 47.7139 47.4091 38.7952C45.9688 19.1242 57.7115 6.35226 61.2593 2.96962Z" fill="#E0E5EF"/>
<path d="M0.124212 38.9766L0.124212 38.9778C0.877647 49.2446 8.40156 56.6975 18.0133 56.6975C27.8787 56.6975 35.905 48.7078 35.905 38.8858C35.905 29.4107 28.4351 21.6393 19.0499 21.1024C18.8874 19.3571 19.0106 14.6055 23.5874 7.98843C23.9333 7.48956 23.8705 6.81675 23.4409 6.38904C21.5759 4.53224 20.4212 3.36056 19.6112 2.54066C18.5464 1.45971 18.0601 0.966993 17.3486 0.324796C17.1086 0.10906 16.8046 1.28121e-06 16.5017 1.30152e-06C16.2062 1.32134e-06 15.912 0.102903 15.6745 0.308855C7.70118 7.21635 -1.15601 21.4884 0.124212 38.9766ZM16.4894 2.96962C16.8353 3.3091 17.2304 3.70857 17.8128 4.29931C18.5144 5.01028 19.4733 5.98329 20.9272 7.43447C15.3741 15.9549 16.4216 22.0215 16.8796 22.8918C17.0975 23.3035 17.5455 23.583 18.0133 23.583C26.489 23.583 33.3838 30.4476 33.3838 38.8858C33.3838 47.3229 26.489 54.1875 18.0133 54.1875C9.75944 54.1875 3.29288 47.7139 2.63802 38.794L2.63802 38.7952C1.19896 19.1267 12.9416 6.35226 16.4894 2.96962Z" fill="#E0E5EF"/>
</svg>
